<svg width="356" height="82" viewBox="0 0 356 82" fill="none" xmlns="http://www.w3.org/2000/svg">
<path d="M78.9025 63V18.4088H86.9289V63H78.9025ZM92.6382 63V31.4039H100.665V63H92.6382ZM96.6514 27.7092C95.2075 27.7092 93.9759 27.2421 92.9567 26.3078C91.9799 25.3735 91.4915 24.1419 91.4915 22.6131C91.4915 21.0842 91.9799 19.8527 92.9567 18.9184C93.9759 17.9841 95.2075 17.5169 96.6514 17.5169C98.1378 17.5169 99.3693 17.9841 100.346 18.9184C101.323 19.8527 101.811 21.0842 101.811 22.6131C101.811 24.1419 101.323 25.3735 100.346 26.3078C99.3693 27.2421 98.1378 27.7092 96.6514 27.7092ZM106.374 63V31.4039H114.273V34.8438H115.42C115.972 33.7821 116.885 32.8691 118.159 32.1046C119.433 31.2977 121.11 30.8943 123.191 30.8943C125.442 30.8943 127.247 31.3402 128.606 32.232C129.965 33.0814 131.005 34.2068 131.727 35.6082H132.874C133.596 34.2493 134.615 33.1239 135.931 32.232C137.248 31.3402 139.117 30.8943 141.537 30.8943C143.491 30.8943 145.253 31.319 146.825 32.1683C148.438 32.9752 149.712 34.228 150.647 35.9267C151.623 37.583 152.112 39.6852 152.112 42.2332V63H144.085V42.8065C144.085 41.0654 143.639 39.7701 142.748 38.9207C141.856 38.0289 140.603 37.583 138.989 37.583C137.163 37.583 135.74 38.1775 134.721 39.3666C133.744 40.5133 133.256 42.1695 133.256 44.3354V63H125.23V42.8065C125.23 41.0654 124.784 39.7701 123.892 38.9207C123 38.0289 121.747 37.583 120.133 37.583C118.307 37.583 116.885 38.1775 115.865 39.3666C114.889 40.5133 114.4 42.1695 114.4 44.3354V63H106.374ZM171.956 63.8918C168.813 63.8918 166.032 63.2336 163.611 61.9171C161.233 60.5581 159.364 58.6683 158.005 56.2476C156.689 53.7845 156.03 50.8967 156.03 47.5842V46.8197C156.03 43.5073 156.689 40.6407 158.005 38.22C159.322 35.7569 161.169 33.8671 163.547 32.5506C165.925 31.1916 168.686 30.5121 171.828 30.5121C174.929 30.5121 177.625 31.2128 179.919 32.6143C182.212 33.9732 183.995 35.8843 185.27 38.3474C186.544 40.7681 187.181 43.5922 187.181 46.8197V49.5589H164.184C164.269 51.7248 165.076 53.4872 166.605 54.8462C168.134 56.2051 170.002 56.8846 172.211 56.8846C174.461 56.8846 176.118 56.3962 177.179 55.4195C178.241 54.4427 179.048 53.3598 179.6 52.1707L186.161 55.6106C185.567 56.7148 184.696 57.9251 183.55 59.2416C182.445 60.5156 180.959 61.6198 179.09 62.5541C177.222 63.4459 174.844 63.8918 171.956 63.8918ZM164.248 43.571H179.027C178.857 41.7448 178.114 40.2797 176.797 39.1755C175.523 38.0714 173.846 37.5193 171.765 37.5193C169.599 37.5193 167.879 38.0714 166.605 39.1755C165.331 40.2797 164.545 41.7448 164.248 43.571ZM204.262 63.8918C200.143 63.8918 196.767 63 194.134 61.2164C191.501 59.4327 189.908 56.8846 189.356 53.5721L196.745 51.6611C197.043 53.1475 197.531 54.3153 198.21 55.1647C198.932 56.014 199.803 56.6298 200.822 57.012C201.884 57.3518 203.031 57.5216 204.262 57.5216C206.131 57.5216 207.511 57.2031 208.403 56.5661C209.295 55.8866 209.74 55.0585 209.74 54.0818C209.74 53.105 209.316 52.3618 208.466 51.8522C207.617 51.3001 206.258 50.8542 204.39 50.5145L202.606 50.1959C200.398 49.7713 198.38 49.1979 196.554 48.476C194.728 47.7116 193.263 46.6711 192.159 45.3546C191.055 44.0381 190.503 42.3394 190.503 40.2585C190.503 37.1158 191.649 34.7164 193.942 33.0602C196.236 31.3614 199.251 30.5121 202.988 30.5121C206.513 30.5121 209.443 31.2977 211.779 32.8691C214.115 34.4404 215.643 36.5001 216.365 39.0481L208.912 41.3414C208.573 39.7276 207.872 38.581 206.81 37.9015C205.791 37.222 204.517 36.8823 202.988 36.8823C201.459 36.8823 200.291 37.1583 199.484 37.7104C198.678 38.22 198.274 38.942 198.274 39.8763C198.274 40.8955 198.699 41.6599 199.548 42.1695C200.398 42.6367 201.544 42.9976 202.988 43.2524L204.772 43.571C207.15 43.9956 209.295 44.569 211.206 45.2909C213.159 45.9704 214.688 46.9684 215.792 48.2849C216.939 49.5589 217.512 51.3001 217.512 53.5084C217.512 56.8209 216.302 59.3902 213.881 61.2164C211.503 63 208.297 63.8918 204.262 63.8918ZM226.393 63.8918C224.694 63.8918 223.25 63.3397 222.061 62.2356C220.915 61.0889 220.341 59.6238 220.341 57.8402C220.341 56.0565 220.915 54.6126 222.061 53.5084C223.25 52.3618 224.694 51.7885 226.393 51.7885C228.134 51.7885 229.578 52.3618 230.725 53.5084C231.871 54.6126 232.445 56.0565 232.445 57.8402C232.445 59.6238 231.871 61.0889 230.725 62.2356C229.578 63.3397 228.134 63.8918 226.393 63.8918ZM237.149 75.7404V31.4039H245.048V35.226H246.195C246.917 33.9945 248.042 32.9115 249.571 31.9772C251.1 31.0005 253.287 30.5121 256.132 30.5121C258.68 30.5121 261.037 31.1491 263.203 32.4231C265.369 33.6547 267.11 35.4808 268.427 37.9015C269.743 40.3222 270.401 43.2524 270.401 46.6923V47.7116C270.401 51.1515 269.743 54.0818 268.427 56.5024C267.11 58.9231 265.369 60.7704 263.203 62.0445C261.037 63.276 258.68 63.8918 256.132 63.8918C254.221 63.8918 252.607 63.6583 251.291 63.1911C250.017 62.7664 248.976 62.2143 248.17 61.5349C247.405 60.8129 246.789 60.091 246.322 59.369H245.176V75.7404H237.149ZM253.712 56.8846C256.217 56.8846 258.277 56.099 259.891 54.5277C261.547 52.9139 262.375 50.5782 262.375 47.5205V46.8834C262.375 43.8258 261.547 41.5113 259.891 39.94C258.234 38.3262 256.175 37.5193 253.712 37.5193C251.248 37.5193 249.189 38.3262 247.533 39.94C245.876 41.5113 245.048 43.8258 245.048 46.8834V47.5205C245.048 50.5782 245.876 52.9139 247.533 54.5277C249.189 56.099 251.248 56.8846 253.712 56.8846ZM274.586 63V31.4039H282.613V63H274.586ZM278.6 27.7092C277.156 27.7092 275.924 27.2421 274.905 26.3078C273.928 25.3735 273.44 24.1419 273.44 22.6131C273.44 21.0842 273.928 19.8527 274.905 18.9184C275.924 17.9841 277.156 17.5169 278.6 17.5169C280.086 17.5169 281.318 17.9841 282.294 18.9184C283.271 19.8527 283.759 21.0842 283.759 22.6131C283.759 24.1419 283.271 25.3735 282.294 26.3078C281.318 27.2421 280.086 27.7092 278.6 27.7092ZM303.165 63.8918C300.107 63.8918 297.325 63.2548 294.82 61.9808C292.357 60.7067 290.403 58.8594 288.959 56.4387C287.515 54.018 286.793 51.0878 286.793 47.6479V46.756C286.793 43.3162 287.515 40.3859 288.959 37.9652C290.403 35.5445 292.357 33.6972 294.82 32.4231C297.325 31.1491 300.107 30.5121 303.165 30.5121C306.18 30.5121 308.77 31.0429 310.936 32.1046C313.102 33.1663 314.843 34.6315 316.16 36.5001C317.519 38.3262 318.411 40.4071 318.835 42.7428L311.064 44.3991C310.894 43.125 310.512 41.9784 309.917 40.9592C309.322 39.94 308.473 39.1331 307.369 38.5385C306.307 37.944 304.969 37.6467 303.356 37.6467C301.742 37.6467 300.277 38.0077 298.96 38.7296C297.686 39.4091 296.667 40.4496 295.903 41.851C295.181 43.21 294.82 44.8875 294.82 46.8834V47.5205C294.82 49.5165 295.181 51.2152 295.903 52.6166C296.667 53.9756 297.686 55.016 298.96 55.738C300.277 56.4175 301.742 56.7572 303.356 56.7572C305.776 56.7572 307.602 56.1414 308.834 54.9099C310.108 53.6358 310.915 51.9796 311.255 49.9411L319.026 51.7885C318.474 54.0393 317.519 56.099 316.16 57.9676C314.843 59.7937 313.102 61.2376 310.936 62.2993C308.77 63.361 306.18 63.8918 303.165 63.8918ZM335.585 63.8918C331.465 63.8918 328.089 63 325.456 61.2164C322.823 59.4327 321.231 56.8846 320.679 53.5721L328.068 51.6611C328.365 53.1475 328.854 54.3153 329.533 55.1647C330.255 56.014 331.126 56.6298 332.145 57.012C333.207 57.3518 334.353 57.5216 335.585 57.5216C337.453 57.5216 338.834 57.2031 339.725 56.5661C340.617 55.8866 341.063 55.0585 341.063 54.0818C341.063 53.105 340.638 52.3618 339.789 51.8522C338.94 51.3001 337.581 50.8542 335.712 50.5145L333.929 50.1959C331.72 49.7713 329.703 49.1979 327.877 48.476C326.051 47.7116 324.586 46.6711 323.481 45.3546C322.377 44.0381 321.825 42.3394 321.825 40.2585C321.825 37.1158 322.972 34.7164 325.265 33.0602C327.558 31.3614 330.574 30.5121 334.311 30.5121C337.836 30.5121 340.766 31.2977 343.102 32.8691C345.437 34.4404 346.966 36.5001 347.688 39.0481L340.235 41.3414C339.895 39.7276 339.195 38.581 338.133 37.9015C337.114 37.222 335.84 36.8823 334.311 36.8823C332.782 36.8823 331.614 37.1583 330.807 37.7104C330 38.22 329.597 38.942 329.597 39.8763C329.597 40.8955 330.022 41.6599 330.871 42.1695C331.72 42.6367 332.867 42.9976 334.311 43.2524L336.094 43.571C338.473 43.9956 340.617 44.569 342.528 45.2909C344.482 45.9704 346.011 46.9684 347.115 48.2849C348.261 49.5589 348.835 51.3001 348.835 53.5084C348.835 56.8209 347.624 59.3902 345.204 61.2164C342.826 63 339.619 63.8918 335.585 63.8918Z" fill="#242624"/>
<g clip-path="url(#clip0_145_1276)">
<path fill-rule="evenodd" clip-rule="evenodd" d="M9.81164 14.3491C9.77973 14.3348 9.75461 14.3236 9.73644 14.3154C8.21035 13.6313 6.94735 13.9997 5.68434 15.8416C3.68459 18.8412 -5.26169 37.4705 4.42134 52.2582C12.3151 64.3093 28.7868 68.2562 41.7326 66.5722C61.1011 63.9931 62.2947 50.6257 62.8253 44.6824C62.8469 44.4409 62.8673 44.2117 62.8879 43.996C63.3604 39.1137 63.2568 38.1069 61.8456 37.475C53.9901 51.7833 30.274 68.4386 12.6026 57.131C-4.07807 46.5017 2.97096 23.0866 9.81164 14.3491Z" fill="#242624"/>
<path d="M27.4715 26.3141L8.15809 31.8923C6.84247 32.3133 5.84259 33.3658 5.52684 34.6814C4.52696 39.1546 5.94784 46.9431 10.2105 50.3637C12.0524 51.7846 14.7362 51.311 15.894 49.2586L28.6819 28.1033C29.366 27.2086 28.945 25.8931 27.4715 26.3141Z" fill="#242624"/>
<path d="M34.9972 27.8401C34.9972 27.8401 42.6805 43.6803 43.4173 45.2064C44.154 46.7325 46.7327 47.6798 48.6272 46.6799C54.258 43.7329 56.7841 40.1544 58.7312 36.0496C54.0475 33.9972 36.4181 26.1561 36.4181 26.1561C35.1551 25.5772 34.3131 26.4718 34.9972 27.8401Z" fill="#242624"/>
<path d="M30.4709 28.8399C29.6289 30.2608 18.6829 49.1533 17.683 50.7846C16.6831 52.4687 17.3146 54.7316 19.1039 55.6261C25.5768 59.0468 35.365 55.8367 39.9435 51.9424C41.1012 50.9425 42.3116 49.2585 41.6275 47.6271C40.9433 45.9957 34.1547 29.9977 33.5758 28.7873C32.9443 27.3664 31.4182 27.3138 30.4709 28.8399Z" fill="#242624"/>
<path d="M28.2085 22.4724C23.8406 20.5252 15.368 16.8415 12.6315 15.6311C10.737 16.7889 7.52685 21.6303 6.73747 26.7876C6.42172 28.6821 7.6321 29.8925 9.52661 29.3663C9.52661 29.3663 27.2613 24.4721 28.1033 24.2616C28.9453 23.9985 29.1558 22.8934 28.2085 22.4724Z" fill="#242624"/>
</g>
<defs>
<clipPath id="clip0_145_1276">
<rect width="63.7018" height="53.7742" fill="white" transform="translate(0 13.2712)"/>
</clipPath>
</defs>
</svg>
