<svg width="164" height="161" viewBox="0 0 164 161" fill="none" xmlns="http://www.w3.org/2000/svg">
<path fill-rule="evenodd" clip-rule="evenodd" d="M81.9861 0C36.6499 0 0 36.7811 0 82.2843C0 118.657 23.4829 149.447 56.0598 160.344C60.1328 161.163 61.6247 158.573 61.6247 156.395C61.6247 154.487 61.4904 147.949 61.4904 141.136C38.6839 146.041 33.9346 131.327 33.9346 131.327C30.2695 121.791 24.8388 119.34 24.8388 119.34C17.3743 114.299 25.3826 114.299 25.3826 114.299C33.6627 114.844 38.0076 122.745 38.0076 122.745C45.3362 135.278 57.1456 131.737 61.8966 129.556C62.5745 124.243 64.7478 120.565 67.0553 118.522C48.8654 116.614 29.7274 109.531 29.7274 77.9241C29.7274 68.9328 32.9831 61.5766 38.1418 55.8554C37.3279 53.8124 34.4767 45.3645 38.9574 34.0576C38.9574 34.0576 45.8799 31.8775 61.4888 42.5039C68.1714 40.7027 75.0632 39.7865 81.9861 39.7788C88.9086 39.7788 95.9654 40.7334 102.482 42.5039C118.092 31.8775 125.015 34.0576 125.015 34.0576C129.496 45.3645 126.643 53.8124 125.829 55.8554C131.123 61.5766 134.245 68.9328 134.245 77.9241C134.245 109.531 115.107 116.477 96.781 118.522C99.7682 121.11 102.346 126.014 102.346 133.78C102.346 144.814 102.212 153.67 102.212 156.393C102.212 158.573 103.705 161.163 107.776 160.346C140.353 149.445 163.836 118.657 163.836 82.2843C163.971 36.7811 127.186 0 81.9861 0Z" fill="#AA8ED6"/>
<path fill-rule="evenodd" clip-rule="evenodd" d="M54.4851 71.6013C54.4375 72.0513 54.4131 72.5081 54.4131 72.9707C54.4131 80.0793 60.1758 85.842 67.2844 85.842C74.3931 85.842 80.1558 80.0793 80.1558 72.9707C80.1558 72.5081 80.1314 72.0513 80.0838 71.6013H54.4851Z" fill="white"/>
<path fill-rule="evenodd" clip-rule="evenodd" d="M66.1773 71.6013C66.1249 71.9283 66.0977 72.2637 66.0977 72.6055C66.0977 76.0842 68.9177 78.9043 72.3964 78.9043C75.8751 78.9043 78.6952 76.0842 78.6952 72.6055C78.6952 72.2637 78.6679 71.9283 78.6155 71.6013H66.1773Z" fill="#AA8ED6"/>
<path fill-rule="evenodd" clip-rule="evenodd" d="M85.7047 71.6013C85.6571 72.0513 85.6327 72.5081 85.6327 72.9707C85.6327 80.0793 91.3954 85.842 98.5041 85.842C105.613 85.842 111.375 80.0793 111.375 72.9707C111.375 72.5081 111.351 72.0513 111.303 71.6013H85.7047Z" fill="white"/>
<path fill-rule="evenodd" clip-rule="evenodd" d="M97.397 71.6013C97.3446 71.9283 97.3174 72.2637 97.3174 72.6055C97.3174 76.0842 100.137 78.9043 103.616 78.9043C107.095 78.9043 109.915 76.0842 109.915 72.6055C109.915 72.2637 109.888 71.9283 109.835 71.6013H97.397Z" fill="#AA8ED6"/>
<path d="M77.4174 104.19C76.468 106.016 77.8129 107.385 78.6041 107.842C79.6387 108.237 82.4746 109.047 85.5418 109.12C89.3759 109.211 94.6705 107.568 98.5045 104.738C102.339 101.908 104.621 97.344 105.351 94.8793C105.935 92.9075 104.621 91.8668 103.89 91.5929C102.704 91.1365 100.577 91.3191 100.056 93.0535C98.6871 97.6178 95.3095 100.813 90.8364 102.73C87.258 104.263 82.712 103.369 80.8862 102.73C80.1255 102.456 78.3667 102.365 77.4174 104.19Z" fill="#AA8ED6"/>
<path d="M68.3322 54.0744C68.6506 53.0523 67.8361 52.4747 67.389 52.3136C66.8229 52.2061 65.2962 52.0522 63.7188 52.2967C61.7471 52.6022 59.1868 53.9302 57.4835 55.7316C55.7802 57.5331 55.0309 60.0801 54.8834 61.4093C54.7654 62.4727 55.5342 62.8849 55.9333 62.958C56.583 63.0827 57.6554 62.7937 57.7625 61.8578C58.0443 59.3946 59.4803 57.4481 61.5947 56.0554C63.2863 54.9413 65.6964 54.9817 66.6901 55.1411C67.1048 55.2115 68.0138 55.0966 68.3322 54.0744Z" fill="#AA8ED6"/>
<path d="M97.0182 54.0744C96.6998 53.0523 97.5144 52.4747 97.9615 52.3136C98.5276 52.2061 100.054 52.0522 101.632 52.2967C103.603 52.6022 106.164 53.9302 107.867 55.7316C109.57 57.5331 110.32 60.0801 110.467 61.4093C110.585 62.4727 109.816 62.8849 109.417 62.958C108.767 63.0827 107.695 62.7937 107.588 61.8578C107.306 59.3946 105.87 57.4481 103.756 56.0554C102.064 54.9413 99.654 54.9817 98.6604 55.1411C98.2457 55.2115 97.3366 55.0966 97.0182 54.0744Z" fill="#AA8ED6"/>
</svg>
