<svg width="174" height="92" viewBox="0 0 174 92" fill="none" xmlns="http://www.w3.org/2000/svg">
<path d="M0.448 90V0.399994H32.576L50.368 78.48H52.672V0.399994H69.312V90H37.184L19.392 11.92H17.088V90H0.448ZM110.518 91.792C104.203 91.792 98.5287 90.512 93.494 87.952C88.4593 85.392 84.4913 81.68 81.59 76.816C78.6887 71.952 77.238 66.1067 77.238 59.28V57.232C77.238 50.4053 78.6887 44.56 81.59 39.696C84.4913 34.832 88.4593 31.12 93.494 28.56C98.5287 26 104.203 24.72 110.518 24.72C116.833 24.72 122.507 26 127.542 28.56C132.577 31.12 136.545 34.832 139.446 39.696C142.347 44.56 143.798 50.4053 143.798 57.232V59.28C143.798 66.1067 142.347 71.952 139.446 76.816C136.545 81.68 132.577 85.392 127.542 87.952C122.507 90.512 116.833 91.792 110.518 91.792ZM110.518 77.456C115.467 77.456 119.563 75.8773 122.806 72.72C126.049 69.4773 127.67 64.8693 127.67 58.896V57.616C127.67 51.6427 126.049 47.0773 122.806 43.92C119.649 40.6773 115.553 39.056 110.518 39.056C105.569 39.056 101.473 40.6773 98.23 43.92C94.9873 47.0773 93.366 51.6427 93.366 57.616V58.896C93.366 64.8693 94.9873 69.4773 98.23 72.72C101.473 75.8773 105.569 77.456 110.518 77.456ZM161.647 91.792C158.234 91.792 155.332 90.6827 152.943 88.464C150.639 86.16 149.487 83.216 149.487 79.632C149.487 76.048 150.639 73.1467 152.943 70.928C155.332 68.624 158.234 67.472 161.647 67.472C165.146 67.472 168.047 68.624 170.351 70.928C172.655 73.1467 173.807 76.048 173.807 79.632C173.807 83.216 172.655 86.16 170.351 88.464C168.047 90.6827 165.146 91.792 161.647 91.792Z" fill="white"/>
</svg>
