<?xml version="1.0" standalone="no"?>
<!DOCTYPE svg PUBLIC "-//W3C//DTD SVG 20010904//EN"
 "http://www.w3.org/TR/2001/REC-SVG-20010904/DTD/svg10.dtd">
<svg version="1.0" xmlns="http://www.w3.org/2000/svg"
 width="925.000000pt" height="925.000000pt" viewBox="0 0 925.000000 925.000000"
 preserveAspectRatio="xMidYMid meet">
<metadata>
Created by potrace 1.14, written by Peter Selinger 2001-2017
</metadata>
<g transform="translate(0.000000,925.000000) scale(0.100000,-0.100000)"
fill="#000000" stroke="none">
<path d="M0 8310 l0 -940 40 0 c29 0 40 -4 40 -15 0 -11 -11 -15 -40 -15 l-40
0 0 -521 0 -522 38 9 c20 4 74 7 120 6 50 -1 82 2 82 8 0 5 4 10 9 10 15 0 42
-31 35 -41 -3 -5 10 -8 28 -8 18 1 47 -3 65 -9 26 -8 31 -8 26 4 -4 11 5 14
36 14 36 0 41 3 41 22 0 22 1 22 26 -6 26 -27 26 -29 11 -62 -17 -34 -11 -44
11 -22 21 21 14 -18 -12 -70 -13 -26 -27 -58 -31 -72 -4 -14 -15 -34 -24 -44
-15 -18 -15 -19 1 -13 15 5 17 1 14 -21 -5 -42 -18 -86 -29 -99 -7 -9 -5 -13
7 -13 20 0 21 -33 1 -50 -15 -12 -66 -95 -65 -105 1 -3 -8 -22 -19 -43 -11
-20 -28 -68 -37 -107 -9 -38 -23 -75 -30 -83 -8 -7 -14 -19 -14 -27 0 -7 -7
-25 -15 -41 -17 -33 -12 -43 11 -23 15 13 17 11 12 -19 -2 -17 -1 -32 3 -32
11 0 19 -29 23 -83 2 -35 0 -44 -10 -40 -8 3 -14 0 -14 -6 0 -6 4 -11 9 -11
14 0 35 -134 22 -138 -16 -5 -14 -32 2 -32 18 0 36 -37 39 -80 2 -19 9 -36 16
-36 6 -1 19 -2 27 -3 8 0 15 -10 15 -20 0 -25 16 -36 24 -16 9 23 29 18 23 -6
-4 -16 -2 -19 10 -15 11 4 13 2 9 -9 -8 -22 4 -45 24 -45 12 0 20 -9 22 -22 2
-13 10 -23 19 -23 20 0 49 -23 49 -39 0 -15 36 -46 55 -46 8 0 19 -17 25 -41
14 -52 46 -95 82 -114 16 -7 26 -10 24 -6 -3 4 7 8 22 8 56 0 139 80 112 107
-5 5 -10 14 -10 18 0 12 34 10 48 -4 9 -9 16 -7 32 7 11 10 17 22 14 27 -3 5
4 4 16 -4 17 -10 24 -10 27 -1 2 7 11 9 19 6 8 -3 14 1 14 10 0 10 -7 13 -20
10 -11 -3 -20 0 -20 6 0 6 7 11 15 11 8 0 15 7 15 15 0 8 5 16 10 16 6 1 15 2
22 3 10 1 25 26 16 26 -3 0 -25 -7 -51 -16 -55 -19 -85 -14 -39 7 18 7 32 20
32 26 0 16 -26 17 -35 2 -4 -6 -14 -8 -22 -5 -9 4 -22 1 -30 -6 -12 -10 -18
-9 -28 5 -7 10 -19 15 -28 11 -17 -6 -87 23 -87 37 0 4 4 10 9 13 5 4 12 30
16 59 4 28 13 61 19 72 7 11 15 34 19 51 7 38 118 224 133 224 14 0 86 135 77
143 -9 9 28 48 38 41 5 -3 14 8 21 23 27 65 171 233 199 233 11 0 12 -17 1
-22 -4 -1 -17 -38 -30 -80 -23 -82 -29 -185 -13 -247 6 -20 15 -57 22 -82 8
-28 20 -49 33 -55 23 -11 67 -83 61 -102 -3 -7 6 -18 19 -24 14 -6 27 -21 30
-34 6 -23 46 -54 46 -35 0 5 -5 11 -12 13 -8 3 -9 6 -1 11 5 3 21 -5 33 -18
l23 -25 -26 0 c-15 0 -27 -5 -27 -10 0 -6 11 -8 27 -4 l26 7 -6 -75 c-4 -42
-11 -88 -17 -102 -5 -15 -10 -55 -10 -89 0 -34 -4 -109 -10 -167 -40 -447 -51
-771 -27 -803 10 -15 160 -66 194 -67 6 0 33 -10 60 -22 26 -12 54 -20 61 -19
6 1 12 -4 13 -11 5 -63 9 -97 14 -118 4 -14 8 -42 10 -62 4 -33 18 -86 45
-171 5 -16 6 -35 4 -42 -3 -7 2 -25 11 -39 10 -14 13 -26 9 -26 -5 0 -10 -41
-12 -92 -3 -100 7 -113 17 -22 6 60 24 81 36 43 7 -21 30 -52 73 -96 12 -13
22 -26 22 -30 0 -3 20 -38 45 -78 32 -51 64 -86 108 -119 34 -26 80 -64 102
-86 22 -22 43 -40 47 -40 12 0 58 -47 58 -59 0 -6 10 -11 23 -11 32 0 51 -15
44 -35 -6 -13 -3 -15 13 -10 13 4 22 1 26 -9 3 -8 12 -17 20 -20 9 -3 12 -1 9
4 -3 6 -2 10 3 10 6 0 12 -7 16 -15 3 -8 12 -12 21 -9 9 4 15 1 15 -9 0 -9 14
-17 37 -20 44 -8 51 -3 35 23 -7 11 -8 20 -3 20 15 0 36 -32 33 -50 -2 -10 4
-20 12 -23 8 -3 28 -32 43 -64 16 -32 52 -101 81 -153 28 -52 58 -115 68 -140
10 -25 20 -47 23 -50 13 -11 61 -122 61 -139 0 -10 7 -24 14 -31 8 -6 23 -33
32 -58 10 -26 22 -53 27 -60 7 -9 4 -19 -11 -35 -21 -23 -37 -87 -21 -87 5 0
12 8 15 17 24 71 44 94 44 52 0 -20 -35 -86 -105 -194 -18 -27 -36 -61 -40
-75 -9 -29 -102 -150 -116 -150 -5 0 -9 8 -10 18 0 11 -4 8 -8 -8 -12 -40 -33
-68 -47 -63 -6 2 -18 -10 -25 -26 -8 -17 -18 -31 -22 -31 -5 0 -6 4 -2 9 3 5
1 13 -5 16 -8 5 -7 11 1 21 6 8 9 17 5 21 -12 12 -25 -11 -29 -51 -5 -42 -36
-75 -71 -76 -16 0 -15 3 8 21 14 11 26 28 26 36 0 15 -2 15 -17 1 -10 -9 -28
-19 -40 -22 -13 -4 -23 -15 -23 -26 0 -10 -4 -22 -10 -25 -5 -3 -10 -17 -10
-31 l0 -25 35 26 c33 26 59 27 49 2 -2 -7 -18 -21 -35 -31 -23 -14 -33 -15
-44 -6 -11 9 -19 7 -36 -9 -13 -12 -27 -21 -32 -21 -5 0 -7 -17 -6 -37 2 -21
0 -39 -4 -40 -19 -7 -24 -1 -19 23 4 24 3 25 -17 15 -17 -10 -22 -9 -27 4 -7
18 -24 20 -24 3 1 -24 50 -69 78 -72 15 -2 27 -5 27 -6 0 -1 17 -3 38 -6 21
-3 37 0 37 6 0 5 -7 10 -15 10 -8 0 -15 5 -15 10 0 6 -9 10 -20 10 -27 0 -25
29 3 39 12 5 26 7 30 4 4 -3 14 0 21 7 16 12 126 21 126 10 0 -4 -7 -13 -15
-20 -12 -10 -15 -10 -15 1 0 9 -7 7 -18 -7 -20 -25 -49 -37 -57 -24 -12 19
-22 10 -17 -15 5 -27 21 -32 40 -13 9 9 12 8 12 -5 0 -19 15 -23 26 -6 4 7 20
8 42 4 31 -6 34 -5 24 8 -11 12 0 28 63 92 78 80 99 90 71 36 -9 -17 -16 -33
-15 -36 1 -3 -2 -35 -6 -72 -7 -71 -35 -123 -66 -123 -9 0 -20 -7 -23 -16 -9
-22 -8 -24 8 -18 8 3 22 2 30 -3 13 -7 11 -13 -10 -41 -14 -17 -32 -32 -40
-32 -8 0 -14 -7 -14 -15 0 -8 5 -15 10 -15 6 0 10 5 10 11 0 6 8 8 19 4 13 -4
20 0 24 15 3 11 10 20 16 20 7 0 11 -30 11 -83 0 -78 -2 -84 -24 -96 -23 -13
-43 -61 -25 -61 5 0 9 7 9 15 0 24 42 36 56 17 24 -33 -7 -55 -80 -56 -23 -1
-41 -6 -44 -14 -3 -9 3 -11 21 -7 26 7 67 -9 67 -25 0 -5 -7 -16 -16 -24 -8
-9 -11 -16 -6 -16 5 0 15 7 22 15 7 8 18 15 25 15 7 0 15 7 19 15 3 8 12 15
21 15 11 0 14 -6 9 -25 -3 -14 -2 -25 2 -25 11 1 50 62 59 92 26 89 100 243
154 322 42 59 128 152 135 145 9 -8 -10 -100 -22 -108 -5 -3 -13 -22 -17 -41
-4 -19 -12 -38 -17 -41 -6 -4 -9 -12 -6 -19 2 -7 17 6 32 29 16 23 33 41 37
41 25 0 -7 -82 -62 -162 -11 -14 -19 -33 -19 -41 0 -8 -9 -25 -19 -39 -15 -19
-20 -43 -22 -109 -1 -46 1 -100 4 -119 4 -19 10 -62 15 -95 5 -33 17 -85 26
-115 9 -30 20 -68 24 -85 l8 -30 146 -3 145 -3 7 38 c3 21 6 68 6 105 0 37 4
70 10 73 6 4 10 -7 10 -26 0 -26 2 -29 14 -19 11 8 13 25 9 63 -3 29 -10 53
-15 55 -4 2 -8 8 -8 13 0 13 78 11 82 -2 2 -7 15 -4 35 7 30 18 32 18 52 0 14
-13 21 -31 21 -58 0 -27 4 -38 15 -38 11 0 15 11 15 40 0 22 5 40 10 40 6 0
10 -14 10 -31 0 -25 3 -29 13 -20 8 6 17 8 20 4 12 -12 7 -22 -13 -28 -11 -3
-20 -13 -20 -21 0 -21 18 -17 31 7 7 13 17 19 29 16 12 -3 17 0 14 8 -9 21 10
25 52 10 40 -14 74 -3 45 14 -7 5 -10 14 -7 20 12 19 26 12 37 -16 6 -15 17
-41 24 -58 21 -43 55 -154 55 -176 0 -15 7 -19 34 -19 l34 0 -9 38 c-19 76
-27 127 -23 134 3 5 23 8 45 8 21 0 39 5 39 11 0 7 18 10 48 9 75 -4 112 -1
112 9 0 6 14 25 30 43 l30 32 0 -37 c0 -20 5 -37 10 -37 6 0 10 9 10 20 0 17
7 20 53 20 36 0 60 6 77 20 l25 20 -25 0 c-33 0 -13 19 25 24 17 2 44 11 60
20 17 9 47 16 68 16 20 0 37 4 37 9 0 5 10 12 23 14 l22 4 -23 8 c-13 4 -21
12 -19 18 5 15 77 39 77 25 0 -12 70 -2 85 13 5 5 24 9 42 9 21 0 33 5 33 14
0 7 15 19 33 26 17 6 46 18 62 26 17 8 41 16 53 17 19 1 22 7 22 39 0 31 -4
38 -20 38 -11 0 -20 7 -20 15 0 8 -7 15 -16 15 -12 0 -15 -6 -10 -24 4 -15 0
-28 -9 -36 -8 -7 -15 -21 -15 -31 0 -15 -7 -19 -35 -19 -34 0 -35 1 -36 43 -2
29 -3 34 -6 15 -2 -16 -10 -28 -18 -28 -16 0 -25 56 -11 70 15 15 56 12 62 -5
12 -29 41 -17 48 20 5 25 20 46 56 76 27 23 47 46 44 50 -3 5 6 9 20 9 14 0
45 9 68 19 24 10 57 25 73 32 l30 13 -34 4 c-18 2 -38 -1 -44 -7 -15 -15 -46
-14 -61 2 -18 17 -1 41 35 50 37 9 64 37 78 80 11 34 16 37 49 37 33 1 35 2
20 14 -10 7 -18 18 -18 25 0 16 30 13 36 -4 4 -8 15 -15 25 -15 10 0 19 -6 19
-12 0 -24 20 16 20 41 0 13 10 34 23 47 48 51 52 59 49 101 -2 34 0 43 12 43
12 0 16 -10 16 -40 0 -29 4 -40 15 -40 11 0 15 12 16 43 2 30 3 34 6 14 4 -22
9 -28 25 -25 29 4 34 25 7 33 -17 6 -19 9 -8 16 11 7 10 9 -3 9 -10 0 -18 7
-18 15 0 9 9 15 25 15 14 0 25 -4 25 -10 0 -5 7 -10 15 -10 8 0 15 5 15 10 0
6 -7 10 -15 10 -8 0 -15 4 -15 9 0 16 24 18 39 4 7 -8 18 -12 25 -10 15 5 21
37 7 37 -17 0 -71 51 -71 67 0 8 -12 13 -35 13 -28 0 -35 -4 -35 -19 0 -27
-27 -51 -58 -52 -15 0 -21 -3 -14 -6 13 -5 17 -83 4 -83 -5 0 -14 11 -20 25
-13 29 -29 31 -80 9 -20 -9 -58 -16 -84 -15 -28 1 -48 -2 -48 -9 0 -5 5 -10
12 -10 6 0 -2 -11 -18 -25 -31 -27 -59 -32 -67 -12 -4 9 -6 9 -6 0 -1 -18 -56
-16 -75 2 -8 8 -26 15 -40 15 -14 0 -26 5 -26 10 0 6 -7 10 -15 10 -8 0 -15
-4 -15 -10 0 -5 7 -10 15 -10 10 0 15 -10 15 -30 0 -34 -20 -42 -21 -7 0 21
-1 21 -8 2 -5 -11 -4 -22 0 -23 5 -2 9 -7 9 -11 0 -11 -128 -23 -143 -14 -7 4
-19 8 -27 8 -8 0 -17 11 -18 25 -5 31 -46 70 -75 70 -15 0 -29 -12 -43 -36
l-20 -36 -30 24 c-16 14 -37 28 -48 31 -18 7 -17 8 4 27 l23 20 -34 -6 c-19
-4 -36 -10 -39 -14 -3 -3 -13 -9 -22 -13 -13 -4 -15 -2 -11 11 4 9 13 22 21
28 16 12 13 45 -5 52 -8 2 -13 -5 -13 -17 0 -12 -6 -24 -14 -27 -8 -3 -19 -19
-25 -36 -9 -26 -13 -29 -26 -18 -13 10 -19 10 -34 -5 -25 -21 -61 -12 -61 17
0 17 -4 19 -25 14 -17 -4 -31 0 -45 14 -12 12 -32 25 -46 30 -15 6 -22 15 -18
21 5 8 -1 10 -19 5 -17 -4 -37 0 -59 14 -20 11 -38 16 -46 11 -11 -7 -10 -9 2
-14 9 -4 16 -13 16 -22 0 -11 11 -15 40 -15 38 0 40 -2 40 -30 0 -31 -36 -62
-49 -42 -3 5 -30 13 -58 17 -30 4 -53 12 -53 19 0 6 -9 17 -21 24 -12 8 -18
19 -15 28 4 9 -4 19 -19 26 -27 12 -32 27 -13 46 9 9 8 12 -8 12 -13 0 -24 11
-31 30 -9 23 -15 28 -30 23 -10 -3 -20 -10 -23 -14 -7 -11 -80 1 -80 12 0 5
11 11 25 15 14 3 23 10 20 14 -6 10 16 73 29 82 6 4 7 10 3 14 -4 4 -13 2 -19
-4 -20 -20 -36 -14 -30 13 2 14 -1 31 -7 39 -9 11 -9 15 1 19 10 4 9 9 -3 19
-9 7 -18 22 -20 32 -2 10 -20 23 -41 31 -37 12 -38 12 -38 -10 0 -17 7 -25 22
-27 14 -2 24 -13 29 -30 6 -21 3 -27 -15 -33 -21 -6 -21 -6 -1 -14 18 -8 18
-9 -7 -16 -21 -5 -28 -13 -29 -34 0 -14 -3 -20 -6 -13 -2 6 -15 12 -28 12 -17
0 -25 -8 -30 -28 -7 -25 -8 -25 -15 -7 -13 31 -12 33 22 51 30 16 31 17 13 30
-11 8 -24 13 -30 10 -7 -2 -10 8 -8 28 4 28 3 29 -10 14 -8 -10 -22 -18 -31
-18 -12 0 -16 10 -16 45 0 38 -4 47 -27 62 -39 24 -44 34 -39 66 4 20 0 30
-14 39 -24 15 -26 43 -4 52 8 3 12 11 9 17 -4 6 -14 8 -22 5 -9 -4 -17 1 -20
14 -3 11 -9 20 -13 20 -4 0 -11 11 -14 25 -4 14 -12 25 -19 25 -18 1 -57 36
-57 53 0 8 -13 20 -30 27 -32 13 -38 25 -17 33 8 3 7 10 -7 25 -22 25 -41 123
-25 132 11 7 2 40 -11 40 -5 0 -12 -9 -15 -20 -10 -32 -23 -23 -30 20 -4 25
-12 40 -21 40 -8 0 -14 7 -14 15 0 8 -11 25 -25 37 -26 22 -33 52 -15 63 15 9
12 45 -4 45 -8 0 -23 18 -33 40 -15 34 -22 40 -50 40 -28 0 -33 4 -33 24 0 13
-3 31 -6 40 -5 12 0 16 21 16 23 0 26 2 15 15 -7 8 -19 15 -27 15 -8 0 -11 4
-8 10 3 6 -1 7 -9 4 -9 -3 -16 -1 -16 4 0 6 -7 17 -15 26 -15 15 -10 50 6 40
5 -3 9 2 9 11 0 9 6 15 13 12 6 -2 11 -11 9 -20 -1 -8 2 -18 8 -22 5 -3 10 1
10 9 0 9 5 16 10 16 15 0 12 76 -4 89 -12 10 -17 8 -26 -9 -11 -21 -12 -21
-31 -4 -10 9 -19 23 -19 31 0 7 -7 13 -16 13 -15 0 -16 8 -11 60 4 33 4 87 0
120 -5 50 -9 60 -24 60 -15 0 -19 8 -19 36 0 19 -7 42 -15 50 -8 9 -22 40 -31
70 -16 55 -26 62 -81 55 -12 -2 -17 10 -14 36 1 6 -7 14 -18 18 -34 11 -81 61
-81 88 0 13 -13 40 -30 58 -27 31 -30 32 -30 12 0 -40 -15 -25 -27 27 -7 28
-21 64 -33 79 -11 16 -20 34 -20 40 0 6 -8 11 -17 11 -15 0 -14 2 3 15 19 15
19 16 -3 31 -17 12 -20 20 -13 39 5 14 5 26 -2 33 -16 16 -20 339 -5 363 8 13
8 24 -1 41 -9 17 -10 51 -3 138 5 63 8 117 6 119 -2 2 3 17 11 33 9 18 13 41
9 58 -3 15 -2 31 3 34 5 3 15 26 22 51 11 40 30 62 30 35 0 -5 5 -10 11 -10 7
0 9 11 6 29 -4 19 -1 33 8 41 8 7 15 21 15 31 0 13 7 19 23 19 13 0 28 5 35
12 6 6 15 8 19 3 5 -4 3 -10 -4 -12 -13 -5 14 -43 32 -43 19 -1 55 -38 55 -58
0 -23 35 -35 108 -36 24 -1 46 -6 50 -11 4 -6 14 -14 23 -20 57 -36 100 -67
118 -87 12 -12 21 -17 21 -10 0 17 27 3 33 -17 3 -12 22 -21 63 -30 32 -7 75
-17 95 -22 20 -5 47 -9 60 -9 29 0 13 -17 -20 -22 -14 -1 -26 -8 -28 -15 -3
-9 14 -10 69 -6 40 3 78 9 83 13 6 4 25 11 43 15 18 4 45 13 60 21 15 8 34 14
42 14 23 0 83 23 110 43 13 9 28 17 33 17 7 0 64 37 77 50 7 7 42 29 59 37 7
3 25 17 39 29 29 27 54 31 72 9 7 -8 16 -13 20 -10 9 6 60 108 60 122 0 5 11
20 25 33 14 13 25 29 25 37 0 7 4 13 9 13 4 0 22 33 39 73 33 80 54 193 41
219 -5 9 -9 34 -9 56 0 24 -6 45 -15 52 -13 10 -13 15 -3 21 9 6 8 10 -5 15
-9 3 -17 14 -17 23 0 9 -5 22 -12 29 -9 9 -9 12 0 12 18 0 15 64 -4 108 l-17
37 -9 -45 c-4 -25 -6 -56 -2 -70 5 -23 5 -24 -14 -7 -10 9 -23 17 -29 17 -6 0
-14 6 -17 13 -4 6 -4 -4 -1 -23 4 -25 2 -31 -5 -20 -5 8 -10 25 -10 38 0 12
-6 22 -12 22 -9 0 -8 3 2 10 12 7 10 11 -10 18 -18 7 -25 17 -25 35 0 15 -4
26 -10 24 -5 -1 -9 -8 -9 -14 3 -22 -25 -14 -41 11 -25 37 -90 59 -215 71 -25
3 -106 -9 -185 -25 -28 -7 -42 -5 -47 3 -5 8 -8 6 -8 -5 0 -10 -4 -18 -10 -18
-12 0 -12 2 0 35 10 26 9 27 -17 20 -15 -3 -30 -10 -33 -13 -12 -16 -63 -35
-92 -35 -18 0 -38 -4 -44 -9 -16 -12 -115 -6 -111 7 2 5 16 11 31 12 31 2 59
21 51 33 -3 5 -18 2 -33 -6 -15 -7 -33 -14 -40 -14 -7 0 -30 -9 -52 -20 -22
-11 -52 -20 -68 -20 -16 0 -42 -6 -58 -14 -32 -16 -47 -19 -86 -17 -22 1 -25
5 -21 24 4 12 12 31 20 42 7 11 13 28 13 38 0 10 13 46 29 81 18 38 28 71 24
84 -4 18 -1 22 17 22 17 0 21 4 16 17 -4 11 6 36 30 70 20 30 34 59 30 68 -3
9 0 15 9 15 9 0 15 9 15 23 0 12 9 28 20 35 11 6 17 18 14 26 -3 7 2 16 11 20
9 3 14 10 10 15 -3 6 3 15 14 21 13 7 22 7 26 0 4 -7 11 -6 20 2 28 26 40 37
51 50 15 19 64 117 64 129 0 21 -21 -4 -46 -56 -29 -59 -81 -121 -92 -110 -9
9 -9 105 1 105 4 0 7 -4 7 -10 0 -5 4 -10 10 -10 5 0 7 6 4 14 -3 8 4 16 18
21 20 6 21 8 5 12 -22 6 -21 13 19 130 17 49 34 81 40 79 16 -6 34 14 27 30
-3 8 0 15 6 15 20 3 26 4 38 12 7 4 16 0 22 -10 8 -14 10 -11 16 19 4 20 16
44 26 54 10 9 19 23 19 30 0 7 6 17 13 21 7 4 20 20 30 36 10 15 24 27 32 27
8 0 19 9 25 20 8 15 17 19 31 15 16 -5 20 -3 17 12 -2 12 3 18 17 18 11 0 24
6 28 13 4 6 16 12 25 12 10 0 27 7 39 15 12 8 34 16 50 17 18 2 41 16 63 39
26 28 42 37 63 36 21 -2 27 -6 24 -19 -3 -9 2 -19 10 -22 21 -8 25 -7 18 3 -3
6 4 25 15 43 15 25 20 28 20 14 0 -16 3 -17 12 -8 16 16 28 15 28 -3 0 -8 5
-15 10 -15 6 0 10 -7 10 -15 0 -8 4 -15 9 -15 12 0 22 27 15 43 -6 18 22 42
31 27 9 -15 25 -12 25 5 0 8 5 15 10 15 6 0 10 -5 10 -11 0 -8 5 -8 15 1 8 7
22 9 31 6 9 -4 23 -1 30 5 8 6 14 8 14 4 0 -4 7 -1 16 6 14 11 18 11 28 -3 10
-14 15 -14 39 -2 24 13 27 13 27 -2 0 -12 6 -15 25 -10 20 5 25 3 25 -14 0
-11 5 -20 10 -20 6 0 10 7 10 15 0 12 7 14 28 9 15 -4 31 -10 36 -14 4 -5 24
-6 43 -3 33 6 35 4 28 -16 -6 -20 -4 -22 17 -20 12 2 28 0 34 -3 6 -4 28 -2
50 4 46 14 76 11 86 -7 6 -10 16 -10 50 2 34 11 46 12 65 2 18 -10 28 -10 47
0 18 10 29 10 45 2 13 -7 28 -8 39 -3 25 13 322 13 322 1 0 -6 10 -10 23 -9
53 5 87 -1 103 -17 12 -12 30 -17 63 -15 48 3 203 -41 232 -65 9 -7 19 -10 22
-6 4 3 7 1 7 -5 0 -7 5 -12 10 -12 11 0 70 -56 70 -66 0 -7 54 -53 63 -54 16
0 67 -54 67 -71 0 -10 12 -27 28 -39 15 -12 27 -25 27 -29 0 -4 8 -15 17 -24
10 -11 16 -33 16 -61 0 -94 38 -206 63 -190 5 3 9 -2 9 -10 0 -8 -4 -18 -10
-21 -13 -8 -13 -65 1 -123 14 -56 17 -61 29 -42 7 10 10 -11 10 -62 0 -68 2
-78 18 -78 9 0 31 -12 47 -27 27 -25 28 -28 10 -31 -22 -4 -55 -30 -55 -44 0
-4 11 -8 24 -8 22 0 24 -5 31 -77 11 -111 8 -263 -5 -278 -6 -8 -12 -27 -12
-44 -1 -26 -5 -31 -25 -31 -13 0 -31 9 -40 20 -10 11 -25 20 -35 20 -9 0 -23
6 -31 14 -8 8 -43 19 -78 25 -35 5 -85 15 -112 22 -36 10 -52 10 -70 1 -38
-20 -209 -8 -259 18 -23 12 -51 19 -62 16 -11 -3 -27 1 -36 8 -25 21 -98 37
-141 31 -23 -4 -46 -2 -53 4 -15 13 -116 23 -116 12 0 -4 -37 -13 -82 -20 -46
-7 -91 -17 -102 -23 -16 -9 -18 -8 -12 8 6 18 5 18 -8 2 -14 -19 -56 -25 -56
-8 0 26 -38 4 -97 -55 -49 -49 -63 -70 -58 -84 3 -11 0 -23 -7 -28 -27 -17
-59 -101 -53 -137 6 -30 3 -37 -20 -52 -26 -17 -26 -20 -22 -95 4 -65 9 -84
35 -122 22 -33 27 -48 19 -56 -8 -8 -6 -15 8 -24 10 -8 15 -19 11 -25 -10 -16
51 -102 73 -102 6 0 20 -13 32 -29 l22 -30 18 24 c11 13 19 30 19 39 0 9 8 16
18 16 26 0 169 -38 152 -40 -19 -2 27 -18 58 -19 12 -1 22 4 22 10 0 5 -4 8
-10 4 -10 -6 -34 16 -60 53 -17 26 -37 28 -43 5 -4 -17 -5 -17 -6 0 -1 16 -21
22 -63 18 -24 -3 -23 16 1 29 25 13 27 13 46 -6 20 -20 45 -11 45 16 0 11 7
20 15 20 8 0 15 -7 15 -15 0 -8 7 -15 15 -15 15 0 19 10 16 42 -1 9 3 19 9 23
5 3 10 0 10 -7 0 -9 3 -10 8 -2 4 6 23 21 42 33 19 11 31 21 26 21 -6 0 -1 7
10 15 10 8 31 15 45 15 14 0 40 5 58 11 45 16 49 5 7 -19 -43 -25 -83 -88 -92
-141 -5 -33 -1 -51 20 -94 25 -49 31 -53 84 -69 133 -40 187 -30 242 45 24 33
30 51 30 91 0 50 -27 127 -49 140 -21 14 -11 26 20 24 20 -2 39 -13 54 -30 13
-15 31 -28 39 -28 9 0 16 -6 16 -14 0 -7 9 -25 21 -40 11 -14 17 -26 12 -26
-4 0 0 -5 10 -11 13 -8 16 -18 11 -49 -6 -37 -4 -40 22 -50 16 -6 24 -14 18
-18 -14 -10 -34 -82 -23 -82 5 0 9 -7 9 -16 0 -8 5 -12 11 -9 5 4 15 -7 22
-24 13 -35 37 -42 37 -11 0 11 6 20 14 20 8 0 21 8 28 18 15 22 48 36 48 21 0
-13 72 0 82 15 5 7 20 7 53 -2 50 -13 109 -16 103 -4 -2 4 -10 21 -18 37 -8
17 -18 33 -23 36 -5 4 -6 40 -2 81 7 73 7 74 41 84 l34 11 0 -48 c0 -37 4 -49
15 -49 8 0 20 -9 27 -20 10 -15 24 -20 59 -20 31 0 55 -7 72 -20 14 -11 36
-20 49 -20 23 -1 23 -1 3 -16 -19 -15 -17 -15 23 -9 28 4 42 3 42 -4 0 -6 -4
-11 -10 -11 -5 0 -10 -5 -10 -11 0 -6 7 -8 17 -5 21 9 33 -11 26 -45 -4 -21 0
-30 17 -39 14 -8 19 -15 12 -19 -14 -9 6 -81 22 -81 16 0 14 -78 -1 -84 -7 -3
-13 -21 -13 -39 0 -19 -3 -37 -7 -41 -4 -4 -9 -41 -10 -83 -1 -51 -7 -81 -18
-93 -8 -9 -15 -23 -15 -32 0 -8 -3 -18 -7 -21 -3 -4 -7 -35 -9 -69 l-2 -63 18
40 c11 22 19 50 20 62 0 27 17 39 23 16 2 -12 9 -1 18 27 8 25 20 46 27 48 18
3 15 -19 -5 -34 -16 -12 -17 -13 -1 -14 14 0 16 -10 12 -77 -3 -43 -9 -80 -15
-83 -12 -8 -9 -180 3 -180 4 0 8 5 8 11 0 5 5 7 10 4 6 -4 4 -12 -5 -21 -8 -9
-15 -23 -16 -32 -1 -9 -3 -66 -5 -126 -2 -59 -8 -114 -14 -121 -5 -7 -7 -26
-4 -42 4 -21 1 -35 -11 -46 -9 -9 -14 -21 -11 -26 4 -5 -1 -49 -9 -98 -9 -48
-18 -104 -19 -124 -4 -41 -14 -90 -26 -134 -32 -109 -51 -184 -49 -191 4 -23
-2 -45 -11 -39 -5 3 -10 2 -10 -4 0 -5 6 -11 13 -14 10 -4 10 -7 0 -18 -11
-11 -13 -11 -13 2 0 12 -2 12 -10 -1 -5 -8 -10 -30 -10 -49 0 -29 2 -32 15
-21 9 7 18 10 21 7 3 -3 6 -70 6 -149 0 -153 5 -208 19 -208 5 0 12 14 16 30
7 40 27 38 40 -4 9 -30 9 -33 -8 -29 -16 4 -19 0 -19 -26 l0 -32 22 21 c12 11
25 20 30 20 4 0 8 16 8 35 0 40 14 44 47 14 21 -20 23 -21 29 -5 5 13 -2 25
-21 40 -27 21 -28 26 -23 82 6 57 0 96 -15 95 -51 -6 -67 0 -67 23 0 27 38 44
47 20 3 -8 11 -14 18 -14 10 0 12 10 9 37 -5 35 -4 37 10 19 17 -21 36 -13 36
16 0 14 5 18 15 14 8 -3 29 1 47 8 37 15 58 11 58 -11 0 -11 6 -10 29 6 40 29
79 42 86 31 4 -6 10 -10 16 -10 14 0 11 27 -3 34 -7 3 -2 3 12 0 20 -4 30 2
49 31 22 32 26 34 34 19 12 -20 -3 -106 -38 -229 -26 -91 -84 -255 -95 -270
-4 -5 -11 -26 -15 -45 -4 -19 -11 -41 -16 -50 -8 -16 -43 -160 -54 -222 -11
-66 -13 -500 -4 -603 28 -288 -2 -898 -60 -1220 -22 -120 -22 -115 -1 -115 11
0 20 4 20 9 0 4 6 46 14 92 60 351 75 672 67 1429 -4 325 5 429 47 550 3 8 4
19 3 23 -2 9 36 119 85 247 43 113 80 252 89 335 9 83 14 95 35 95 10 0 28 9
41 19 22 18 26 18 42 4 16 -15 17 -14 17 10 0 22 5 27 25 27 24 0 35 -15 16
-22 -5 -1 -11 -14 -13 -28 -1 -14 -8 -29 -14 -35 -18 -15 -26 -63 -12 -67 6
-2 8 -10 4 -17 -5 -7 -14 -10 -22 -7 -17 6 -47 -58 -41 -89 3 -19 4 -18 16 5
l12 25 -6 -25 c-2 -14 -5 -28 -5 -32 0 -4 -7 -5 -15 -2 -18 7 -19 0 -5 -27 12
-22 -11 -76 -36 -86 -7 -3 -14 -17 -14 -32 0 -14 -14 -62 -31 -106 -40 -105
-49 -135 -41 -135 4 0 20 33 36 73 16 39 33 75 39 78 5 4 10 20 11 37 1 17 5
34 9 38 4 4 7 15 7 25 0 9 4 19 8 21 14 6 62 96 62 117 0 11 5 23 10 26 6 3
10 19 10 34 0 16 7 34 15 41 9 7 15 30 15 54 1 22 7 59 15 80 8 22 12 43 10
47 -10 15 29 71 61 86 29 14 33 21 36 61 l3 44 24 -21 c29 -25 40 -26 48 -6 8
22 -4 30 -22 15 -12 -10 -16 -8 -25 15 -5 14 -10 44 -10 66 0 21 -4 39 -10 39
-5 0 -10 -20 -10 -44 0 -25 -4 -48 -10 -51 -5 -3 -10 -22 -10 -42 0 -32 -20
-62 -41 -63 -4 0 -7 25 -8 55 0 30 3 55 7 55 4 0 15 17 24 38 23 49 44 75 57
68 5 -4 11 4 13 16 2 18 9 23 31 21 32 -2 37 14 5 19 -32 5 -33 26 -1 33 15 4
37 10 48 15 19 7 18 9 -8 19 -16 6 -33 9 -38 5 -5 -3 -9 2 -9 10 0 9 4 16 9
16 5 0 12 13 16 29 5 25 12 30 47 36 27 5 51 18 74 41 40 42 49 66 34 96 -10
21 -10 21 3 6 15 -19 37 -24 37 -8 0 16 73 60 101 60 18 0 33 9 44 27 17 25
54 172 55 217 4 177 10 283 19 339 6 37 9 73 5 78 -3 6 7 22 23 36 25 23 26
25 6 20 -15 -3 -20 -1 -16 9 2 7 12 10 21 7 12 -5 14 -2 9 11 -4 9 -3 15 2 12
12 -8 21 56 10 70 -8 10 5 43 35 86 9 12 16 29 16 38 0 13 -2 13 -10 0 -13
-21 -19 -10 -13 23 5 27 26 36 39 16 4 -8 9 -7 14 2 12 18 1 39 -20 39 -14 0
-17 5 -12 22 8 32 31 74 38 70 3 -2 8 -1 12 2 3 3 -2 6 -11 6 -12 0 -15 9 -14
43 2 39 0 42 -26 45 -25 3 -27 7 -27 46 0 36 -4 45 -21 49 -15 4 -19 2 -15
-10 4 -9 1 -13 -6 -11 -7 3 -14 18 -16 34 -2 20 0 25 7 15 5 -7 14 -10 20 -7
16 10 14 26 -4 26 -8 0 -15 8 -15 18 0 21 37 59 47 49 3 -4 1 -7 -5 -7 -7 0
-12 -7 -12 -15 0 -11 9 -14 32 -13 29 3 32 0 35 -26 1 -15 5 -31 9 -35 4 -3 4
4 1 17 -3 12 -1 22 4 22 5 0 9 -9 9 -20 0 -11 4 -20 9 -20 15 0 22 32 10 46
-6 7 -8 18 -4 24 10 17 39 11 53 -11 7 -11 19 -18 27 -15 8 3 19 -2 24 -12 5
-9 13 -13 17 -9 8 8 -42 57 -58 57 -4 0 -8 7 -8 15 0 8 -9 15 -20 15 -34 0
-19 33 24 52 21 10 53 18 71 18 28 0 32 -3 28 -20 -3 -11 -3 -20 1 -20 9 0 51
44 49 52 -1 3 3 11 10 16 17 14 191 72 216 72 12 0 21 4 21 9 0 5 14 14 30 20
19 6 35 22 44 42 10 24 14 27 19 15 5 -13 11 -15 26 -6 19 9 20 7 15 -32 -5
-37 -3 -40 10 -28 14 11 16 7 16 -29 0 -23 4 -51 10 -61 5 -10 12 -60 14 -111
6 -118 6 -114 22 -178 8 -30 16 -108 19 -175 3 -67 7 -128 10 -136 4 -14 23
-152 31 -230 2 -19 6 -75 10 -125 3 -49 12 -102 19 -117 8 -17 9 -30 3 -36 -6
-6 -4 -20 6 -40 11 -21 15 -49 12 -91 -2 -33 0 -59 4 -56 7 5 14 -57 24 -209
2 -38 10 -72 16 -76 9 -5 9 -9 1 -14 -17 -11 -13 -26 6 -26 13 0 14 -3 5 -12
-13 -13 -17 -58 -4 -58 4 0 7 -24 8 -52 1 -60 11 -151 24 -218 4 -25 12 -87
16 -138 3 -52 10 -89 13 -84 4 6 5 -15 4 -46 -2 -56 8 -106 29 -149 8 -17 8
-26 -1 -37 -7 -8 -10 -20 -6 -26 4 -6 8 -39 10 -73 7 -151 42 -428 55 -441 5
-5 6 -14 3 -22 -5 -15 12 -198 28 -284 5 -30 11 -80 14 -110 2 -30 8 -93 14
-140 6 -47 14 -123 17 -170 3 -47 8 -89 11 -94 3 -5 7 -36 9 -70 4 -68 16
-182 44 -396 10 -80 26 -208 35 -285 9 -77 21 -144 25 -149 9 -9 107 -46 122
-46 4 0 8 386 8 857 0 781 -2 858 -17 875 -15 17 -15 18 0 18 19 0 21 17 7 54
-8 22 -16 26 -50 26 -22 0 -40 3 -40 6 0 4 12 26 28 50 19 31 34 44 50 44 19
0 23 5 20 23 -3 22 -48 39 -48 18 0 -16 -72 -13 -94 4 -18 14 -17 15 22 15
l42 0 0 40 c0 23 5 40 11 40 8 0 10 17 6 55 -3 31 -2 55 4 55 5 0 9 11 9 25 0
18 -5 25 -19 25 -10 0 -21 -7 -25 -15 -7 -19 -36 -20 -36 -1 0 8 -4 16 -9 18
-5 2 -12 39 -16 84 -7 77 -6 82 19 110 33 37 38 44 57 79 9 18 22 29 31 27 9
-1 19 2 23 8 4 6 -8 10 -32 10 -38 0 -49 9 -69 63 -5 13 -18 17 -55 17 l-49 0
0 39 c0 29 -4 40 -17 43 -15 3 -15 4 1 21 10 9 29 17 42 17 14 0 35 5 46 11
15 8 22 8 28 0 8 -14 36 -5 44 15 4 10 -3 14 -24 14 -28 0 -30 2 -30 40 0 22
-4 40 -10 40 -5 0 -10 18 -10 40 0 29 -4 40 -15 40 -9 0 -15 9 -15 24 0 13 -3
31 -6 40 -5 12 0 16 21 16 27 0 27 1 23 53 -2 29 -12 68 -21 86 -9 19 -17 49
-17 67 0 31 -2 33 -42 36 l-43 3 27 14 c24 12 30 12 52 -3 14 -9 34 -16 46
-16 17 0 20 6 20 40 0 22 1 40 3 40 1 0 20 -9 42 -20 35 -18 41 -18 54 -5 22
22 6 30 -65 30 -64 0 -79 10 -50 34 8 6 15 42 19 89 3 43 9 86 13 95 3 10 1
17 -5 17 -6 0 -11 -17 -11 -40 0 -38 -2 -40 -30 -40 -28 0 -30 -2 -30 -40 0
-22 -4 -40 -9 -40 -12 0 -22 112 -14 180 l6 60 38 0 c36 0 39 2 39 29 0 16 7
34 15 41 20 16 20 84 0 100 -9 8 -15 30 -15 56 l0 44 -40 0 c-36 0 -40 3 -40
25 0 20 -5 25 -25 25 -31 0 -31 -6 0 -52 34 -50 32 -58 -15 -58 l-40 0 0 41
c0 28 -6 46 -17 55 -16 12 -15 13 12 14 24 0 34 8 53 40 18 32 28 40 51 40 27
0 28 2 35 61 9 88 8 99 -9 99 -20 0 -19 6 6 47 19 31 20 39 10 74 -7 21 -16
39 -21 39 -6 0 -10 18 -10 40 0 28 4 40 15 40 12 0 12 5 0 39 -12 35 -12 40 2
43 13 2 11 9 -11 34 -31 38 -32 44 -6 44 25 0 25 5 -2 48 -19 31 -22 33 -29
16 -7 -17 -8 -17 -8 -1 -1 29 -45 22 -58 -10 -11 -28 -11 -28 -12 10 -1 30 5
43 32 67 17 16 37 30 42 30 13 0 8 281 -6 295 -12 12 -12 25 1 25 6 0 10 -8
10 -17 0 -13 3 -14 12 -5 7 7 11 31 9 54 -2 37 -10 49 -52 87 -43 38 -49 49
-49 82 0 39 0 39 40 39 l40 0 0 61 c0 102 36 134 63 57 9 -24 16 -35 16 -25 1
13 10 17 41 17 39 0 40 1 40 36 0 27 7 41 25 56 l25 19 0 1650 0 1649 -4625 0
-4625 0 0 -940z m1870 -699 c0 -35 3 -40 28 -44 15 -3 7 -4 -18 -3 l-45 1 -3
43 c-3 37 -1 42 17 42 18 0 21 -6 21 -39z m460 29 c-19 -13 -30 -13 -30 0 0 6
10 10 23 10 18 0 19 -2 7 -10z m-1773 -46 c-3 -3 -12 -4 -19 -1 -8 3 -5 6 6 6
11 1 17 -2 13 -5z m1828 -24 c-27 -12 -43 -12 -25 0 8 5 22 9 30 9 10 0 8 -3
-5 -9z m225 -30 c-16 -31 -23 -18 -8 15 7 15 14 23 16 17 2 -6 -2 -21 -8 -32z
m-1187 23 c-13 -2 -33 -2 -45 0 -13 2 -3 4 22 4 25 0 35 -2 23 -4z m747 -33
c0 -33 -3 -40 -20 -40 -23 0 -27 18 -5 26 8 4 15 17 15 30 0 13 2 24 5 24 3 0
5 -18 5 -40z m195 -25 l20 -8 -20 -5 c-11 -2 -27 -10 -36 -18 -18 -16 -29 -9
-29 18 0 28 22 50 35 34 6 -7 19 -16 30 -21z m4745 15 c0 -5 -5 -10 -11 -10
-5 0 -7 5 -4 10 3 6 8 10 11 10 2 0 4 -4 4 -10z m-6050 -20 c0 -5 -4 -10 -10
-10 -5 0 -10 5 -10 10 0 6 5 10 10 10 6 0 10 -4 10 -10z m725 0 c3 -5 -1 -10
-9 -10 -9 0 -16 5 -16 10 0 6 4 10 9 10 6 0 13 -4 16 -10z m242 -6 c-3 -3 -12
-4 -19 -1 -8 3 -5 6 6 6 11 1 17 -2 13 -5z m-427 -14 c0 -5 -2 -10 -4 -10 -3
0 -8 5 -11 10 -3 6 -1 10 4 10 6 0 11 -4 11 -10z m608 -1 c-2 -6 -8 -10 -13
-10 -5 0 -11 4 -13 10 -2 6 4 11 13 11 9 0 15 -5 13 -11z m252 7 c0 -3 -4 -8
-10 -11 -5 -3 -10 -1 -10 4 0 6 5 11 10 11 6 0 10 -2 10 -4z m-1507 -23 c-7
-2 -19 -2 -25 0 -7 3 -2 5 12 5 14 0 19 -2 13 -5z m1614 -15 c-3 -8 -6 -5 -6
6 -1 11 2 17 5 13 3 -3 4 -12 1 -19z m-634 1 c29 -15 39 -32 25 -40 -7 -5 -3
-20 13 -45 23 -38 23 -38 31 -14 6 19 7 17 3 -9 -3 -18 -5 -39 -5 -46 0 -15
-87 -26 -111 -14 -9 4 -58 3 -111 -3 l-95 -11 5 -49 c4 -40 2 -48 -12 -48 -13
0 -16 13 -16 79 0 44 3 86 6 95 8 21 112 22 140 1 10 -8 40 -15 67 -15 l47 0
0 40 c0 38 -1 40 -32 40 l-31 0 23 25 c27 29 25 28 53 14z m-385 -27 c2 -7 -3
-12 -12 -12 -9 0 -16 7 -16 16 0 17 22 14 28 -4z m752 -54 c0 -32 -3 -37 -30
-43 -16 -4 -30 -11 -30 -16 0 -12 27 -12 35 1 3 6 15 10 26 10 12 0 19 7 19
20 0 17 7 20 40 20 28 0 40 -4 40 -14 0 -27 -92 -76 -141 -76 -21 0 -42 58
-28 75 13 14 11 63 -3 67 -6 2 -8 9 -4 16 5 8 16 7 41 -6 30 -15 35 -22 35
-54z m134 40 c7 -30 -9 -40 -16 -10 -4 16 1 47 7 40 1 -2 5 -15 9 -30z m-1491
5 c-13 -2 -33 -2 -45 0 -13 2 -3 4 22 4 25 0 35 -2 23 -4z m670 -52 c9 -19 9
-25 0 -28 -7 -3 -13 -11 -13 -19 0 -10 -13 -14 -46 -14 -37 0 -53 -6 -81 -30
-18 -16 -39 -30 -46 -29 -9 0 -9 2 1 6 6 2 12 16 12 29 0 21 -4 24 -40 24 -29
0 -40 4 -40 15 0 12 16 15 80 15 57 0 80 4 81 13 0 10 2 10 6 0 7 -18 50 -16
57 3 3 9 6 28 7 42 0 15 3 20 6 12 2 -8 10 -26 16 -39z m-532 -11 c21 0 39 -4
39 -10 0 -5 -18 -10 -40 -10 -36 0 -40 -2 -40 -25 0 -27 -2 -28 -49 -19 -27 6
-31 11 -30 38 0 17 3 25 6 19 2 -7 15 -13 28 -13 18 0 24 7 31 38 7 34 8 35
12 10 3 -25 7 -28 43 -28z m-581 -2 c0 -10 -4 -18 -10 -18 -5 0 -10 15 -10 33
0 24 3 28 10 17 5 -8 10 -23 10 -32z m78 0 c14 -17 13 -18 -11 -18 -28 0 -33
13 -20 46 5 14 8 15 11 3 3 -7 11 -22 20 -31z m142 2 c0 -17 7 -20 40 -20 22
0 40 -4 40 -10 0 -5 -18 -10 -40 -10 -22 0 -40 5 -40 10 0 6 -9 10 -20 10 -18
0 -19 3 -10 20 6 11 15 20 20 20 6 0 10 -9 10 -20z m-371 -4 c13 -15 -5 -27
-37 -25 -11 0 -12 2 -4 6 6 2 12 11 12 19 0 18 14 18 29 0z m105 -1 c3 -9 0
-15 -9 -15 -8 0 -15 7 -15 15 0 8 4 15 9 15 5 0 11 -7 15 -15z m451 -5 c3 -5
15 -10 26 -10 19 0 20 -4 14 -40 -6 -33 -4 -40 9 -40 9 0 16 -4 16 -10 0 -13
-4 -13 -33 1 -18 8 -27 22 -31 50 -3 21 -11 39 -16 39 -6 0 -10 5 -10 10 0 6
4 10 9 10 6 0 13 -4 16 -10z m451 -7 c-2 -10 -7 -33 -11 -50 -12 -59 -54 -36
-55 30 0 10 8 17 19 17 11 0 23 5 26 10 10 17 27 11 21 -7z m804 -23 c0 -24
-13 -26 -34 -4 -21 21 -20 24 9 24 18 0 25 -5 25 -20z m50 -20 c0 -38 2 -40
30 -40 28 0 30 -2 30 -40 0 -52 -24 -54 -48 -2 -9 20 -20 39 -24 40 -12 5 -9
82 2 82 6 0 10 -18 10 -40z m4660 -5 c11 -13 10 -14 -4 -9 -9 3 -16 10 -16 15
0 13 6 11 20 -6z m-5030 -45 c0 -12 -8 -12 -35 0 -18 8 -17 9 8 9 15 1 27 -3
27 -9z m519 -96 c-7 -18 -13 -24 -16 -16 -3 8 0 19 6 25 6 6 12 20 12 32 1 14
3 15 6 4 2 -8 -1 -29 -8 -45z m-876 30 c13 -5 16 -13 11 -28 -11 -37 -24 -36
-27 3 -1 11 -7 21 -14 21 -7 0 -13 5 -13 11 0 6 6 8 13 5 6 -3 20 -9 30 -12z
m357 6 c0 -5 8 -10 17 -10 14 0 15 -2 4 -12 -11 -10 -14 -10 -18 0 -3 6 -17
12 -31 13 -24 0 -25 1 -7 9 27 12 35 12 35 0z m105 0 c3 -5 -1 -10 -9 -10 -9
0 -16 5 -16 10 0 6 4 10 9 10 6 0 13 -4 16 -10z m-905 -20 c0 -5 -2 -10 -4
-10 -3 0 -8 5 -11 10 -3 6 -1 10 4 10 6 0 11 -4 11 -10z m220 6 c0 -3 -4 -8
-10 -11 -5 -3 -10 -1 -10 4 0 6 5 11 10 11 6 0 10 -2 10 -4z m1060 -6 c0 -5
-6 -10 -14 -10 -8 0 -18 5 -21 10 -3 6 3 10 14 10 12 0 21 -4 21 -10z m-585
-42 c36 -16 31 -26 -18 -29 -40 -4 -43 -2 -39 19 5 25 19 27 57 10z m586 -31
c-10 -9 -11 -8 -5 6 3 10 9 15 12 12 3 -3 0 -11 -7 -18z m4294 4 c3 -5 1 -12
-5 -16 -5 -3 -10 1 -10 9 0 18 6 21 15 7z m-6498 -63 c-2 -13 -4 -3 -4 22 0
25 2 35 4 23 2 -13 2 -33 0 -45z m1353 52 c0 -5 -4 -10 -10 -10 -5 0 -10 5
-10 10 0 6 5 10 10 10 6 0 10 -4 10 -10z m617 -22 c-3 -7 -5 -2 -5 12 0 14 2
19 5 13 2 -7 2 -19 0 -25z m53 -8 c0 -22 -4 -40 -10 -40 -5 0 -10 18 -10 40 0
22 5 40 10 40 6 0 10 -18 10 -40z m-209 -40 c5 0 9 -8 9 -18 0 -9 9 -23 20
-30 11 -7 20 -17 20 -22 0 -6 -9 -10 -20 -10 -13 0 -20 7 -20 20 0 11 -4 20
-10 20 -5 0 -10 9 -10 19 0 11 -5 21 -11 23 -6 2 -7 11 -2 23 7 19 8 19 11 -2
2 -13 8 -23 13 -23z m5634 18 c14 -45 13 -52 -11 -81 -14 -16 -33 -46 -44 -67
-10 -20 -26 -42 -34 -49 -9 -8 -16 -26 -16 -41 0 -48 -36 -48 -78 0 -12 13
-13 13 -8 -2 8 -28 -10 -31 -83 -12 -57 15 -82 16 -150 8 -45 -5 -86 -7 -91
-4 -5 3 -10 32 -12 64 l-3 59 50 18 c85 31 220 22 265 -17 14 -11 23 -4 69 49
82 95 131 120 146 75z m-5485 -3 c0 -10 -10 -15 -32 -15 -31 1 -32 1 -14 15
25 19 46 19 46 0z m-1340 -55 c0 -22 -4 -40 -9 -40 -5 0 -11 -7 -13 -17 -3
-15 -4 -15 -17 0 -12 15 -11 17 3 17 12 0 16 10 16 40 0 22 5 40 10 40 6 0 10
-18 10 -40z m105 30 c-3 -5 -15 -10 -26 -10 -10 0 -19 5 -19 10 0 6 12 10 26
10 14 0 23 -4 19 -10z m855 -60 c0 -5 -4 -10 -10 -10 -5 0 -10 5 -10 10 0 6 5
10 10 10 6 0 10 -4 10 -10z m-1075 -17 c-11 -3 -24 -11 -28 -19 -10 -18 -37
-18 -37 0 0 14 25 23 65 23 l20 1 -20 -5z m1215 -3 c0 -5 -4 -10 -9 -10 -6 0
-13 5 -16 10 -3 6 1 10 9 10 9 0 16 -4 16 -10z m-1200 -40 c0 -5 -5 -10 -11
-10 -5 0 -7 5 -4 10 3 6 8 10 11 10 2 0 4 -4 4 -10z m3082 -12 c-7 -7 -12 -8
-12 -2 0 14 12 26 19 19 2 -3 -1 -11 -7 -17z m2955 -10 c-3 -7 -5 -2 -5 12 0
14 2 19 5 13 2 -7 2 -19 0 -25z m-5794 -5 c-2 -7 4 -10 12 -7 8 4 15 2 15 -4
0 -17 -30 -23 -36 -7 -9 22 -54 19 -54 -3 0 -29 -17 -38 -60 -34 -52 5 -51 20
1 28 26 5 38 11 35 19 -7 20 5 26 49 23 25 -2 39 -8 38 -15z m1157 -12 c0 -6
-5 -13 -10 -16 -6 -3 -7 -17 -4 -30 8 -34 -28 -104 -77 -150 -22 -20 -39 -38
-37 -39 2 -2 22 -1 46 2 42 4 43 5 37 36 -4 19 -3 26 3 18 5 -7 16 -10 25 -6
9 3 17 2 17 -4 0 -6 3 -17 6 -26 4 -11 0 -16 -12 -16 -17 0 -17 -1 0 -13 14
-11 16 -19 9 -47 -7 -28 -14 -35 -34 -35 -19 0 -23 4 -21 23 3 21 0 23 -35 21
-21 -1 -44 0 -52 2 -8 2 -17 -4 -19 -13 -2 -13 3 -18 20 -18 13 0 34 -9 48
-20 14 -11 36 -20 50 -20 14 -1 34 -5 45 -9 15 -6 11 -9 -23 -14 -55 -9 -133
-57 -209 -127 -64 -60 -112 -90 -146 -90 -15 0 -18 5 -14 23 3 12 12 50 20 83
15 64 42 118 74 144 10 8 35 28 56 43 45 34 47 48 5 65 -18 7 -46 19 -63 27
-16 8 -46 17 -67 21 -41 7 -52 29 -34 66 18 35 75 29 155 -17 35 -19 68 -32
72 -28 14 14 79 125 79 134 0 5 16 9 35 9 34 0 47 13 23 23 -7 3 -3 6 10 6 12
1 22 -3 22 -8z m173 -21 c-3 -11 -7 -20 -9 -20 -2 0 -4 9 -4 20 0 11 4 20 9
20 5 0 7 -9 4 -20z m-323 -32 c0 -18 -2 -20 -9 -8 -6 8 -7 18 -5 22 9 14 14 9
14 -14z m-1810 -8 c0 -5 -5 -10 -11 -10 -5 0 -7 5 -4 10 3 6 8 10 11 10 2 0 4
-4 4 -10z m190 -6 c0 -2 -7 -4 -15 -4 -8 0 -15 4 -15 10 0 5 7 7 15 4 8 -4 15
-8 15 -10z m385 6 c3 -5 1 -10 -4 -10 -6 0 -11 5 -11 10 0 6 2 10 4 10 3 0 8
-4 11 -10z m185 0 c0 -5 -2 -10 -4 -10 -2 0 -12 -3 -22 -7 -16 -6 -17 -5 -4
10 17 19 30 22 30 7z m1250 -14 c0 -3 -4 -8 -10 -11 -5 -3 -10 -1 -10 4 0 6 5
11 10 11 6 0 10 -2 10 -4z m-1660 -61 c0 -8 5 -15 12 -17 8 -3 5 -16 -11 -41
l-23 -37 34 0 c27 0 37 -6 51 -29 21 -36 22 -51 2 -51 -9 0 -15 -10 -15 -26 0
-30 -16 -28 -38 4 -14 21 -13 22 12 22 21 0 26 5 26 25 0 14 -4 25 -8 25 -5 0
-19 -11 -32 -25 -13 -14 -27 -25 -32 -25 -4 0 -8 29 -8 65 l0 65 -40 0 c-52 0
-53 20 -2 46 20 10 39 23 40 27 5 11 32 -13 32 -28z m390 31 c0 -3 -4 -8 -10
-11 -5 -3 -10 -1 -10 4 0 6 5 11 10 11 6 0 10 -2 10 -4z m1222 -18 c-7 -7 -12
-8 -12 -2 0 14 12 26 19 19 2 -3 -1 -11 -7 -17z m103 -75 c-6 -44 -18 -55 -29
-27 -11 28 -6 54 9 54 18 0 20 17 3 22 -7 3 -9 11 -4 24 7 18 9 17 18 -6 5
-14 7 -44 3 -67z m-1529 -14 c-3 -34 -6 -70 -6 -80 0 -15 -8 -19 -40 -19 -22
0 -40 5 -40 11 0 15 33 69 42 69 4 0 8 18 8 40 0 34 3 40 21 40 21 0 22 -3 15
-61z m104 45 c0 -17 -22 -14 -28 4 -2 7 3 12 12 12 9 0 16 -7 16 -16z m53 9
c-7 -2 -13 -11 -13 -19 0 -8 -7 -14 -15 -14 -9 0 -12 -6 -9 -15 4 -8 1 -15 -6
-15 -8 0 -10 8 -6 23 3 12 6 25 6 29 0 3 8 9 18 11 23 6 40 7 25 0z m-105 -61
c2 -7 -3 -12 -12 -12 -9 0 -16 7 -16 16 0 17 22 14 28 -4z m-369 -24 c11 -10
14 -10 18 0 3 6 16 12 29 12 21 0 24 -4 24 -40 0 -24 -5 -40 -12 -40 -6 0 -19
-6 -27 -14 -9 -8 -33 -17 -53 -21 -34 -7 -38 -5 -38 14 0 13 -6 21 -17 21 -17
1 -17 1 0 14 9 7 17 25 17 40 0 20 5 26 23 26 13 0 29 -6 36 -12z m451 8 c0
-2 -7 -7 -16 -10 -8 -3 -12 -2 -9 4 6 10 25 14 25 6z m6037 -48 c-3 -7 -5 -2
-5 12 0 14 2 19 5 13 2 -7 2 -19 0 -25z m-6707 -3 c0 -21 -5 -25 -32 -25 l-31
0 23 25 c13 14 27 25 32 25 4 0 8 -11 8 -25z m580 -15 c0 -10 -4 -22 -10 -25
-6 -4 -10 7 -10 25 0 18 4 29 10 25 6 -3 10 -15 10 -25z m-171 -132 c-2 -30
-3 -35 -6 -15 -2 15 -10 27 -17 27 -7 0 -21 7 -32 15 -18 13 -17 14 19 15 l37
0 -1 -42z m98 36 c-3 -3 -12 -4 -19 -1 -8 3 -5 6 6 6 11 1 17 -2 13 -5z m-7
-28 c0 -3 -4 -8 -10 -11 -5 -3 -10 -1 -10 4 0 6 5 11 10 11 6 0 10 -2 10 -4z
m6260 -40 c0 -13 -3 -31 -6 -40 -11 -29 -20 -16 -16 24 4 43 22 56 22 16z
m-6680 4 c0 -5 -5 -10 -11 -10 -5 0 -7 5 -4 10 3 6 8 10 11 10 2 0 4 -4 4 -10z
m105 0 c3 -5 -1 -10 -9 -10 -9 0 -16 5 -16 10 0 6 4 10 9 10 6 0 13 -4 16 -10z
m295 -25 c0 -8 8 -15 17 -15 13 0 14 -3 6 -11 -8 -8 -19 -4 -40 15 -27 25 -27
26 -5 26 13 0 22 -6 22 -15z m8320 -290 c0 -8 5 -15 10 -15 6 0 10 -18 10 -40
0 -22 -4 -40 -10 -40 -5 0 -10 -11 -10 -25 0 -14 3 -25 8 -25 14 1 72 60 72
74 0 7 10 16 23 19 12 2 30 8 40 12 14 6 17 2 17 -24 0 -17 -5 -31 -10 -31 -6
0 -13 -8 -17 -17 -3 -10 -17 -42 -29 -71 -13 -29 -24 -65 -24 -81 0 -21 -6
-30 -21 -34 -13 -4 -19 -12 -17 -24 4 -23 -37 -69 -47 -54 -3 6 -10 9 -15 6
-10 -6 -17 21 -18 74 -1 19 -7 38 -14 42 -10 6 -10 18 -1 51 13 50 6 108 -12
108 -7 0 -16 -6 -18 -12 -3 -7 -3 4 0 25 4 24 2 37 -6 37 -13 0 -15 36 -2 44
5 4 11 1 13 -6 3 -8 11 -7 28 5 30 21 50 22 50 2z m108 -3 c2 -7 -3 -12 -12
-12 -9 0 -16 7 -16 16 0 17 22 14 28 -4z m172 -58 c0 -2 -9 -4 -20 -4 -11 0
-20 4 -20 9 0 5 9 7 20 4 11 -3 20 -7 20 -9z m-40 -74 c0 -22 -4 -40 -10 -40
-5 0 -10 18 -10 40 0 22 5 40 10 40 6 0 10 -18 10 -40z m-2839 -133 c-7 -7
-15 -6 -26 3 -24 20 -18 31 10 18 17 -8 22 -15 16 -21z m-4884 -2 c-7 -13 -14
-20 -15 -14 -2 5 2 16 8 24 18 21 20 18 7 -10z m7453 -165 c0 -5 -7 -10 -15
-10 -8 0 -15 5 -15 10 0 6 7 10 15 10 8 0 15 -4 15 -10z m-5380 -25 c0 -8 -4
-15 -10 -15 -5 0 -10 7 -10 15 0 8 5 15 10 15 6 0 10 -7 10 -15z m383 -22 c-7
-2 -19 -2 -25 0 -7 3 -2 5 12 5 14 0 19 -2 13 -5z m1011 -100 c-13 -16 -34
-41 -47 -57 -13 -16 -30 -27 -40 -25 -14 3 -6 16 37 62 55 57 97 74 50 20z
m-4543 -34 c-9 -23 -10 -22 -10 11 -1 23 2 31 9 24 7 -7 7 -19 1 -35z m8568
-118 c7 -5 9 -11 5 -14 -5 -3 -15 1 -22 9 -14 16 -5 18 17 5z m-89 -51 c0 -5
-7 -10 -16 -10 -8 0 -12 5 -9 10 3 6 10 10 16 10 5 0 9 -4 9 -10z m-7415 -10
c3 -5 1 -10 -4 -10 -6 0 -11 5 -11 10 0 6 2 10 4 10 3 0 8 -4 11 -10z m7575
-10 c0 -5 -5 -10 -11 -10 -5 0 -7 5 -4 10 3 6 8 10 11 10 2 0 4 -4 4 -10z
m-5500 -183 c0 -7 -14 -26 -31 -43 -41 -39 -59 -85 -59 -151 0 -44 6 -62 27
-93 16 -21 37 -44 47 -50 16 -10 106 -13 196 -6 29 2 74 25 66 33 -3 3 3 18
14 33 10 14 24 47 30 72 10 40 9 52 -9 93 l-20 46 22 -6 c30 -9 57 -42 57 -70
0 -15 8 -26 20 -30 11 -3 20 -11 20 -16 0 -5 6 -9 14 -9 24 0 29 -20 10 -41
-11 -12 -26 -18 -37 -15 -10 2 -20 -1 -23 -9 -3 -7 -19 -15 -35 -19 -17 -3
-28 -10 -24 -16 9 -15 74 -12 125 6 50 18 150 27 150 14 0 -9 -62 -35 -118
-50 -97 -25 -142 -40 -166 -55 -16 -11 -26 -13 -26 -6 0 15 -27 14 -33 -1 -4
-8 -8 -4 -12 10 -9 27 -22 28 -30 2 -7 -23 -14 -24 -51 -8 -24 11 -28 10 -50
-17 l-23 -29 -10 26 c-9 25 -15 27 -61 26 -29 -1 -55 3 -58 9 -4 6 -23 13 -42
16 -52 8 -69 12 -76 20 -4 4 -16 7 -26 7 -10 0 -18 4 -18 10 0 5 -11 12 -26
16 -16 4 -24 12 -21 23 2 9 9 15 15 13 29 -6 49 17 50 59 1 24 7 59 14 78 17
49 73 101 109 101 20 0 29 5 29 16 0 10 6 14 15 11 8 -4 17 -2 20 3 9 15 35
12 35 -3z m2623 -76 c-3 -14 2 -20 22 -25 21 -5 26 -12 22 -26 -4 -15 0 -20
13 -20 10 0 20 4 22 10 2 6 8 6 18 0 13 -8 12 -10 -2 -10 -10 0 -18 -6 -18
-14 0 -11 -20 -26 -35 -26 -3 0 -13 10 -25 22 -19 20 -20 20 -20 3 0 -35 -17
-1 -24 47 -6 40 -4 47 11 51 10 3 19 5 20 6 0 0 -1 -7 -4 -18z m-2506 -18 c5
-14 -40 -28 -56 -18 -6 3 -11 14 -11 24 0 15 5 17 32 12 17 -4 33 -12 35 -18z
m5383 11 c0 -9 -5 -14 -12 -12 -18 6 -21 28 -4 28 9 0 16 -7 16 -16z m-3535
-105 c9 -13 6 -15 -32 -24 -29 -6 -33 -4 -33 14 0 17 6 21 29 21 17 0 33 -5
36 -11z m-95 -9 c0 -5 -5 -10 -11 -10 -5 0 -7 5 -4 10 3 6 8 10 11 10 2 0 4
-4 4 -10z m-1343 -15 c2 -6 -13 -15 -32 -21 -28 -9 -35 -8 -35 2 0 27 59 43
67 19z m863 -25 c0 -5 -2 -10 -4 -10 -3 0 -8 5 -11 10 -3 6 -1 10 4 10 6 0 11
-4 11 -10z m-29 -42 c-4 -12 -14 -24 -21 -26 -9 -3 -11 1 -7 12 4 10 7 22 7
27 0 5 7 9 15 9 11 0 12 -6 6 -22z m4107 -8 c17 -16 32 -33 32 -37 0 -4 -5 -2
-12 5 -7 7 -25 12 -40 12 -23 0 -28 4 -28 25 0 32 8 31 48 -5z m-2632 4 c-3
-9 -6 -18 -6 -20 0 -2 -12 -4 -26 -4 l-26 0 23 20 c29 24 43 25 35 4z m-5299
-30 c-3 -3 -12 -4 -19 -1 -8 3 -5 6 6 6 11 1 17 -2 13 -5z m6903 2 c0 -3 -4
-8 -10 -11 -5 -3 -10 -1 -10 4 0 6 5 11 10 11 6 0 10 -2 10 -4z m1166 -12 c-3
-9 -9 -27 -12 -40 -5 -19 -13 -24 -38 -24 -18 0 -37 -5 -44 -12 -9 -9 -12 -9
-12 0 0 7 5 12 10 12 6 0 10 18 10 40 l0 40 46 0 c38 0 45 -3 40 -16z m-1245
-26 c5 -45 0 -88 -12 -88 -5 0 -9 27 -9 60 0 63 15 83 21 28z m-4041 -32 c0
-3 -4 -8 -10 -11 -5 -3 -10 -1 -10 4 0 6 5 11 10 11 6 0 10 -2 10 -4z m-2880
-80 c0 -7 -7 -19 -15 -26 -12 -10 -15 -9 -15 7 0 11 3 23 7 26 11 12 23 8 23
-7z m8140 4 c0 -5 -5 -10 -11 -10 -5 0 -7 5 -4 10 3 6 8 10 11 10 2 0 4 -4 4
-10z m-2483 -62 c-3 -8 -6 -5 -6 6 -1 11 2 17 5 13 3 -3 4 -12 1 -19z m2483
-13 c0 -11 -11 -15 -40 -15 l-40 0 -1 -42 c-1 -26 -4 -34 -6 -19 -3 13 -2 39
2 57 5 32 8 34 45 34 29 0 40 -4 40 -15z m-2450 -135 c0 -5 -4 -10 -10 -10 -5
0 -10 5 -10 10 0 6 5 10 10 10 6 0 10 -4 10 -10z m1230 -38 c0 -5 -7 -17 -15
-28 -14 -19 -14 -19 -15 2 0 11 3 24 7 27 9 10 23 9 23 -1z m1300 -202 l0 -40
-95 0 c-94 0 -96 0 -84 21 9 18 17 20 55 14 42 -6 44 -5 44 19 0 24 4 26 40
26 l40 0 0 -40z m-130 -426 c0 -8 -7 -14 -15 -14 -10 0 -15 10 -15 26 0 22 2
25 15 14 8 -7 15 -19 15 -26z m50 -119 c0 -11 -11 -15 -40 -15 -29 0 -40 4
-40 15 0 11 11 15 40 15 29 0 40 -4 40 -15z m-6973 -67 c-3 -8 -6 -5 -6 6 -1
11 2 17 5 13 3 -3 4 -12 1 -19z m43 18 c0 -2 -7 -7 -16 -10 -8 -3 -12 -2 -9 4
6 10 25 14 25 6z m6923 -4 c-6 -4 -25 -25 -42 -46 l-31 -39 0 47 0 46 43 0
c23 0 37 -4 30 -8z m-6933 -69 c0 -12 -4 -23 -9 -23 -5 0 -11 11 -13 23 -3 15
0 24 9 24 7 0 13 -11 13 -24z m5368 -9 c-13 -14 -24 -21 -26 -15 -2 5 -10 7
-18 4 -29 -11 -13 7 19 21 46 21 50 19 25 -10z m-5318 1 c0 -8 7 -15 15 -15 8
0 15 -4 15 -10 0 -5 7 -10 15 -10 31 0 102 -55 85 -65 -20 -12 -9 -21 40 -34
43 -11 54 -19 69 -50 28 -56 34 -91 16 -96 -47 -15 -51 -18 -30 -23 11 -2 25
-8 32 -13 7 -7 13 -5 16 3 6 16 43 -68 52 -116 l7 -35 -51 17 c-29 10 -53 24
-57 35 -6 18 -24 24 -24 7 0 -15 -26 -12 -40 5 -9 11 -9 22 -1 46 12 35 -4 37
-23 3 -6 -10 -12 -21 -13 -23 -4 -7 -43 31 -43 41 0 5 3 7 8 5 4 -3 8 8 9 24
2 23 -3 32 -21 39 -25 9 -62 64 -73 108 -3 15 -12 32 -18 37 -19 15 -24 62
-12 101 11 35 27 46 27 19z m5243 -25 c-3 -11 -9 -20 -13 -20 -5 0 -6 9 -3 20
3 11 9 20 13 20 5 0 6 -9 3 -20z m122 -9 c-3 -6 -14 -11 -23 -11 -15 1 -15 2
2 15 21 16 32 13 21 -4z m-5466 -66 c0 -5 -4 -3 -9 5 -5 8 -9 22 -9 30 0 16
17 -16 18 -35z m6991 -15 c0 -46 -2 -50 -25 -50 -24 0 -24 0 -10 40 l14 40
-29 0 c-17 0 -30 5 -30 10 0 6 18 10 40 10 l40 0 0 -50z m-1600 14 c0 -8 -5
-12 -10 -9 -6 4 -8 11 -5 16 9 14 15 11 15 -7z m-5371 -54 c0 -10 -3 -8 -9 5
-12 27 -12 43 0 25 5 -8 9 -22 9 -30z m67 -34 c-2 -6 -8 0 -14 14 -5 14 -7 29
-4 34 7 12 24 -33 18 -48z m4748 8 c11 -29 6 -75 -9 -80 -8 -4 -15 -13 -15
-20 0 -8 -13 -17 -30 -20 -16 -4 -28 -10 -25 -13 5 -9 -19 -29 -62 -53 -40
-23 -138 -25 -147 -3 -3 10 3 17 20 21 22 6 23 8 8 19 -24 17 -11 31 46 50 28
9 50 21 50 26 0 5 9 9 20 9 11 0 20 5 20 10 0 6 7 10 15 10 8 0 15 6 16 13 1
6 4 1 9 -13 l7 -25 8 28 c4 17 14 27 26 27 10 0 19 7 19 15 0 20 16 19 24 -1z
m2076 6 c0 -5 -2 -10 -4 -10 -3 0 -8 5 -11 10 -3 6 -1 10 4 10 6 0 11 -4 11
-10z m22 -115 c0 -5 -5 -11 -11 -13 -6 -2 -11 4 -11 13 0 9 5 15 11 13 6 -2
11 -8 11 -13z m-6384 -82 c23 -107 23 -112 -1 -110 -27 2 -44 17 -57 52 -8 22
-6 30 15 49 16 15 23 30 19 40 -3 9 -2 16 4 16 5 0 15 -21 20 -47z m4496 -106
c10 -10 8 -20 -11 -51 -20 -31 -29 -37 -48 -32 -19 5 -23 3 -19 -9 4 -8 2 -15
-4 -15 -11 0 -22 24 -22 50 0 15 43 54 62 55 3 0 10 3 14 8 10 10 13 9 28 -6z
m99 -24 c-3 -10 -11 -22 -17 -28 -6 -5 -17 -23 -25 -38 -9 -17 -20 -26 -29
-22 -12 5 -13 3 -2 -10 7 -9 11 -16 9 -18 -40 -23 -67 -33 -81 -30 -24 6 -23
23 1 23 12 0 26 14 38 37 10 21 37 52 61 70 50 38 54 39 45 16z m-253 -73 c0
-18 -6 -33 -15 -36 -20 -8 -19 -24 1 -24 8 0 12 -4 9 -10 -3 -5 -20 -8 -38 -6
-18 3 -37 5 -43 5 -7 1 -9 12 -5 32 4 23 17 37 41 50 46 25 50 24 50 -11z
m2120 -10 c0 -5 -4 -10 -10 -10 -5 0 -10 5 -10 10 0 6 5 10 10 10 6 0 10 -4
10 -10z m-2248 -18 c-7 -5 -10 -17 -6 -28 5 -15 4 -16 -5 -4 -8 12 -16 13 -41
3 -31 -12 -49 -3 -27 15 11 9 42 18 77 20 11 1 12 0 2 -6z m2308 -27 c0 -11
-11 -15 -42 -14 -24 1 -34 3 -23 6 11 3 24 9 30 14 14 14 35 11 35 -6z m-2294
-80 c-7 -19 -46 -20 -46 -2 0 16 43 39 48 25 2 -5 1 -15 -2 -23z m-4386 5 c14
-11 22 -20 18 -20 -14 0 -58 23 -58 32 0 13 13 9 40 -12z m4319 -15 c11 -11 4
-15 -44 -25 -40 -8 -64 -9 -79 -2 -11 6 -29 13 -39 16 -10 3 -15 10 -12 16 8
13 35 13 35 0 0 -16 48 -12 62 5 15 17 55 12 77 -10z m55 -60 c3 -10 1 -15 -7
-13 -6 1 -22 -3 -34 -10 -15 -8 -23 -9 -23 -2 0 5 0 13 -1 18 0 6 27 17 52 21
4 1 10 -6 13 -14z m-4207 -1 c-3 -3 -12 -4 -19 -1 -8 3 -5 6 6 6 11 1 17 -2
13 -5z m6433 -34 c0 -5 -2 -10 -4 -10 -3 0 -8 5 -11 10 -3 6 -1 10 4 10 6 0
11 -4 11 -10z m-6002 -18 c2 -7 -3 -12 -12 -12 -9 0 -16 7 -16 16 0 17 22 14
28 -4z m-3 -42 c3 -5 -1 -10 -10 -10 -9 0 -13 5 -10 10 3 6 8 10 10 10 2 0 7
-4 10 -10z m-380 -80 c21 -23 19 -24 -24 -9 -17 6 -31 15 -31 20 0 17 37 9 55
-11z m3868 -54 c26 -24 26 -26 11 -61 -8 -20 -14 -41 -13 -48 4 -35 -2 -40
-19 -14 -10 15 -22 24 -27 20 -4 -5 -5 0 -2 10 4 9 2 17 -3 17 -6 0 -10 5 -10
10 0 6 6 9 13 8 8 -2 12 11 12 40 0 23 3 42 6 42 3 0 18 -11 32 -24z m2677
-436 c0 -13 -5 -18 -15 -14 -16 7 -19 17 -8 27 12 13 23 7 23 -13z m-6058
-453 c-7 -8 -9 -17 -5 -20 3 -4 1 -7 -5 -7 -7 0 -12 2 -12 5 0 10 24 44 29 40
2 -3 -1 -11 -7 -18z m-202 -348 c0 -15 -33 -69 -42 -69 -4 0 -8 7 -8 15 0 8 4
15 9 15 5 0 12 11 15 25 6 25 26 35 26 14z m-50 -9 c0 -15 -48 -65 -55 -58 -7
7 14 49 30 60 14 11 25 10 25 -2z m-89 -95 c15 10 10 -12 -6 -25 -12 -10 -16
-9 -21 4 -3 9 -3 24 1 34 8 16 8 16 12 -1 3 -9 9 -15 14 -12z m61 0 c-7 -37
-22 -41 -22 -6 0 20 5 31 14 31 9 0 12 -8 8 -25z m-177 -35 c-3 -5 -10 -10
-16 -10 -5 0 -9 5 -9 10 0 6 7 10 16 10 8 0 12 -4 9 -10z m135 -8 c0 -14 -43
-50 -65 -54 -11 -2 -19 -11 -19 -21 2 -19 -4 -21 -24 -8 -17 10 -11 47 6 43 7
-1 29 9 50 22 40 27 52 31 52 18z m2460 -157 c0 -8 -7 -15 -16 -15 -14 0 -14
3 -4 15 7 8 14 15 16 15 2 0 4 -7 4 -15z m-240 -270 c0 -8 -4 -15 -10 -15 -5
0 -10 7 -10 15 0 8 5 15 10 15 6 0 10 -7 10 -15z m-116 -130 c4 -11 -1 -15
-19 -15 -16 0 -25 6 -25 15 0 8 9 15 19 15 10 0 21 -7 25 -15z m-74 -85 c0 -5
-5 -10 -11 -10 -5 0 -7 5 -4 10 3 6 8 10 11 10 2 0 4 -4 4 -10z m-370 -155 c0
-9 -9 -15 -22 -15 -22 1 -23 1 -4 15 25 19 26 19 26 0z m-417 -31 c-3 -9 0
-26 7 -39 7 -13 9 -32 5 -42 -6 -15 -10 -13 -22 16 -8 19 -13 45 -10 58 2 13
0 23 -5 23 -5 0 -6 5 -3 10 10 16 35 -8 28 -26z"/>
<path d="M2320 7500 c0 -5 5 -10 10 -10 6 0 10 5 10 10 0 6 -4 10 -10 10 -5 0
-10 -4 -10 -10z"/>
<path d="M1721 6322 c-13 -25 -14 -32 -2 -32 9 0 23 41 16 48 -2 2 -8 -5 -14
-16z"/>
<path d="M8866 5891 c-4 -7 -5 -15 -2 -18 9 -9 19 4 14 18 -4 11 -6 11 -12 0z"/>
<path d="M3808 4843 c7 -3 16 -2 19 1 4 3 -2 6 -13 5 -11 0 -14 -3 -6 -6z"/>
<path d="M3730 4756 c0 -9 5 -16 10 -16 6 0 10 4 10 9 0 6 -4 13 -10 16 -5 3
-10 -1 -10 -9z"/>
<path d="M2301 3194 c0 -11 3 -14 6 -6 3 7 2 16 -1 19 -3 4 -6 -2 -5 -13z"/>
<path d="M6825 3260 c-3 -5 3 -10 15 -10 12 0 18 5 15 10 -3 6 -10 10 -15 10
-5 0 -12 -4 -15 -10z"/>
<path d="M3386 6499 c-3 -17 -6 -43 -6 -58 1 -37 16 -8 25 47 8 49 -9 59 -19
11z"/>
<path d="M3945 6380 c-3 -5 -1 -10 4 -10 6 0 11 5 11 10 0 6 -2 10 -4 10 -3 0
-8 -4 -11 -10z"/>
<path d="M60 6280 c14 -4 50 -8 80 -8 30 0 66 4 80 8 16 5 -13 8 -80 8 -67 0
-96 -3 -80 -8z"/>
<path d="M440 6270 c0 -5 5 -10 10 -10 6 0 10 5 10 10 0 6 -4 10 -10 10 -5 0
-10 -4 -10 -10z"/>
<path d="M490 6270 c0 -5 5 -10 10 -10 6 0 10 5 10 10 0 6 -4 10 -10 10 -5 0
-10 -4 -10 -10z"/>
<path d="M9223 5843 c-30 -20 -29 -33 2 -33 20 0 25 5 25 25 0 29 2 29 -27 8z"/>
<path d="M9120 5719 c0 -5 5 -7 10 -4 6 3 10 8 10 11 0 2 -4 4 -10 4 -5 0 -10
-5 -10 -11z"/>
<path d="M9192 5705 c-15 -32 -15 -55 -2 -55 6 0 10 14 10 30 0 25 4 30 25 30
14 0 25 5 25 10 0 22 -47 10 -58 -15z"/>
<path d="M1191 5449 c-13 -17 -20 -33 -17 -36 3 -4 6 -1 6 5 0 7 6 12 14 12 7
0 16 10 19 22 9 32 3 32 -22 -3z"/>
<path d="M4740 5465 c-20 -24 -6 -28 15 -5 10 11 13 20 8 20 -6 0 -16 -7 -23
-15z"/>
<path d="M4683 5340 c5 -31 17 -36 17 -7 0 15 -4 27 -10 27 -5 0 -9 -9 -7 -20z"/>
<path d="M8230 5090 c-8 -5 -25 -10 -37 -10 -13 0 -23 -5 -23 -10 0 -22 30
-20 82 4 48 23 50 25 23 25 -16 0 -37 -4 -45 -9z"/>
<path d="M7925 4850 c-3 -11 -11 -20 -16 -20 -5 0 -9 -4 -9 -10 0 -12 10 -13
26 -2 16 10 28 52 15 52 -5 0 -13 -9 -16 -20z"/>
<path d="M8160 4830 c0 -5 5 -10 11 -10 5 0 7 5 4 10 -3 6 -8 10 -11 10 -2 0
-4 -4 -4 -10z"/>
<path d="M1181 4771 c-14 -4 -26 -12 -29 -19 -5 -17 9 -15 43 8 31 20 28 23
-14 11z"/>
<path d="M3977 4693 c-12 -11 -8 -23 8 -23 8 0 15 7 15 15 0 16 -12 20 -23 8z"/>
<path d="M4976 4661 c-3 -4 3 -16 13 -25 21 -19 37 -7 27 19 -6 16 -32 20 -40
6z"/>
<path d="M5608 4618 c-29 -10 -46 -38 -23 -38 8 0 15 6 15 14 0 10 14 16 43
18 33 2 37 4 17 9 -14 3 -38 1 -52 -3z"/>
<path d="M5058 4613 c7 -3 16 -2 19 1 4 3 -2 6 -13 5 -11 0 -14 -3 -6 -6z"/>
<path d="M5403 4598 c-21 -27 -24 -38 -10 -38 7 0 19 11 25 25 12 26 2 34 -15
13z"/>
<path d="M5193 4536 c-13 -15 1 -36 24 -36 14 0 16 10 7 34 -7 19 -15 20 -31
2z"/>
<path d="M5745 4540 c-3 -5 -1 -10 4 -10 6 0 11 5 11 10 0 6 -2 10 -4 10 -3 0
-8 -4 -11 -10z"/>
<path d="M9185 4520 c3 -5 8 -10 11 -10 2 0 4 5 4 10 0 6 -5 10 -11 10 -5 0
-7 -4 -4 -10z"/>
<path d="M5340 4500 c0 -5 5 -10 10 -10 6 0 10 5 10 10 0 6 -4 10 -10 10 -5 0
-10 -4 -10 -10z"/>
<path d="M9120 4470 c0 -11 -7 -20 -15 -20 -11 0 -15 -11 -15 -40 0 -29 4 -40
15 -40 8 0 15 -7 15 -17 0 -32 15 -1 26 55 8 39 8 61 2 70 -15 18 -28 15 -28
-8z"/>
<path d="M5425 4464 c-13 -10 -9 -13 27 -18 87 -12 118 -14 118 -5 0 5 -9 9
-19 9 -11 0 -22 4 -25 9 -9 14 -83 18 -101 5z"/>
<path d="M3170 4442 c-14 -2 -29 -8 -35 -14 -7 -7 1 -9 24 -4 51 9 61 26 11
18z"/>
<path d="M7800 4224 c0 -8 5 -12 10 -9 6 3 10 10 10 16 0 5 -4 9 -10 9 -5 0
-10 -7 -10 -16z"/>
<path d="M6486 4133 c-6 -14 -5 -15 5 -6 7 7 10 15 7 18 -3 3 -9 -2 -12 -12z"/>
<path d="M3756 3946 c2 -25 6 -65 8 -89 l3 -42 -56 -17 c-31 -9 -71 -20 -89
-23 -22 -5 -34 -14 -37 -28 -8 -28 17 -98 50 -141 14 -19 25 -46 25 -64 0 -17
7 -37 15 -45 7 -8 17 -28 21 -43 4 -16 10 -33 14 -39 5 -5 11 -27 15 -47 4
-21 13 -38 20 -38 13 0 60 -49 67 -70 2 -6 24 -11 50 -12 39 -2 52 2 75 24 20
19 33 24 43 18 9 -6 24 -3 43 8 28 16 29 16 47 -6 17 -20 20 -21 34 -6 9 8 16
20 16 25 0 11 40 12 40 2 1 -5 9 -18 20 -31 16 -19 23 -21 40 -12 15 8 20 8
20 -1 0 -7 9 -9 22 -6 12 3 30 2 40 -4 12 -7 18 -6 18 1 0 6 5 8 10 5 6 -4 8
-10 5 -15 -3 -4 3 -11 12 -14 11 -5 24 1 36 16 13 16 20 19 24 11 2 -7 11 -13
19 -13 11 0 13 7 7 28 -4 15 -7 41 -7 57 -1 28 2 30 37 33 30 3 37 7 37 24 0
14 -5 18 -16 14 -8 -3 -2 8 14 24 17 17 38 30 46 30 9 0 16 5 16 10 0 6 7 10
16 10 9 0 14 -8 13 -17 -4 -41 1 -54 19 -51 9 2 16 11 14 20 -2 14 8 15 82 11
70 -5 88 -3 101 10 9 9 24 22 33 29 23 18 62 74 62 90 0 7 -9 28 -20 46 -11
18 -20 38 -20 45 0 6 -18 21 -40 31 -22 11 -40 23 -40 28 0 4 -10 8 -22 8 -13
0 -46 9 -73 19 -75 29 -168 44 -196 32 -13 -6 -42 -15 -65 -21 -23 -5 -57 -25
-77 -46 -36 -34 -57 -37 -57 -9 0 8 -11 17 -25 21 -14 3 -25 9 -25 13 0 11
-48 31 -74 31 -12 0 -38 14 -56 30 -23 20 -37 27 -44 20 -15 -15 -20 -13 -40
25 -14 25 -22 32 -27 23 -8 -12 -9 -11 -23 36 -2 7 -23 16 -45 20 -23 3 -49
14 -59 24 -11 11 -33 17 -60 18 -25 0 -47 6 -52 13 -4 8 -6 -6 -4 -33z m39
-146 c3 -5 -1 -10 -10 -10 -9 0 -13 5 -10 10 3 6 8 10 10 10 2 0 7 -4 10 -10z
m705 -314 c0 -3 -4 -8 -10 -11 -5 -3 -10 -1 -10 4 0 6 5 11 10 11 6 0 10 -2
10 -4z m-407 -166 c3 -11 1 -23 -4 -26 -5 -3 -9 6 -9 20 0 31 6 34 13 6z"/>
<path d="M9040 3944 c0 -22 2 -25 15 -14 8 7 15 19 15 26 0 8 -7 14 -15 14
-10 0 -15 -10 -15 -26z"/>
<path d="M7836 3893 c-6 -14 -5 -15 5 -6 7 7 10 15 7 18 -3 3 -9 -2 -12 -12z"/>
<path d="M6446 3859 c-2 -8 -7 -41 -10 -74 l-5 -60 19 65 c11 39 15 69 10 74
-6 6 -11 4 -14 -5z"/>
<path d="M4455 3843 c-11 -3 -31 -14 -44 -24 -23 -18 -23 -19 -3 -19 11 0 22
-6 25 -12 7 -20 62 13 62 37 0 20 -10 25 -40 18z"/>
<path d="M9230 3825 c0 -8 5 -15 10 -15 6 0 10 7 10 15 0 8 -4 15 -10 15 -5 0
-10 -7 -10 -15z"/>
<path d="M4365 3770 c3 -5 12 -7 20 -3 21 7 19 13 -6 13 -11 0 -18 -4 -14 -10z"/>
<path d="M3248 3672 c-22 -3 -29 -11 -37 -39 -14 -49 -1 -63 58 -62 l47 2 -1
39 c0 46 -23 66 -67 60z"/>
<path d="M6416 3658 c-9 -36 -7 -88 4 -88 6 0 10 25 10 55 0 59 -4 69 -14 33z"/>
<path d="M6396 3542 c-2 -4 -8 -48 -11 -97 -4 -49 -9 -93 -11 -97 -3 -4 -7
-47 -10 -96 -2 -48 -9 -104 -15 -125 -5 -20 -7 -52 -4 -70 4 -19 0 -50 -9 -76
-18 -49 -21 -101 -6 -101 10 0 16 27 30 145 8 72 23 147 45 229 5 19 4 27 -2
23 -6 -4 -9 4 -6 21 2 15 7 78 10 140 5 102 3 126 -11 104z"/>
<path d="M6300 3395 c0 -8 5 -15 10 -15 6 0 10 7 10 15 0 8 -4 15 -10 15 -5 0
-10 -7 -10 -15z"/>
<path d="M9106 3394 c-9 -25 -7 -64 4 -64 6 0 10 18 10 40 0 43 -4 50 -14 24z"/>
<path d="M6277 3313 c-35 -90 -97 -330 -97 -381 0 -23 -7 -53 -15 -65 -14 -22
-22 -63 -32 -172 -8 -79 4 -49 22 55 9 52 23 108 31 124 8 16 14 44 14 61 0
28 17 105 50 220 48 172 60 239 27 158z"/>
<path d="M3710 3310 c0 -5 6 -10 14 -10 8 0 18 5 21 10 3 6 -3 10 -14 10 -12
0 -21 -4 -21 -10z"/>
<path d="M7395 3310 c-3 -5 -1 -10 4 -10 6 0 11 5 11 10 0 6 -2 10 -4 10 -3 0
-8 -4 -11 -10z"/>
<path d="M3685 3270 c-4 -6 5 -10 19 -10 14 0 26 5 26 10 0 6 -9 10 -19 10
-11 0 -23 -4 -26 -10z"/>
<path d="M7430 3255 c-10 -12 -10 -15 1 -16 8 -1 28 -3 44 -5 50 -6 65 6 25
21 -46 18 -55 18 -70 0z"/>
<path d="M7537 3219 c-31 -35 -34 -49 -12 -49 8 0 23 13 33 29 13 22 22 27 32
20 19 -11 30 -11 30 -1 0 7 -42 32 -53 32 -2 0 -15 -14 -30 -31z"/>
<path d="M1567 3227 c-11 -29 -9 -43 4 -30 6 6 9 19 7 29 -3 18 -4 18 -11 1z"/>
<path d="M7432 3199 c2 -6 7 -10 11 -10 4 1 17 1 30 2 21 0 21 1 2 9 -28 12
-47 12 -43 -1z"/>
<path d="M3505 3195 c-5 -2 -23 -6 -39 -10 -22 -5 -26 -9 -16 -15 11 -7 11
-14 3 -32 -7 -13 -12 -17 -12 -10 -1 13 -87 18 -94 5 -2 -5 -7 -25 -11 -46 -7
-39 -7 -39 22 -32 28 6 30 4 36 -32 3 -21 6 -51 6 -68 0 -16 6 -41 13 -55 10
-21 19 -24 46 -22 28 3 33 1 28 -12 -5 -11 -1 -16 13 -16 11 0 20 -4 20 -9 0
-5 16 -15 35 -22 19 -7 35 -16 35 -19 0 -4 10 -6 23 -6 12 1 21 -4 19 -11 -1
-8 8 -13 23 -13 14 0 25 5 25 11 0 8 5 8 15 -1 8 -7 22 -10 30 -6 8 3 15 1 15
-4 0 -6 -8 -10 -17 -10 -10 0 -25 -5 -33 -10 -13 -9 -13 -11 -1 -19 12 -8 12
-12 -2 -26 -29 -28 -19 -46 36 -66 20 -7 37 -17 37 -21 0 -4 13 -8 29 -8 16 0
31 -5 33 -11 3 -8 10 -8 25 2 19 11 25 11 41 -5 42 -37 195 -57 224 -28 15 15
-7 42 -35 42 -11 0 -25 8 -32 17 -8 10 -27 17 -46 18 -28 0 -35 4 -37 23 -2
13 -10 22 -21 22 -10 0 -22 13 -30 36 -15 43 -35 52 -61 29 -18 -16 -20 -16
-52 2 -18 10 -35 19 -36 20 -10 5 12 43 24 43 11 0 13 -6 9 -20 -5 -17 -2 -20
23 -20 24 0 29 4 25 18 -3 12 4 22 21 30 21 9 26 9 26 -1 0 -7 -5 -18 -12 -25
-18 -18 -1 -27 26 -12 28 15 144 21 153 7 3 -4 11 -6 19 -3 17 7 46 -3 39 -14
-2 -4 46 -8 107 -9 66 -1 118 -7 126 -13 10 -9 15 -9 22 1 10 16 71 29 175 36
205 14 263 20 271 27 3 4 20 4 37 1 18 -2 43 0 56 5 17 6 33 5 50 -3 73 -35
126 -46 239 -48 64 -1 86 2 98 15 15 15 14 19 -17 58 -44 54 -73 68 -124 59
-36 -6 -67 -1 -120 21 -69 28 -119 41 -135 37 -10 -3 -21 0 -22 5 -5 15 -78
-2 -78 -18 0 -8 5 -14 10 -14 6 0 5 -6 -2 -14 -7 -8 -14 -10 -16 -5 -4 11 -62
12 -62 1 0 -4 -25 -8 -55 -9 -38 0 -62 -6 -75 -18 -18 -16 -20 -16 -26 -2 -3
9 -3 21 1 27 7 11 -9 13 -42 4 -13 -4 -23 -13 -23 -20 0 -8 -7 -14 -16 -14 -8
0 -12 -4 -9 -10 10 -17 -8 -11 -34 11 -21 17 -22 22 -10 30 7 5 9 9 4 9 -6 0
-17 -6 -24 -12 -11 -10 -14 -10 -18 0 -3 6 -14 12 -25 12 -20 0 -20 -1 -4 -19
15 -17 15 -19 1 -25 -28 -10 -92 -7 -103 7 -5 6 -8 36 -5 65 5 42 9 52 24 52
15 0 19 -8 19 -40 0 -23 5 -40 11 -40 6 0 8 7 5 16 -3 9 -6 29 -6 45 0 27 -3
29 -39 29 -23 0 -48 8 -64 20 -24 19 -94 34 -219 47 -27 3 -75 -2 -111 -11
-35 -9 -82 -16 -104 -16 -24 0 -48 -7 -57 -15 -17 -17 -43 -20 -48 -5 -2 6
-21 1 -45 -11 l-42 -21 -24 24 c-23 22 -32 47 -42 127 -5 38 -6 39 -20 36z
m-60 -116 c0 -18 -35 -24 -46 -7 -5 8 -2 15 9 20 23 9 37 4 37 -13z m715 -99
c0 -5 -12 -10 -27 -10 -22 0 -25 2 -13 10 20 13 40 13 40 0z m400 -70 c0 -5
-2 -10 -4 -10 -3 0 -8 5 -11 10 -3 6 -1 10 4 10 6 0 11 -4 11 -10z m-785 -260
c3 -5 1 -10 -4 -10 -6 0 -11 5 -11 10 0 6 2 10 4 10 3 0 8 -4 11 -10z"/>
<path d="M7590 3184 c0 -8 5 -12 10 -9 6 4 8 11 5 16 -9 14 -15 11 -15 -7z"/>
<path d="M7745 3160 c3 -5 10 -10 16 -10 5 0 9 5 9 10 0 6 -7 10 -16 10 -8 0
-12 -4 -9 -10z"/>
<path d="M7503 3153 c-7 -3 -13 -12 -13 -21 0 -15 2 -15 17 1 18 18 16 27 -4
20z"/>
<path d="M7710 3149 c0 -5 5 -7 10 -4 6 3 10 8 10 11 0 2 -4 4 -10 4 -5 0 -10
-5 -10 -11z"/>
<path d="M1530 3093 c0 -69 19 -221 29 -241 18 -33 41 -90 41 -100 0 -11 35
-73 65 -116 37 -53 100 -117 147 -152 l48 -36 -5 -81 c-3 -45 -8 -95 -11 -111
-4 -18 -2 -26 4 -22 10 6 24 88 26 156 l1 34 49 -3 c33 -2 46 1 42 8 -4 6 -15
11 -26 11 -10 0 -20 6 -23 13 -2 7 -22 21 -43 32 -85 43 -133 85 -179 155 -17
25 -32 47 -35 50 -12 12 -30 51 -30 65 0 9 -7 18 -15 21 -8 4 -15 15 -15 27 0
11 -6 28 -14 36 -17 19 -41 176 -38 249 1 28 -3 52 -8 52 -6 0 -10 -21 -10
-47z"/>
<path d="M7845 3094 c40 -33 85 -57 85 -44 0 5 -18 19 -39 30 -22 11 -42 24
-46 30 -3 5 -12 10 -18 10 -7 -1 2 -12 18 -26z"/>
<path d="M7380 3089 c0 -5 5 -7 10 -4 6 3 10 8 10 11 0 2 -4 4 -10 4 -5 0 -10
-5 -10 -11z"/>
<path d="M7430 3055 c-24 -24 -41 -48 -37 -52 7 -6 32 18 79 76 32 38 3 22
-42 -24z"/>
<path d="M4415 3060 c-19 -8 -19 -9 3 -9 12 -1 22 4 22 9 0 6 -1 10 -2 9 -2 0
-12 -4 -23 -9z"/>
<path d="M7926 2988 c43 -52 74 -81 74 -72 0 18 -64 94 -79 94 -11 0 -10 -5 5
-22z"/>
<path d="M7357 2952 c-15 -15 -27 -31 -27 -35 0 -5 -9 -17 -20 -29 -11 -12
-18 -23 -16 -25 6 -7 36 9 36 20 0 5 10 24 23 41 46 61 48 74 4 28z"/>
<path d="M8011 2963 c16 -21 31 -33 41 -33 4 0 -3 11 -16 25 -26 28 -46 34
-25 8z"/>
<path d="M1907 2911 c-2 -10 -1 -25 4 -32 6 -10 9 -4 9 19 0 36 -5 42 -13 13z"/>
<path d="M7260 2830 c-13 -11 -27 -20 -31 -20 -11 0 -42 -60 -35 -67 9 -10 26
8 26 29 0 14 5 18 16 14 10 -4 18 0 21 13 3 11 13 21 24 24 10 3 19 10 19 16
0 17 -14 13 -40 -9z"/>
<path d="M9180 2843 c0 -5 5 -15 10 -23 8 -12 10 -11 10 8 0 12 -4 22 -10 22
-5 0 -10 -3 -10 -7z"/>
<path d="M8100 2833 c0 -10 83 -84 88 -78 7 7 -62 85 -75 85 -7 0 -13 -3 -13
-7z"/>
<path d="M1897 2800 c-4 -14 -6 -43 -6 -65 1 -38 2 -37 10 14 10 58 7 92 -4
51z"/>
<path d="M6307 2803 c-4 -3 -7 -13 -7 -22 1 -13 3 -13 11 2 11 19 8 33 -4 20z"/>
<path d="M7282 2750 c-7 -11 -12 -43 -11 -72 l1 -53 13 70 c7 39 12 71 11 72
-1 1 -7 -7 -14 -17z"/>
<path d="M9200 2716 c0 -16 5 -26 15 -26 8 0 15 6 15 14 0 7 -7 19 -15 26 -13
11 -15 8 -15 -14z"/>
<path d="M6290 2700 c0 -5 5 -10 10 -10 6 0 10 5 10 10 0 6 -4 10 -10 10 -5 0
-10 -4 -10 -10z"/>
<path d="M9120 2661 c0 -28 5 -51 10 -51 6 0 10 18 10 40 0 22 0 43 1 47 0 4
-4 9 -10 11 -7 2 -11 -15 -11 -47z"/>
<path d="M1875 2593 c-4 -27 -7 -54 -8 -62 -1 -8 4 -16 11 -18 9 -4 12 13 12
61 0 36 -2 66 -4 66 -3 0 -8 -21 -11 -47z"/>
<path d="M2370 2609 c0 -5 5 -7 10 -4 6 3 10 8 10 11 0 2 -4 4 -10 4 -5 0 -10
-5 -10 -11z"/>
<path d="M8310 2590 c6 -11 13 -20 15 -20 3 0 5 9 5 20 0 11 -7 20 -15 20 -13
0 -14 -4 -5 -20z"/>
<path d="M2393 2567 c-22 -27 -24 -37 -9 -37 18 0 40 36 27 44 -5 3 -13 0 -18
-7z"/>
<path d="M4210 2570 c0 -5 7 -10 15 -10 8 0 15 5 15 10 0 6 -7 10 -15 10 -8 0
-15 -4 -15 -10z"/>
<path d="M7255 2571 c-3 -5 -1 -12 5 -16 5 -3 10 1 10 9 0 18 -6 21 -15 7z"/>
<path d="M6697 2546 c-22 -17 -22 -26 2 -26 23 0 33 11 23 27 -5 8 -12 8 -25
-1z"/>
<path d="M8335 2550 c3 -5 8 -10 11 -10 2 0 4 5 4 10 0 6 -5 10 -11 10 -5 0
-7 -4 -4 -10z"/>
<path d="M7005 2530 c-3 -5 -2 -10 4 -10 5 0 13 5 16 10 3 6 2 10 -4 10 -5 0
-13 -4 -16 -10z"/>
<path d="M3338 2523 c7 -3 16 -2 19 1 4 3 -2 6 -13 5 -11 0 -14 -3 -6 -6z"/>
<path d="M8350 2517 c0 -20 30 -90 36 -84 9 9 -8 76 -22 88 -11 9 -14 8 -14
-4z"/>
<path d="M2436 2484 c-3 -9 -6 -16 -6 -17 0 -1 11 -2 25 -2 28 0 31 5 13 23
-16 16 -25 15 -32 -4z"/>
<path d="M2556 2487 c3 -10 9 -15 12 -12 3 3 0 11 -7 18 -10 9 -11 8 -5 -6z"/>
<path d="M3840 2493 c1 -4 17 -16 37 -25 32 -15 37 -15 51 -2 8 8 13 16 11 18
-9 8 -99 16 -99 9z"/>
<path d="M3200 2460 c0 -5 5 -10 11 -10 5 0 7 5 4 10 -3 6 -8 10 -11 10 -2 0
-4 -4 -4 -10z"/>
<path d="M4040 2463 l-45 -4 48 -24 c27 -13 56 -33 64 -45 14 -20 16 -20 34
-4 17 15 19 15 19 1 0 -9 15 -20 37 -28 35 -11 36 -12 13 -24 -19 -10 -20 -13
-5 -18 29 -12 35 -8 35 24 0 26 3 30 18 24 30 -14 84 -18 91 -8 9 15 51 26 51
14 0 -6 8 -11 19 -11 10 0 24 -7 31 -15 19 -23 30 -18 30 14 0 26 4 30 40 36
48 8 52 21 8 30 -18 4 -38 11 -44 16 -5 4 -84 10 -175 13 -90 3 -177 7 -194 9
-16 2 -50 2 -75 0z"/>
<path d="M6594 2455 c-5 -12 5 -27 32 -50 22 -20 41 -29 43 -23 2 6 -6 19 -18
29 -11 9 -21 22 -21 27 0 5 -7 15 -15 22 -12 10 -16 9 -21 -5z"/>
<path d="M2502 2453 c-18 -2 -30 -9 -27 -14 9 -14 51 -11 65 6 7 8 9 14 4 13
-5 0 -24 -3 -42 -5z"/>
<path d="M3345 2450 c3 -5 8 -10 11 -10 2 0 4 5 4 10 0 6 -5 10 -11 10 -5 0
-7 -4 -4 -10z"/>
<path d="M3265 2433 c4 -10 10 -28 12 -40 3 -13 12 -23 19 -23 18 0 18 14 -1
30 -8 7 -15 21 -15 31 0 11 -5 19 -11 19 -7 0 -8 -7 -4 -17z"/>
<path d="M9200 2430 c0 -5 11 -10 25 -10 14 0 25 5 25 10 0 6 -11 10 -25 10
-14 0 -25 -4 -25 -10z"/>
<path d="M7090 2430 c-4 -9 -8 -150 -4 -150 12 0 23 83 15 116 -5 22 -10 37
-11 34z"/>
<path d="M2026 2411 c-8 -12 18 -21 33 -11 10 5 8 9 -4 14 -21 8 -23 8 -29 -3z"/>
<path d="M7221 2384 c0 -11 3 -14 6 -6 3 7 2 16 -1 19 -3 4 -6 -2 -5 -13z"/>
<path d="M9200 2390 c0 -5 11 -10 25 -10 14 0 25 5 25 10 0 6 -11 10 -25 10
-14 0 -25 -4 -25 -10z"/>
<path d="M6220 2371 c0 -11 4 -22 9 -25 11 -7 20 14 13 32 -7 19 -22 14 -22
-7z"/>
<path d="M8385 2380 c-3 -5 -1 -10 4 -10 6 0 11 5 11 10 0 6 -2 10 -4 10 -3 0
-8 -4 -11 -10z"/>
<path d="M3782 2345 c0 -16 2 -22 5 -12 2 9 2 23 0 30 -3 6 -5 -1 -5 -18z"/>
<path d="M3516 2303 c-9 -60 -7 -90 7 -96 8 -3 24 -33 36 -66 12 -34 26 -61
32 -61 5 0 9 -7 9 -15 0 -8 4 -15 8 -15 12 0 42 -56 43 -82 0 -12 3 -17 6 -10
2 6 20 12 39 12 19 0 34 4 34 10 0 5 10 12 23 15 29 8 57 57 57 101 0 30 -3
34 -27 35 -23 1 -20 3 15 12 30 7 42 15 42 28 0 14 -9 19 -42 21 -36 3 -43 6
-41 23 1 11 0 14 -3 8 -8 -18 -24 -16 -24 2 0 8 -4 15 -10 15 -5 0 -10 -7 -10
-15 0 -8 -4 -15 -10 -15 -5 0 -10 7 -10 15 0 19 -51 65 -72 65 -10 0 -18 4
-18 8 0 7 -62 42 -74 42 -2 0 -6 -17 -10 -37z"/>
<path d="M6627 2296 c-7 -18 12 -56 27 -56 5 0 18 -7 28 -17 16 -14 18 -15 18
0 0 9 -10 23 -22 31 -12 9 -27 25 -34 37 -9 19 -12 19 -17 5z"/>
<path d="M7010 2269 c0 -11 5 -17 10 -14 6 3 10 13 10 21 0 8 -4 14 -10 14 -5
0 -10 -9 -10 -21z"/>
<path d="M6900 2248 c0 -19 2 -20 10 -8 13 19 13 30 0 30 -5 0 -10 -10 -10
-22z"/>
<path d="M6508 2223 c-23 -6 -23 -15 2 -55 l20 -33 0 48 c0 26 -1 46 -2 46 -2
-1 -11 -3 -20 -6z"/>
<path d="M1838 2163 c-3 -27 -1 -52 4 -57 4 -6 8 16 8 47 0 69 -6 74 -12 10z"/>
<path d="M6463 2183 c0 -18 4 -33 9 -33 10 0 9 18 -2 45 -6 16 -8 14 -7 -12z"/>
<path d="M7022 2170 c0 -14 2 -19 5 -12 2 6 2 18 0 25 -3 6 -5 1 -5 -13z"/>
<path d="M1822 2002 c-6 -48 -16 -141 -22 -207 -6 -66 -15 -165 -20 -220 -6
-55 -17 -165 -25 -245 -28 -291 -46 -477 -56 -575 -5 -55 -14 -149 -19 -210
-5 -60 -17 -175 -25 -255 -29 -272 -30 -290 -13 -290 12 0 16 19 21 83 8 102
34 386 42 452 3 28 9 100 14 160 6 61 21 232 35 380 44 475 46 499 50 577 2
42 6 81 9 85 7 11 30 344 24 349 -2 2 -8 -36 -15 -84z"/>
<path d="M2942 1833 c-23 -25 -42 -47 -42 -49 0 -2 -14 -24 -32 -51 -18 -26
-33 -59 -34 -74 -2 -34 -13 -52 -28 -46 -6 2 -23 -20 -37 -50 -27 -56 -23 -71
8 -27 10 15 27 37 39 49 11 12 31 47 43 77 12 30 47 86 77 123 45 57 65 95 51
95 -2 0 -22 -21 -45 -47z"/>
<path d="M2987 1817 c-9 -24 -33 -67 -52 -96 -19 -29 -35 -56 -35 -60 0 -4
-15 -33 -34 -64 -19 -30 -31 -59 -27 -63 3 -4 1 -4 -5 -1 -15 8 -41 -21 -55
-61 -6 -18 -25 -47 -42 -65 -67 -70 -89 -98 -84 -104 4 -3 29 16 57 43 70 67
83 69 60 10 -6 -16 -6 -26 0 -26 5 0 12 17 16 38 8 48 30 83 48 76 11 -4 13 0
9 15 -4 15 -2 20 8 16 9 -3 23 11 38 40 13 25 28 45 33 45 5 0 7 4 3 9 -3 5 5
17 17 25 16 12 18 16 7 16 -9 0 -29 -16 -45 -35 -28 -34 -44 -44 -44 -26 0 4
10 19 23 33 27 31 47 64 47 79 0 10 38 95 77 172 7 15 10 27 6 27 -5 0 -16
-19 -26 -43z"/>
<path d="M6930 1813 c0 -4 5 -15 10 -23 8 -13 10 -13 10 2 0 9 -4 20 -10 23
-5 3 -10 3 -10 -2z"/>
<path d="M3022 1725 c-17 -25 -36 -45 -41 -45 -14 0 -33 -38 -23 -44 8 -5 112
114 112 128 0 17 -19 1 -48 -39z"/>
<path d="M3927 1763 c-12 -11 -8 -65 3 -58 6 4 18 1 26 -6 23 -19 25 -7 7 34
-17 37 -24 43 -36 30z"/>
<path d="M2729 1686 c-13 -25 -20 -48 -16 -53 9 -9 28 17 21 29 -3 5 4 22 16
38 12 17 17 30 12 30 -5 0 -20 -20 -33 -44z"/>
<path d="M5405 1700 c-3 -5 3 -10 15 -10 12 0 18 5 15 10 -3 6 -10 10 -15 10
-5 0 -12 -4 -15 -10z"/>
<path d="M3920 1667 c0 -9 -4 -17 -10 -17 -5 0 -10 -4 -10 -10 0 -5 4 -10 9
-10 12 0 25 39 17 47 -3 4 -6 -1 -6 -10z"/>
<path d="M3953 1628 c-42 -14 -42 -22 4 -36 44 -14 52 -10 45 23 -5 28 -4 27
-49 13z"/>
<path d="M2990 1570 c-9 -6 -10 -10 -3 -10 6 0 15 5 18 10 8 12 4 12 -15 0z"/>
<path d="M2678 1544 c-5 -4 -8 -16 -8 -28 0 -14 3 -17 11 -9 6 6 9 19 7 28 -1
9 -6 13 -10 9z"/>
<path d="M4000 1530 c0 -22 16 -26 40 -10 13 9 13 11 0 20 -24 16 -40 12 -40
-10z"/>
<path d="M2477 1534 c-4 -4 -7 -17 -7 -28 1 -19 1 -20 11 -3 11 19 8 43 -4 31z"/>
<path d="M5280 1525 c0 -8 7 -15 15 -15 8 0 15 7 15 15 0 8 -7 15 -15 15 -8 0
-15 -7 -15 -15z"/>
<path d="M5848 1493 c7 -3 16 -2 19 1 4 3 -2 6 -13 5 -11 0 -14 -3 -6 -6z"/>
<path d="M2677 1476 c-4 -9 -12 -16 -20 -16 -7 0 -14 -12 -15 -27 l-2 -28 32
32 c23 24 29 36 21 44 -7 7 -12 6 -16 -5z"/>
<path d="M5241 1477 c8 -7 18 -20 22 -29 10 -28 37 -22 37 8 0 21 -4 24 -20
19 -11 -4 -20 -2 -20 4 0 6 -8 11 -17 11 -16 -1 -16 -2 -2 -13z"/>
<path d="M6940 1481 c0 -5 5 -13 10 -16 6 -3 10 -2 10 4 0 5 -4 13 -10 16 -5
3 -10 2 -10 -4z"/>
<path d="M2447 1419 c-16 -33 -27 -65 -24 -72 2 -6 -2 -28 -10 -47 -7 -19 -12
-56 -11 -82 3 -46 10 -59 23 -38 8 12 45 -10 45 -27 0 -7 4 -13 8 -13 5 0 17
-18 27 -40 10 -22 24 -40 32 -40 18 0 17 19 -2 26 -8 4 -12 10 -10 15 3 4 -3
17 -15 29 -11 11 -21 24 -23 29 -2 10 99 81 115 81 6 0 21 11 34 25 20 22 21
25 6 25 -10 0 -22 -4 -27 -9 -6 -5 -27 -14 -47 -21 -21 -6 -38 -17 -38 -25 0
-23 -32 -27 -53 -6 -27 27 -30 128 -6 194 25 68 9 65 -24 -4z"/>
<path d="M5331 1439 c-9 -27 -8 -30 7 -27 10 2 18 14 20 31 4 37 -13 34 -27
-4z"/>
<path d="M4110 1428 c0 -9 -8 -19 -17 -21 -14 -4 -13 -5 4 -6 26 -1 35 10 22
29 -7 13 -9 12 -9 -2z"/>
<path d="M2840 1390 c0 -19 3 -21 12 -12 9 9 9 15 0 24 -9 9 -12 7 -12 -12z"/>
<path d="M2885 1399 c-12 -19 5 -23 22 -6 16 16 16 17 1 17 -9 0 -20 -5 -23
-11z"/>
<path d="M5704 1376 c-8 -22 3 -33 18 -18 9 9 9 15 0 24 -9 9 -13 7 -18 -6z"/>
<path d="M2517 1334 c-35 -33 -55 -71 -22 -44 13 10 15 9 15 -11 0 -13 4 -19
8 -13 4 6 15 13 25 17 12 5 17 15 16 29 -2 13 0 28 4 35 17 27 -11 19 -46 -13z"/>
<path d="M4126 1291 c-18 -7 -18 -8 -2 -14 27 -11 36 -8 36 8 0 16 -5 17 -34
6z"/>
<path d="M6452 1183 c-13 -38 -28 -78 -33 -90 -5 -13 -13 -34 -19 -48 -5 -14
-14 -35 -20 -47 -5 -13 -21 -54 -36 -93 -14 -38 -34 -85 -45 -103 -20 -35 -24
-52 -11 -52 16 0 146 306 177 417 24 86 15 97 -13 16z"/>
<path d="M4975 1210 c-7 -12 2 -30 16 -30 12 0 12 27 0 35 -5 3 -12 1 -16 -5z"/>
<path d="M2447 1110 c3 -11 9 -20 14 -20 11 0 11 3 3 24 -9 23 -23 20 -17 -4z"/>
<path d="M2393 1089 c0 -13 -3 -31 -7 -39 -4 -10 2 -20 15 -29 21 -13 22 -12
16 29 -6 47 -25 77 -24 39z"/>
<path d="M2450 1032 c0 -4 9 -8 19 -8 11 0 17 4 15 8 -7 10 -34 10 -34 0z"/>
<path d="M2810 915 c0 -14 4 -25 9 -25 5 0 8 11 7 25 -1 33 -16 33 -16 0z"/>
<path d="M2635 870 c3 -5 8 -10 11 -10 2 0 4 5 4 10 0 6 -5 10 -11 10 -5 0 -7
-4 -4 -10z"/>
<path d="M2740 860 c0 -5 7 -10 16 -10 8 0 12 5 9 10 -3 6 -10 10 -16 10 -5 0
-9 -4 -9 -10z"/>
<path d="M2526 843 c-10 -10 4 -23 25 -23 25 0 25 25 0 27 -10 1 -22 -1 -25
-4z"/>
<path d="M6252 709 c-7 -12 -11 -24 -7 -27 7 -8 25 17 25 36 0 17 -3 15 -18
-9z"/>
<path d="M3149 697 c-19 -15 -43 -57 -32 -57 4 0 18 16 31 35 24 38 24 40 1
22z"/>
<path d="M6225 651 c-3 -5 -1 -12 5 -16 5 -3 10 1 10 9 0 18 -6 21 -15 7z"/>
<path d="M3097 624 c-4 -4 -7 -14 -7 -23 0 -11 3 -12 11 -4 6 6 10 16 7 23 -2
6 -7 8 -11 4z"/>
<path d="M2641 534 c0 -11 3 -14 6 -6 3 7 2 16 -1 19 -3 4 -6 -2 -5 -13z"/>
<path d="M6153 515 c-9 -25 4 -29 17 -6 7 15 7 21 0 21 -6 0 -13 -7 -17 -15z"/>
<path d="M6117 435 c-24 -50 -20 -58 4 -12 11 22 19 41 17 43 -3 2 -12 -12
-21 -31z"/>
<path d="M2652 420 c0 -14 2 -19 5 -12 2 6 2 18 0 25 -3 6 -5 1 -5 -13z"/>
<path d="M2850 334 c0 -20 4 -33 10 -29 11 7 9 65 -2 65 -5 0 -8 -16 -8 -36z"/>
<path d="M6055 320 c-4 -12 -5 -24 -2 -27 3 -2 8 5 12 17 4 12 5 24 2 27 -3 2
-8 -5 -12 -17z"/>
<path d="M6036 263 c-6 -14 -5 -15 5 -6 7 7 10 15 7 18 -3 3 -9 -2 -12 -12z"/>
<path d="M3952 190 c0 -19 2 -27 5 -17 2 9 2 25 0 35 -3 9 -5 1 -5 -18z"/>
<path d="M3907 190 c3 -11 7 -20 9 -20 2 0 4 9 4 20 0 11 -4 20 -9 20 -5 0 -7
-9 -4 -20z"/>
<path d="M3520 110 c0 -11 2 -20 5 -20 2 0 9 9 15 20 9 16 8 20 -5 20 -8 0
-15 -9 -15 -20z"/>
<path d="M5930 80 c0 -5 5 -10 10 -10 6 0 10 5 10 10 0 6 -4 10 -10 10 -5 0
-10 -4 -10 -10z"/>
<path d="M3500 25 c0 -14 5 -25 10 -25 6 0 10 11 10 25 0 14 -4 25 -10 25 -5
0 -10 -11 -10 -25z"/>
<path d="M13 3 c9 -2 23 -2 30 0 6 3 -1 5 -18 5 -17 0 -22 -2 -12 -5z"/>
</g>
</svg>
