<?xml version="1.0" encoding="UTF-8"?><svg id="Layer_2" xmlns="http://www.w3.org/2000/svg" xmlns:xlink="http://www.w3.org/1999/xlink" viewBox="0 0 150 150"><defs><style>.cls-1{fill:#764d3c;}.cls-2{fill:#f1b699;}.cls-3{fill:#32333c;}.cls-4{clip-path:url(#clippath);}.cls-5{fill:none;}.cls-6{fill:#ff5da2;}</style><clipPath id="clippath"><rect class="cls-5" width="150" height="150"/></clipPath></defs><g id="Layer_1-2"><g class="cls-4"><g><rect class="cls-5" width="150" height="150"/><g><polygon class="cls-6" points="38.16 175.98 41.4 166.92 46.48 157.66 52.01 149.18 59.05 140.55 66.18 133.77 68.3 133.41 69.21 133.8 73.3 135.91 80.71 129.32 86.4 133.77 93.53 142.69 98.22 150.25 89.94 156.15 86.4 150.25 81.32 143.75 79.98 143.55 79.4 146.03 79.02 148.69 79.13 152.19 79.35 153.67 64.61 158.8 64.22 150.68 61.6 151.63 54.26 162.26 38.16 175.98"/><polygon class="cls-2" points="70.39 133.14 69.64 118.68 76.69 118.68 78.41 131.58 74.51 136.33 70.39 133.14"/><path class="cls-2" d="M31.64,92.56c1.27,3.6,4.16,10.1,10.53,15.69,9.63,8.44,21.23,8.83,28.69,9.12,11.41,.45,20.41-2.5,26.08-4.35,5.37-1.76,9.71-3.75,12.83-5.34-.77-8.24-1.54-16.48-2.31-24.72l-5.7-8.61-6.11-3.21-12.23-.62-6.82-2.69-4.26-5.82-.99-7.19-1.54-7.3-2.25-5.49-1.87-2.38h-1.76l-2.8,3.94-1.66,8.29-5.29,11.9-4.15,9.76-6.22,9.02-8.5,6.74c-1.23,1.09-2.46,2.19-3.69,3.28Z"/><path class="cls-1" d="M-12.86,201.58c13.09-7,26.19-14.01,39.28-21.01l-8.36-9.99-.18-9.45,7.49-14.26,4.81-5.52,3.56-9.63,1.6-8.73-7.31-7.49-4.1-6.96,1.25-9.08,7.66-7.33,11.41-10.67,9.05-12.3,4.14-12.83,5.7-12.65,1.18-4.1,2.44,1.25,2.11,5.35,3.8,8.91,2.77,10.51,6.42,4.28,10.16,.96,6.77,.82,5.94,3.39,4.04,6.42,1.43,8.41,1.25,12.26,1.6,9.27s3.56,4.99,3.74,5.7c.18,.71,2.14,10.4,2.14,10.4l1.43,14.62,.89,13.5,4.46,9.78,8.67,2.98,26.43,3.76-4.8-3.71-7.13-6.15-7.31-16.63v-13.94l8.02-20.85-4.28-13.37-13.19-16.04-7.31-13.72-6.77-13.01-4.86-5.7-6.22-9.45-6.15-4.46-12.3-.59-11.17-2.73-8.02-5.58-5.23-2.14-14.44,5.52-9.5,13.49-18.53,41.17-5.47,7.6h-3.5L2.61,109.39l1.66,7.49,7.19,8.2-1.78,9.92L-6.95,167.78l-7.54,14.5-1.9,10.04c1.18,3.09,2.36,6.17,3.54,9.26Z"/><path class="cls-3" d="M41.02,108.54c-.06-.22-.11-.45-.18-.67-.24-.79-.36-1.57,.01-2.35,.36-.24,.79-.36,1.09-.69,.57-.15,1.04-.08,1.39,.5,.17,.29,.42,.26,.7,.04,.12-.09,.23-.21,.33-.32,.22-.23,.42-.08,.61,.04,.06,.04,.13,.1,.16,.16,.61,1.27,1.79,1.99,2.78,2.89,.37,.33,.75,.69,1.27,.78,.2,.03,.37,.15,.47,.32,.24,.41,.69,.47,1.07,.64,.3,.29,.56,.65,1.06,.55l.45,.2c.14,.37,.35,.68,.66,.94,.31,.25,.61,.41,1.02,.31,.16-.04,.25,.16,.33,.29,.17,.24,.38,.36,.68,.39,.46,.04,.88,.26,1.36,.26,.26,0,.61,.05,.77,.21,.58,.57,1.28,.62,2.02,.66,.11,0,.25,.03,.33,.1,.44,.38,.97,.39,1.52,.45,.69,.07,1.37,.25,2.04,.43,.49,.14,.97,.22,1.48,.26,.81,.06,1.63,.11,2.41,.37,.67,.23,1.37,.27,2.07,.29,1.47,.05,2.94,.09,4.42,.15,1.28,.05,2.56,.08,3.81-.25,.18-.05,.39-.04,.58-.03,.86,.08,1.7,.04,2.53-.23,.25-.08,.53-.09,.8-.13,1.45-.19,2.94-.13,4.37-.54,.29-.08,.62-.06,.92-.09,.66-.06,1.35-.07,1.92-.4,.46-.27,.93-.37,1.42-.48,1.17-.26,2.35-.49,3.53-.76,.57-.13,1.12-.3,1.68-.46,.48-.14,.97-.28,1.45-.43,.62-.2,1.3-.24,1.85-.66,.27-.01,.55,.02,.79-.16,.18,.07,.3,.01,.36-.17,1.54-.55,3.12-.95,4.64-1.56,.41,.09,.7,.25,.74,.75,.03,.47-.06,.82-.53,1.05-1.14,.56-2.16,1.38-3.45,1.62-.11,.02-.23,.07-.32,.13-.83,.62-1.84,.81-2.78,1.14-.84,.3-1.66,.66-2.52,.89-1.16,.32-2.32,.59-3.34,1.27-.4,.27-.9,.26-1.36,.18-.72-.13-1.37-.13-1.91,.49-.23,.27-.63,.3-.98,.3-.44,0-.83,.15-1.24,.26-1.46,.36-2.91,.81-4.44,.8-.04,0-.08-.01-.12,0-1.2,.34-2.46,.26-3.68,.44-.19,.03-.37,.1-.56,.16-.21-.08-.41-.13-.32,.22,.02,.42,.16,.68,.65,.55,.24-.06,.35,.09,.41,.29,.02,.07,.04,.15,.04,.23,.2,1.92,.4,3.85,.6,5.79-.42-.06-.2-.43-.38-.58-.06-.05-.12-.12-.18-.12-.06,0-.16,.07-.17,.12-.21,.89-.13,1.77,.16,2.63,.07,.22,.3,.26,.47,.13,.3-.22,.56-.4,.94-.14,.2,.14,.36-.01,.46-.19,.14-.23,.34-.28,.6-.25,.34,.05,.69,.14,1.04,.13,1.01-.04,1.8,.45,2.49,1.07,1.11,1.02,2.25,2.02,3.19,3.22,.14,.18,.33,.34,.43,.55,.33,.68,.86,1.19,1.35,1.74,.46,.52,.98,.99,1.28,1.64,.05,.1,.12,.21,.21,.27,.59,.42,.9,1.04,1.27,1.64,.4,.65,.76,1.32,1.39,1.82,.51,.41,.78,1.03,.99,1.68,.54,1.62,1.18,3.18,2.22,4.57,.52,.71,1.04,1.44,1.27,2.32-.08,.03-.36,.16-.38,.39,0,.08,.02,.15,.05,.19,.13,.24,.29,.46,.42,.7,.12,.23,.31,.44,.22,.74-.35,.04-.44-.28-.6-.46-.82-.99-1.56-2.04-2.43-2.98-.79-.85-1.43-1.82-2.32-2.6-.72-.63-1.26-1.47-1.89-2.21-1.31-1.53-2.53-3.15-3.95-4.59-.52-.53-.98-1.1-1.46-1.66-1.34-1.57-2.89-2.93-4.37-4.36-.19-.19-.41-.35-.64-.51-.24-.17-.48-.09-.53,.19-.21,1.07-.82,1.93-1.48,2.73-.49,.6-.98,1.21-1.51,1.77-.83,.87-1.79,1.58-2.9,2.09-.4,.18-.75,.14-1.11-.05-.66-.35-1.26-.77-1.77-1.31-.62-.65-1.2-1.32-1.8-1.98-.14-.15-.25-.31-.25-.51-.01-.64-.24-1.31,.32-1.88,.29-.29,.26-.71,.2-1.11-.15-1-.31-2-.42-3-.14-1.27-.23-2.55-.35-3.83-.05-.5-.08-1.01-.18-1.5-.18-.88-.28-1.77-.15-2.66,.1-.71-.22-.82-.73-.94-.04,0-.08-.02-.11-.02-2.29-.1-4.55-.49-6.8-.88-1.18-.2-2.35-.52-3.52-.78-.72-.16-1.43-.35-2.16-.46-.74-.11-1.42-.41-2.1-.67-2.66-.99-5.26-2.11-7.7-3.58-1.06-.64-2.1-1.32-3.01-2.18-.17-.16-.37-.28-.55-.43-.2-.31-.41-.63-.61-.94-.04-.18-.12-.33-.29-.41Zm34.1,10.24c-.16,.02-.32,.05-.47,.07-1.16,.15-2.31,.26-3.48,.28-.79,.01-.95,.24-.82,1.02,.05,.31,.12,.61,.16,.92,.14,1,.33,2,.38,3,.09,1.63,.1,3.26,.12,4.9,0,.47,0,.93,.16,1.38,.16,.45,.23,.89,.04,1.36-.08,.2,.03,.38,.23,.47,.28,.14,.55,.35,.84,.39,.46,.06,.79,.29,1.1,.59,.17,.16,.35,.31,.54,.44,.33,.23,.56,.24,.84-.03,.62-.59,1.25-1.17,1.81-1.82,.33-.37,.57-.84,.46-1.39-.12-.65-.2-1.31-.37-1.95-.51-1.96-.77-3.97-1.11-5.96-.1-.57-.09-1.16-.13-1.74-.02-.28,.04-.54,.17-.79,.09-.17,.2-.34,.27-.51,.09-.22-.05-.48-.29-.54-.15-.04-.3-.06-.45-.09Z"/><path class="cls-3" d="M38.16,175.98c-.34-.85-.19-1.67,.16-2.48,.32-.75,.48-1.55,.69-2.34,.38-1.43,.98-2.78,1.54-4.15,.41-1,.86-1.99,1.28-2.99,.33-.8,.47-1.72,1.15-2.37,.13-.13,.22-.34,.25-.52,.13-.87,.71-1.54,1-2.33,.08-.22,.19-.42,.38-.58,.09-.07,.2-.15,.24-.25,.28-.86,.94-1.5,1.32-2.28,.69-1.44,1.55-2.76,2.5-4.03,.3-.4,.54-.86,.83-1.27,1.15-1.61,2.28-3.24,3.47-4.82,.98-1.3,2.02-2.56,3.04-3.83,.15-.18,.3-.36,.44-.55,.49-.7,1.01-1.36,1.64-1.95,.68-.63,1.24-1.39,1.84-2.1,1.21-1.43,2.68-2.58,4.09-3.78,.33-.28,.71-.53,1.12-.6,.77-.13,1.41-.66,2.22-.66,.17,0,.33-.18,.5-.27,.36-.19,.47-.14,.63,.18,.26,.52,.2,.99-.18,1.4-.52,.57-1.05,1.15-1.63,1.66-1.53,1.32-3.02,2.68-4.41,4.14-.77,.81-1.64,1.54-2.21,2.52-.02,.03-.05,.07-.08,.09-1.12,.76-1.75,1.96-2.6,2.95-.64,.75-1.36,1.48-1.76,2.43-.06,.14-.18,.25-.28,.36-.99,1.08-1.79,2.32-2.73,3.44-1.37,1.65-2.51,3.45-3.76,5.17-.86,1.19-1.56,2.5-2.33,3.75-.63,1.03-1.19,2.09-1.69,3.18-.06,.14-.14,.28-.24,.4-.4,.48-.61,1.07-.92,1.59-.32,.54-.54,1.11-.81,1.67-.23,.49-.45,1-.74,1.45-.36,.56-.67,1.15-.89,1.77-.32,.88-.65,1.74-1.21,2.49-.09,.12-.15,.28-.16,.43-.06,.72-.49,1.3-.72,1.96-.09,.27-.27,.46-.49,.63-.18,.13-.32,.33-.49,.5Z"/><path class="cls-3" d="M66.32,150.49c.25,1.56,.39,3.13,.44,4.71,.01,.31-.07,.62-.12,.92-.04,.24-.16,.45-.41,.52-.42,.12-.52,.44-.53,.8-.03,.73-.48,1.1-1.09,1.36-.5,.21-.96,.03-1.12-.49-.2-.67-.37-1.34-.31-2.06,.07-.93,.11-1.86,.12-2.79,0-.32,.13-.79-.3-.91-.33-.09-.53,.27-.7,.52-.4,.62-.97,1.11-1.4,1.71-1.45,2.01-3.22,3.77-4.73,5.74-.47,.61-1.06,1.12-1.6,1.67-.09,.09-.2,.11-.32,.05-.12-.06-.13-.18-.11-.3,.03-.19,.19-.38,.07-.56-.33-.48-.12-.9,.12-1.3,.56-.93,1.1-1.87,1.72-2.76,.75-1.08,1.65-2.06,2.36-3.16,.68-1.05,1.56-1.92,2.27-2.93,.35-.5,.87-.6,1.33-.87,.45-.27,.78-.78,1.42-.66,.24,.04,.43-.11,.6-.29,.13-.14,.27-.27,.43-.38,.21-.15,.46-.08,.57,.18,.17,.39,.31,.79,.47,1.19,.15,.37,.19,.37,.68,.09,.03-.02,.07,0,.14,0Z"/><path class="cls-3" d="M79.98,143.55c.28-.41,0-1.1,.49-1.35,.56-.28,1,.26,1.43,.55,.35,.23,.66,.54,.93,.87,1.3,1.54,2.56,3.1,3.73,4.75,.67,.95,1.35,1.9,1.82,2.97,.53,1.21,1.13,2.37,1.75,3.53,.19,.35,.09,1.03-.19,1.29-.12,.11-.29,.1-.44,.04-.36-.16-.62-.45-.86-.76-.59-.77-1.17-1.54-1.77-2.3-2.01-2.56-4.03-5.11-6.05-7.66-.32-.4-.54-.85-.73-1.32-.07-.17-.08-.37-.12-.6Z"/><path class="cls-3" d="M80.71,146.95c-.05,.26-.08,.54-.17,.79-.53,1.52-.79,3.08-.85,4.68-.01,.31-.06,.62-.1,.93-.02,.15-.05,.33-.25,.32-.17-.01-.26-.18-.29-.32-.06-.26-.1-.53-.14-.8-.06-.42-.11-.84-.29-1.24-.21-.47-.25-.97-.19-1.48,.12-1,.12-2.02,.54-2.96,.13-.28,.26-.57,.42-.83,.15-.24,.37-.41,.68-.36,.27,.04,.38,.26,.45,.48,.08,.26,.12,.53,.19,.8Z"/><path class="cls-3" d="M144.95,93.96c.06,.14,.12,.29,.2,.42,.17,.3,.33,.62,.54,.9,1.04,1.41,1.76,3.01,2.64,4.51,.66,1.12,1.12,2.32,1.55,3.51,.48,1.3,.88,2.65,1.05,4.05l.17,.51c.31,1.2,.24,2.44,.24,3.66,0,.72-.17,1.44-.26,2.16l-.27,1.46c-.14,.53-.28,1.05-.43,1.58l-.11,.5c-.12,.38-.24,.76-.36,1.14-.13,.4-.25,.8-.38,1.2-.22,.56-.43,1.13-.65,1.69-.14,.26-.28,.51-.42,.77-.3,.79-.6,1.59-.9,2.38l-.21,.47-.22,.47-.23,.47c-.2,.51-.39,1.01-.59,1.52-.93,2-1.51,3.76-1.87,5.09-.33,1.22-.63,2.46-.72,4-.05,.82-.09,1.63,.06,2.44,.08,.46,.15,.93,.14,1.39,0,1.33,.21,2.62,.54,3.9,.32,1.24,.52,2.51,.93,3.73,.09,.26,.18,.5,.31,.74,.38,.68,.71,1.38,.73,2.19,0,.12,0,.25,.06,.34,.52,.75,.57,1.69,1.05,2.45,.32,.5,.41,1.09,.59,1.64,.17,.53,.74,.8,.91,1.34,.19,.59,.51,1.13,.76,1.7,.43,.96,1,1.85,1.54,2.73,.69,1.12,1.4,2.24,2.38,3.14,.17,.16,.29,.36,.43,.55,.69,1.01,1.52,1.85,2.59,2.46,.77,.44,1.51,.95,2.26,1.44,.42,.28,.85,.54,1.34,.69,.49,.14,.96,.31,1.18,.86,.07,.16,.26,.28,.42,.4,.25,.2,.27,.44,.21,.73-.19,.96-.37,1.09-1.36,.87-.91-.2-1.82-.38-2.75-.46-.12-.01-.24,0-.34-.06-.89-.47-1.78-.94-2.66-1.41-.27-.54-.99-.44-1.31-.92-1.12-.54-1.88-1.57-2.98-2.17-.59-.32-1.16-.78-1.48-1.45-.1-.2-.28-.36-.45-.52-.58-.54-.9-1.26-1.3-1.92-.18-.3-.3-.6-.58-.83-.2-.17-.38-.4-.49-.64-.26-.57-.59-1.09-1-1.56-.13-.14-.22-.32-.29-.5-.3-.76-.71-1.47-1.12-2.18-.29-.51-.56-1.02-.61-1.62-.01-.15-.06-.31-.14-.43-.54-.82-.85-1.74-1.23-2.63-.12-.28-.27-.56-.41-.84-.13-.28-.31-.55-.38-.84-.23-.86-.42-1.73-.63-2.6-.1-.41-.13-.87-.33-1.23-.54-.96-.57-2-.62-3.04-.02-.47-.06-.91-.27-1.36-.31-.68-.29-1.44-.28-2.18,0-.35,.02-.71-.32-.94-.02-.31-.05-.63-.07-.94-.01-.49-.01-1,0-1.53,.01-.44,.03-.86,.06-1.27-.02-.32-.05-.63-.07-.95,.09-.31,.18-.62,.27-.94,.23-.69,.45-1.37,.68-2.06-.04-1.11,.36-2.12,.7-3.15,.04-.11,.06-.25,.14-.31,.66-.51,.84-1.27,1.09-2.01,.12-.36,.35-.69,.5-1.05,.77-1.86,1.52-3.72,2.28-5.58,.28-.68,.52-1.38,.83-2.04,.39-.85,.6-1.75,.81-2.65,.26-1.13,.55-2.26,.64-3.43,.11-1.31,.07-2.63-.14-3.93-.2-1.26-.52-2.5-.94-3.72-.27-.8-.51-1.59-.87-2.37-1.17-2.5-2.53-4.89-4.13-7.13-1.12-1.57-2.21-3.18-3.65-4.51-.45-.42-.76-.99-1.22-1.4-1.02-.9-1.85-1.98-2.78-2.96-.88-.93-1.52-2.05-2.18-3.15-.56-.93-1.03-1.91-1.42-2.93-.4-1.06-1.02-2.01-1.63-2.95-.86-1.33-1.71-2.67-2.54-4.03-.78-1.29-1.48-2.64-2.28-3.91-1.02-1.61-1.82-3.34-2.84-4.94-.29-.45-.46-.98-.71-1.46-1.17-2.27-2.36-4.54-3.53-6.82-1.03-2-2.04-4.01-3.06-6.01-.27-.15-.32-.42-.39-.68-.06-.26-.06-.57-.2-.77-.75-1.06-1.18-2.33-2.13-3.26-.14-.14-.23-.3-.26-.5-.4-.53-.87-.99-1.4-1.39l-.14-.13c-.59-.67-1.03-1.5-1.83-1.93-.96-.52-1.76-1.24-2.61-1.9-1.07-.85-2.3-1.46-3.55-1.98-1.62-.67-3.33-1.08-5.09-1.12-.67-.01-1.37,.07-2.06,.09-1.24,.04-2.49,.26-3.71,.14-1.2-.12-2.39,0-3.58-.05-1.34-.05-2.59-.47-3.87-.8-.83-.22-1.65-.44-2.46-.72-.69-.24-1.36-.55-2.03-.84-1.14-.49-2.23-1.07-3.31-1.69-1.9-1.08-3.57-2.47-5.23-3.87-.86-.73-1.71-1.46-2.76-1.92-.48-.21-.96-.35-1.46-.29-1.19,.13-2.41,.24-3.55,.6-1.18,.37-2.35,.8-3.46,1.37-.21,.11-.41,.23-.62,.33-.8,.39-1.58,.8-2.21,1.47-.31,.33-.74,.55-1.12,.82-.19,.14-.39,.26-.57,.41-2.15,1.89-4.49,3.59-6.28,5.87-.26,.33-.61,.6-.9,.91-.53,.57-1.05,1.14-1.33,1.89-.1,.25-.27,.47-.42,.7-.58,.87-1.17,1.73-1.75,2.6-.09,.13-.17,.26-.23,.4-.72,1.58-1.4,3.19-2.18,4.74-.47,.93-.71,1.96-1.31,2.84-.23,.34-.26,.81-.43,1.2-1.13,2.64-2.09,5.35-3.27,7.97-.36,.81-.64,1.66-.94,2.5-.96,2.71-2.27,5.27-3.31,7.95-.74,1.15-1.1,2.47-1.7,3.69-.14,.28-.24,.57-.34,.86-.15,.44-.31,.87-.58,1.26-.2,.28-.33,.61-.48,.93-.51,1.09-.99,2.18-1.52,3.26-.22,.45-.5,.88-.79,1.29-.81,1.15-1.48,2.37-1.98,3.68-.34,.88-.89,1.63-1.39,2.42-.3-.05-.42,.08-.38,.38-.33,.27-.59,.58-.65,1.02-.22,.06-.31,.19-.25,.42-.72,.49-1.12,1.27-1.67,1.91-.82,.94-1.7,1.79-2.65,2.58-.1-.04-.18,0-.22,.09-.4,.16-.88,0-1.25,.3-.5,.09-1.06-.22-1.48,.09-.46,.33-.85,.8-1.2,1.25-.45,.58-.87,1.19-1.25,1.83-.69,1.17-1.35,2.36-1.95,3.58-1.39,2.84-2.44,5.79-3.25,8.84-.18,.67-.28,1.37-.33,2.07-.09,1.26,.32,2.39,1.17,3.32,.76,.83,1.57,1.62,2.36,2.41,.13,.14,.3,.24,.47,.34,1.09,.64,1.97,1.51,2.73,2.51,.53,.71,1.11,1.39,1.28,2.3,.03,.15,.1,.3,.19,.42,.63,.92,.63,1.96,.64,3.01,.02,2.25-.54,4.38-1.28,6.47-.4,1.13-.75,2.29-1.14,3.42-.19,.55-.42,1.09-.68,1.61-.89,1.81-1.71,3.66-2.72,5.4-.87,1.51-1.62,3.09-2.63,4.52-.53,.74-.87,1.63-1.3,2.44-.26,.48-.54,.94-.8,1.42-.77,1.39-1.58,2.76-2.3,4.17-.32,.62-.9,1.08-1.06,1.79-1.1,1.61-1.68,3.5-2.85,5.08-.27,.37-.42,.83-.65,1.24-.55,1.02-.9,2.16-1.65,3.07-.8,2.07-2.05,3.91-2.94,5.94-.76,1.74-1.59,3.45-2.37,5.18-.95,2.08-1.93,4.17-2.62,6.35-.8,2.52-1.53,5.07-1.45,7.76,.05,1.75,.07,3.51,.67,5.18,.25,.7,.43,1.41,.53,2.14,.07,.5,.11,1,.15,1.5,0,.06-.07,.15-.13,.17-.06,.02-.17,0-.21-.04-.1-.12-.18-.25-.25-.39-.35-.59-.8-1.06-1.51-1.16-.34-.05-.53-.29-.77-.48-.66-.51-1.12-1.12-1.46-1.91-.32-.75-.67-1.46-.77-2.29-.11-.88-.35-1.75-.53-2.62-.08-.38-.17-.76,.13-1.1,.2-.23,.14-.52,.05-.78-.19-.54-.15-1.07,0-1.6,.15-.53,.13-1.08,.13-1.62,0-.64,.1-1.23,.49-1.76,.32-.44,.49-.92,.43-1.51-.07-.67,.21-1.31,.69-1.8,.3-.3,.42-.6,.42-1.03,0-.38,.1-.78,.26-1.12,.32-.71,.54-1.45,.77-2.2,.2-.67,.4-1.34,.87-1.89,.1-.11,.17-.27,.21-.41,.16-.6,.36-1.14,.8-1.64,.36-.42,.49-1.04,.69-1.59,.31-.87,.81-1.67,.98-2.6,.08-.45,.46-.79,.67-1.21,.53-1.07,1.17-2.09,1.76-3.14,.04-.07,.1-.13,.11-.2,.1-.92,.78-1.57,1.13-2.38,.35-.82,.78-1.6,1.25-2.37,.4-.66,.67-1.4,1.03-2.08,.7-1.33,1.26-2.75,2.27-3.91,.39-.94,.94-1.78,1.43-2.66,.66-1.18,1.31-2.38,1.97-3.56,1.24-2.19,2.5-4.38,3.68-6.6,.49-.92,.84-1.91,1.34-2.84,.98-1.85,1.72-3.81,2.45-5.78,.54-1.46,.99-2.96,1.11-4.49,.14-1.78,.03-3.58-.93-5.19-.16-.26-.33-.54-.55-.74-.9-.85-1.83-1.68-2.74-2.51-.77-.7-1.54-1.41-2.33-2.09-1.55-1.35-2.15-3.08-2.15-5.08,0-1.53,.35-3,.83-4.44,.07-.22,.21-.41,.32-.62,.09-.17,.24-.34,.26-.52,.14-1.34,.98-2.43,1.29-3.71,.04-.19,.12-.37,.17-.55,.06-.18,.06-.41,.17-.55,.47-.62,.68-1.35,.97-2.05,.3-.7,.57-1.43,.95-2.1,.66-1.15,1.28-2.31,1.92-3.47,.07-.14,.16-.26,.26-.39,1.51-1.94,3.22-3.68,5.25-5.08,.42-.29,.97-.33,1.29-.77,.38,0,.75-.01,1.13-.02q.57,.2,.8-.39c.45-.19,.71-.59,.97-.97,.41-.6,.79-1.23,1.18-1.85,.06-.04,.16-.06,.19-.12,.51-.97,1.23-1.82,1.63-2.84l.03-.04c.41-.4,.76-.84,.92-1.41l.17-.5c.17-.1,.24-.26,.27-.44,.27-.17,.42-.42,.47-.73,.14-.13,.18-.3,.17-.48,.29-.27,.48-.61,.66-.95,.45-.86,.89-1.72,1.56-2.44,.17-.18,.23-.39,.32-.61,.29-.76,.49-1.55,1.04-2.19,.24-1.04,1.04-1.79,1.44-2.76,.77-1.86,1.79-3.61,2.46-5.53,.3-.88,.74-1.71,1.09-2.57,.62-1.51,1.28-3,1.78-4.56,.16-.52,.37-1.01,.59-1.51,.7-1.59,1.43-3.18,2.01-4.83,.4-1.13,.83-2.25,1.24-3.38,.2-.55,.37-1.1,.48-1.68,.15-.76,.52-1.46,.86-2.15,.24-.49,.55-.96,.68-1.48,.34-1.35,1.05-2.53,1.82-3.62,.78-1.1,1.4-2.3,2.28-3.35,.7-.82,1.36-1.69,2.08-2.5,.64-.73,1.28-1.45,2.15-1.93,.1-.05,.2-.14,.25-.24,.32-.61,.84-1,1.41-1.35,.19-.12,.35-.31,.52-.47,.63-.58,1.24-1.17,2.04-1.53,.17-.08,.32-.21,.47-.33,.12-.1,.23-.21,.35-.3,.09-.07,.2-.12,.3-.17,1.43-.61,2.6-1.69,4.09-2.2,1.25-.43,2.46-.97,3.73-1.32,.85-.23,1.76-.26,2.65-.31,.81-.05,1.63-.06,2.44,0,1,.09,2.01,.17,2.98,.46,.84,.3,1.74,.67,2.67,1.11,.46,.22,.9,.45,1.31,.67,.27,.16,.68,.42,1.14,.8,.32,.27,.46,.42,.82,.74,.26,.24,.61,.53,1.15,.91,.6,.42,1.46,.95,2.58,1.47,1.09,.6,2.18,1.19,3.28,1.79,.86,.31,1.72,.63,2.57,.94,1.19,.28,2.38,.56,3.58,.83,.22,.07,.44,.05,.65-.03l6.12,.04,.97,.07c1.33-.02,3.92,0,5.74,.65,.16,.05,.74,.12,1.3,.49,.76,.5,1.57,.81,2.43,1.06,.72,.2,1.29,.66,1.91,1.07,1.33,.9,2.38,2.08,3.49,3.2,.1,.1,.16,.25,.29,.46-.52,.13-1.06-.3-1.45,.17,.19,.39,.39,.78,.58,1.17,.07,.12,.14,.25,.22,.38,.17,.27,.35,.51,.52,.72,.19,.22,.38,.44,.58,.66,.03,.02,.08,.08,.11,.17,.01,.05,.02,.09,.02,.12,0,.31,.04,.62,.25,.88,.78,.45,1.1,1.26,1.49,1.99,.29,.54,.54,1.08,.99,1.51,.07,.07,.09,.2,.13,.31,.36,.47,.72,.94,1.09,1.41,.16,.22,.33,.44,.49,.66v.02c.32,.32,.62,.63,.92,.95l.24,.23c.82,.36,2,1,3.11,2.13,.64,.66,1,1.22,1.51,2.01,1.81,2.86,2.72,4.3,3.3,5.37,1.23,2.29,.93,2.11,2.5,5.19,.64,1.25,1.34,2.52,2.75,5.05,1.43,2.55,1.91,3.33,2.73,4.27,.59,.68,.96,.74,1.27,1.47,.52,1.25,1.07,2.5,1.65,3.72,.65,1.37,1.39,2.68,2.47,3.78,.38,.39,.7,.83,1,1.28,.86,1.26,2.01,2.26,3.02,3.39,.44,.5,.92,.94,1.54,1.2,.3,.13,.55,.32,.61,.65,.05,.31,.23,.49,.5,.58"/><path class="cls-3" d="M60.6,105.54c-1.07-.8-1.31-1.87-.97-3.11,.1-.36,.29-.59,.66-.73,1.45-.56,2.91-1.05,4.43-1.37,2.78-.58,5.46-1.51,8.03-2.74,1.01-.48,2.02-.97,3.03-1.45,.32-.15,.63-.3,.96-.42,.27-.1,.56-.12,.71,.18,.21,.43,.98,.51,.76,1.18-.12,.37-.26,.73-.28,1.12,0,.07-.04,.18-.09,.2-.69,.34-.81,1.11-1.26,1.63-.17,.2-.37,.39-.59,.55-.6,.43-1.21,.84-1.82,1.26-.63,.18-1.21,.43-1.69,.93-.26,.27-.62,.48-.97,.63-1.14,.48-2.28,.98-3.46,1.35-1.32,.42-2.69,.72-4.03,1.08-.57,.15-1.14,.16-1.72,.01-.56-.14-1.12-.3-1.71-.3Z"/><path class="cls-3" d="M59.41,84.37c-.09-1.7,.35-3.47,.93-5.21,.02-.07,.03-.15,.06-.22,.45-1.07,1.15-1.3,2.19-.66,.24,.15,.4,.16,.61-.02,.21-.17,.42-.34,.65-.49,.22-.14,.49,.02,.49,.28-.01,.81-.04,1.63-.07,2.44-.05,1.7-.23,3.4-.13,5.11,.06,1.04-.04,2.09-.1,3.14-.01,.27-.13,.53-.2,.79-.04,.16-.13,.28-.31,.3-.43,.04-.97,.12-1.23-.17-.43-.5-.76-.34-1.19-.1-.26,.15-.52,.09-.72-.16-.46-.54-.75-1.11-.8-1.87-.07-1-.2-2-.18-3.16Z"/><path class="cls-3" d="M71.31,78.36c0-.11-.01-.14-.02-.18-.03-.43-.16-.94,.17-1.23,.49-.44,1.11-.71,1.79-.77,.2-.02,.34,.14,.48,.28,.45,.45,.46,.44,.97,0,.06-.05,.11-.11,.18-.15,.11-.08,.23-.04,.31,.04,.3,.32,.47,.7,.56,1.13,.08,.38,.13,.78,.27,1.13,.56,1.38,.21,2.74,.01,4.11-.05,.35-.23,.56-.6,.59-.15,.01-.32,.03-.45,.09-.3,.15-.56,.09-.71-.17-.25-.41-.57-.49-.99-.33-.68,.27-1.06-.14-1.43-.84-.16-.3-.25-.67-.27-1.01-.04-.93-.32-1.84-.27-2.71Z"/><path class="cls-3" d="M77.18,119.12c-.09-.36,.11-.3,.32-.22-.11,.07-.22,.15-.32,.22Z"/><path class="cls-3" d="M77.85,135.47s-.07-.06-.05-.1c.25-.34,.48-.71,.81-.98,.13-.1,.16-.35,.41-.28,.03,.2-.13,.33-.22,.48-.21,.38-.57,.61-.9,.88-.01,0-.04,0-.06,0Z"/><path class="cls-3" d="M29.98,135.02c2.62-4.14,4.78-10.28,.68-14.21-1.7-1.31-6.68-4.58-7.9-6.35-3.26-6.2-1.39-14.79,3.26-19.59,.26-.11,.52-.22,.53-.55,9.84-6.86,19.59-15.18,24.63-26.38,3.52-7.59,6.05-15.78,9.37-23.56,1.4-2.57,1.78-5.85,3.85-7.93,.27,.53,.73,1.01,.86,1.58,.05,.22,.21,.38,.41,.32,1.41-.52,1.78,1.36,3.06,1.21,2.7,.56,3.15,5.29,4.07,7.56,2.15,7.42,1.76,19.02,11.3,20.74,4.74,.92,9.68-.13,14.3,1.44,17.64,5.46,12.53,25.9,16.27,39.95,.05,.46,.23,.9,.34,1.35,.12,.41,.67,.17,.81,.55,.15,.47,.49,.76,.92,.95,1.36,.45,1.77,1.82,2.63,2.74,1.47,3.53,2.27,7.32,3.05,10.97l.02,.45c.17,4.93,1.03,9.98,.84,14.96-.59,7.38-.47,16.44,4.74,22.21,1.81,1.84,5.99,1.97,6.33,4.95-2.69,1.17-6.06,.27-8.51-1.15-8.07-3.7-8.44-13.86-8.78-21.59,.31-9.23,.22-18.96-2.48-27.82-1.63-1.88-2.2-4.17-3.6-6.02-5.84-11.99,2.67-36.47-15.31-39.04-30.66,2.08-20.29-11.56-30.08-30.67-2.3,6.7-4.53,13.78-7.55,20.36-1.34,1.7-.98,4.16-2.5,5.8-.6,1.05-.58,2.31-1.43,3.27-.45,.6-.57,1.54-1.13,2.1-.51,.39-.93,.82-.92,1.52-1.5,2.57-3.43,4.89-5.19,7.28-.4-.3-1.56,2.74-5.25,5.97-3.01,2.65-7.25,4.93-10.85,8.7-4.48,4.98-6.54,13.65,.36,18.16,26.11,16.35-26.04,41.08-5.48,61.74,.24,1.18,1.82,1.89,1.81,2.98-.44,1.07-1.63,.29-2.41,.55-.36,.21-.66,.12-.97-.1-.72-.45-1.49-1.12-2.21-1.48-.72,.13-1.09-.36-1.42-.81-2.97-3.77-5.43-7.89-5.82-12.76-.11-.55-.24-.65-.8-.54-.88,.17-2.95-.2-2.64-1.34,.36-.56,.75-1.12,1.4-1.35,.94-.81,1.97-1.93,3.83-3.95,2.01-2.28,3.22-6,4.91-9.47,1.8-3.83,6.07-9.65,8.64-13.72Z"/></g></g></g></g></svg>