<svg xmlns="http://www.w3.org/2000/svg" viewBox="0 0 150 150"><defs><style>.cls-1,.cls-7{fill:none;}.cls-2{fill:#ead94b;}.cls-3{fill:#77302f;}.cls-4{fill:#f1b699;}.cls-5{fill:#32333c;}.cls-6{fill:#98928d;}.cls-7{stroke:#98928d;stroke-linecap:round;stroke-linejoin:round;stroke-width:0;}</style></defs><g id="Layer_2" data-name="Layer 2"><g id="Layer_1-2" data-name="Layer 1"><path class="cls-1" d="M149.88,94.81c-.1.08-.19,0-.2-.13-3.56,3.87-10.32-.76-15.45,2.5-2.86,1.82-1.72,3.87-5.28,6.22s-5.31.58-8,2.59c-4.54,3.42-3.35,11.39-6.42,12.15,0,0,0,0-.06,0a.09.09,0,0,1-.07,0,1.79,1.79,0,0,1-.61,0c-.3,0-.37-.13-.35-.85,0,0,0,0,0-.06-.18,0-.35.14-.5-.13a5.45,5.45,0,0,0-1-1c-.33,0-.38-.28-.43-.54a1.07,1.07,0,0,0-.14-.35,1.71,1.71,0,0,1-.42-1.12.27.27,0,0,0-.22-.27.42.42,0,0,1-.33-.37,8.42,8.42,0,0,0-.72-1.82c-.23-.48-.36-1-.55-1.5a16.21,16.21,0,0,1-.62-2.27c-.65.31-1.34.62-2.06.94a9.27,9.27,0,0,1-1.54.93c-.09,0-.16.12-.27.1s-.22,0-.24.14c-.08.34-.38.43-.64.59a12.94,12.94,0,0,1-1.63.8,3.3,3.3,0,0,0-.65.39,4.18,4.18,0,0,1-1.66.73,3,3,0,0,0-1,.44,2,2,0,0,1-.69.28,4.12,4.12,0,0,0-1.07.37.83.83,0,0,1-.36.13,3.83,3.83,0,0,0-1.31.4,9,9,0,0,1-2.34.65,1.13,1.13,0,0,0-.43.13c-.49.26-1,.47-1.5.74a9.49,9.49,0,0,1-1.58.54.63.63,0,0,1-.57-.15.69.69,0,0,0-1,.1,2.07,2.07,0,0,1-1.45.57,3.16,3.16,0,0,0-1,.2,4.67,4.67,0,0,1-1.19.25,9.31,9.31,0,0,0-1.26.24,7.15,7.15,0,0,1-2.34.27.91.91,0,0,0-.23,0,18.31,18.31,0,0,1-2.87.23,7.65,7.65,0,0,0-1,.17.24.24,0,0,0-.17.23.3.3,0,0,0,.21.29.37.37,0,0,0,.15,0c.56.06.57.06.62.63.09,1.11.18,2.23.28,3.34,0,.66.12,1.32.17,2a3.39,3.39,0,0,1,0,.45c0,.29-.08.32-.43.23-.19-.05-.31,0-.34.18a2,2,0,0,0,0,.6,6.32,6.32,0,0,1,.15,1.05.23.23,0,0,0,.39.17,1.45,1.45,0,0,0,.21-.22.51.51,0,0,1,.74-.14.27.27,0,0,0,.4-.07.64.64,0,0,1,.86-.23,3.5,3.5,0,0,0,1.29.12.86.86,0,0,1,.52.08,7.16,7.16,0,0,1,1.79,1.26c.41.45.86.86,1.3,1.28a4.21,4.21,0,0,1,.68.72,13.25,13.25,0,0,1,1.37,1.72,7.16,7.16,0,0,0,.81,1.07,5.23,5.23,0,0,0,.86,1,1.75,1.75,0,0,1,.53.82,1,1,0,0,0,.59.67.91.91,0,0,1,.4.44,5.33,5.33,0,0,0,.79,1.28,1.26,1.26,0,0,1,.26.84,1.51,1.51,0,0,1,.68.44,9.41,9.41,0,0,1,.83,1.35c.11.19,0,.41.11.59a2,2,0,0,1,.2,1.26.22.22,0,0,0,0,.14,15,15,0,0,0,.83,1.45,11,11,0,0,1,1.55,2.25.29.29,0,0,1,0,.4,2.18,2.18,0,0,0-.25.28.31.31,0,0,0,.1.46.49.49,0,0,1,.27.42,1.07,1.07,0,0,0,.29.53,3.11,3.11,0,0,1,.53.92c0,.07.06.15,0,.2a.15.15,0,0,1-.18,0h-.25A4.18,4.18,0,0,0,93,150h57V94.74Z"/><path class="cls-1" d="M101.51,33.13a.62.62,0,0,1,.12.19,1.88,1.88,0,0,0,.59.78,1.88,1.88,0,0,1-.59-.78A.62.62,0,0,0,101.51,33.13Z"/><path class="cls-1" d="M128.93,73.45a.13.13,0,0,1-.1,0A.13.13,0,0,0,128.93,73.45Z"/><path class="cls-1" d="M48.33,148.93c.37-.55.73-1.1,1.12-1.63q1.21-1.67,2.46-3.3c.35-.47.73-.91,1.1-1.36a4.35,4.35,0,0,0,.33-.42,11.88,11.88,0,0,1,1-1.23c.63-.69,1.19-1.45,1.77-2.19a4.48,4.48,0,0,1,1-1.05,2.16,2.16,0,0,0,.37-.37l1.59-1.75c.1-.11.19-.23.28-.35a1.76,1.76,0,0,1,.24-.3c1-.85,1.93-1.72,2.93-2.53a5,5,0,0,1,1.25-.86,4.14,4.14,0,0,1,.8-.25,2.58,2.58,0,0,0,.58-.18,2.05,2.05,0,0,1,1.21-.36c.18,0,.32-.13.46-.24a.69.69,0,0,1,.42-.17.3.3,0,0,1,.31.26c0,.12,0,.25,0,.37a.34.34,0,0,0,.51.11,3.32,3.32,0,0,0,.38-.37,1,1,0,0,0,.25-1,9.31,9.31,0,0,0-.29-1.56c0-.11,0-.25,0-.38-.05-.48-.09-1-.14-1.44a4.73,4.73,0,0,1-.07-.83c0-.72-.1-1.42-.13-2.13,0-.23,0-.46,0-.68a3.62,3.62,0,0,0-.09-1,9.48,9.48,0,0,1-.24-2.19,7.73,7.73,0,0,1,.11-1c0-.3,0-.44-.33-.52a1.73,1.73,0,0,0-.59-.09,6.82,6.82,0,0,1-2-.23c-1-.22-2.06-.26-3.08-.47a21.44,21.44,0,0,1-2.75-.62,1,1,0,0,0-.37-.09A10.41,10.41,0,0,1,56.1,116q-.37-.09-.75-.15a16,16,0,0,1-3.09-1c-1.35-.47-2.61-1.15-3.91-1.71-.54-.23-1-.54-1.55-.82s-.89-.5-1.32-.76-1.13-.69-1.65-1.09a11.26,11.26,0,0,1-1.48-1.2,6.68,6.68,0,0,1-.59-.69,5,5,0,0,1-1.14-2.62,1.69,1.69,0,0,1,.24-1.3,37.61,37.61,0,0,1-7.07-11,1,1,0,0,1-.15.14,20.71,20.71,0,0,0-2,1.82c-.78.69-1.52,1.42-2.24,2.18a.48.48,0,0,1-.11.09,7.84,7.84,0,0,0-1,.57c-.3.24-.46.62-.85.75a.27.27,0,0,0-.12.09c-.28.48-.79.6-1.24.83a1.65,1.65,0,0,1-.71.23.77.77,0,0,0-.3.06,4.5,4.5,0,0,1-1.86.15.3.3,0,0,1-.36-.3,1.24,1.24,0,0,0-.52-.73c-.11-.1-.25-.17-.36-.27a.72.72,0,0,1-.16-.28c-1.11-1.1.68-3.36-.22-4.81s-3.9-1.17-6.09-1a2,2,0,0,0-.39.14,1,1,0,0,1-.81.07,1.16,1.16,0,0,0-.82,0,1.19,1.19,0,0,1-.89,0,1.44,1.44,0,0,0-.52-.14,1.1,1.1,0,0,1-.81-.48A1.29,1.29,0,0,1,11,91.51a.87.87,0,0,1,.51-.63c.42-.24.84-.48,1.25-.73a9.69,9.69,0,0,0,2.8-2.65,2.24,2.24,0,0,1,.49-.57,2.21,2.21,0,0,0,.55-.63l1.27-1.89a2.5,2.5,0,0,0,.41-.73.7.7,0,0,1,.14-.27c.72-1,1.26-2.08,2-3.07a2,2,0,0,0,.32-.6,2.34,2.34,0,0,1,.52-.92.94.94,0,0,0,.24-.39A3.33,3.33,0,0,1,22,77.29a9.51,9.51,0,0,0,.87-1.6,2.22,2.22,0,0,1,.53-.83,3.25,3.25,0,0,0,.9-1.47A12.29,12.29,0,0,1,24.9,72a.63.63,0,0,1,.16-.26,1,1,0,0,0,.34-.65,1.25,1.25,0,0,1,.43-.78,1.78,1.78,0,0,0,.42-.72c.15-.34.32-.69.49-1s.23-.4.32-.61c.3-.72.59-1.45,1-2.15a22.77,22.77,0,0,0,1-2.4c.45-1.18,1-2.34,1.47-3.5a.91.91,0,0,0,.07-.14c.5-1.6,1.34-3.07,1.75-4.71A4.44,4.44,0,0,1,33,53.5a1.35,1.35,0,0,0,.19-.33c.44-1.37,1.23-2.62,1.55-4a.47.47,0,0,1,.06-.15A21.52,21.52,0,0,0,36,45.79,13,13,0,0,0,36.48,44a11.68,11.68,0,0,1,.79-2.06A14.06,14.06,0,0,1,38,40.4a5.25,5.25,0,0,0,.27-.79,11.83,11.83,0,0,1,1.28-2.34,3.29,3.29,0,0,0,.29-.52,1.23,1.23,0,0,1,.45-.6,1,1,0,0,0,.35-.4,6.91,6.91,0,0,1,1.57-2.32l.09-.12A29.63,29.63,0,0,1,46,29.14a1,1,0,0,1,.53-.27.7.7,0,0,0,.46-.38,3,3,0,0,1,1.29-1.25,1.92,1.92,0,0,0,.38-.25,8.27,8.27,0,0,1,2.5-1.84,1.05,1.05,0,0,0,.29-.23,2.33,2.33,0,0,1,1.17-.68,1.2,1.2,0,0,0,.54-.27,10,10,0,0,1,1.69-1,25.52,25.52,0,0,1,3.53-1.42c.62-.23,1.29-.27,1.9-.55a1.17,1.17,0,0,1,.38,0,4.84,4.84,0,0,0,.76,0,15.32,15.32,0,0,1,3-.06h.38a3.84,3.84,0,0,1,1.43.15,6.4,6.4,0,0,0,1,.19,3.4,3.4,0,0,1,1.1.26,11.18,11.18,0,0,1,1.53.6c.24.11.47.23.69.35a9.89,9.89,0,0,0,2.41,1.66l.52.24c.86.47,1.42,1.31,2.26,1.8.24.14.35.41.59.58a7,7,0,0,0,1.58.88,1.82,1.82,0,0,0,1.28.8l.15.09a2.45,2.45,0,0,0,1.37.7,1.61,1.61,0,0,0,.74.55.42.42,0,0,0,.49.22A.08.08,0,0,0,82,30h0a.6.6,0,0,0,.35.16,3.15,3.15,0,0,0,1.08.47c.24.08.47.29.76.23l.22.11a.51.51,0,0,0,.47.31c.53.07,1.07.12,1.6.18a1.36,1.36,0,0,0,.6.07,1,1,0,0,0,.57.19c.89,0,1.77.08,2.66.09h1.6a11.56,11.56,0,0,0,2.2,0,1.15,1.15,0,0,0,.61,0,.73.73,0,0,1,.52-.09A16.41,16.41,0,0,0,98,32l.3,0a24.44,24.44,0,0,1,3.24.83,6.83,6.83,0,0,1,1.36.66,2.29,2.29,0,0,0,.84.34,5.35,5.35,0,0,1,2.41,1.24,1.7,1.7,0,0,0,.5.34,1.93,1.93,0,0,1,1,.73A11.51,11.51,0,0,0,109,37.54c.44.43.79.93,1.22,1.36a.66.66,0,0,1,.15.34.16.16,0,0,1-.15.22c-.19,0-.4-.21-.57,0s0,.48,0,.72a2.51,2.51,0,0,0,.54,1.25A3.06,3.06,0,0,1,111,43a1.46,1.46,0,0,0,.21.48,1.08,1.08,0,0,1,.19.57h0a1.29,1.29,0,0,1,.67,1.23l.14.14a.58.58,0,0,1,.4.42,3.37,3.37,0,0,0,.88,1.32,4.61,4.61,0,0,1,.47.6c.38.57.76,1.14,1.15,1.7a2.88,2.88,0,0,0,.39.46c.38.38.75.76,1.15,1.12a1.2,1.2,0,0,0,1,.43.59.59,0,0,1,.53.24,4.46,4.46,0,0,1,.35.5,2.28,2.28,0,0,0,.73,1,1.14,1.14,0,0,1,.23.3,5.24,5.24,0,0,0,.69,1,.43.43,0,0,1,.11.42.53.53,0,0,0,.21.33.36.36,0,0,1,.28.4v0l0,0a.38.38,0,0,1,.3.21c.16.49.72.74.77,1.27a1.62,1.62,0,0,0,.49,1,.91.91,0,0,1,.29.75.48.48,0,0,0,.15.29.8.8,0,0,1,.54.49.38.38,0,0,1-.08.43.59.59,0,0,0,.2.44c.36.17.37.17.23.48l.08.29c.59.33.68.52.55,1.08a.83.83,0,0,0,.27.48c.51.19.53.23.41.87a.16.16,0,0,0,0,.19.52.52,0,0,1,.42.29,3.5,3.5,0,0,1,.29.62,16.29,16.29,0,0,0,1,2.23,8.82,8.82,0,0,0,.41,1.13c.2.32.46.6.67.92a7.31,7.31,0,0,1,.48,1.28,2.51,2.51,0,0,0,.42.7,3,3,0,0,1,.76,2.16.85.85,0,0,0,.08.52c.23.38.36.82.81,1.06a1.25,1.25,0,0,1,.54,1,2.85,2.85,0,0,0,.45,1.29,15.8,15.8,0,0,0,1,1.5,1.17,1.17,0,0,1,.3.61,2.69,2.69,0,0,0,.74,1.31,2.28,2.28,0,0,1,.55.82,1.16,1.16,0,0,0,.22.39,18.27,18.27,0,0,1,1.15,1.62c.18.25.36.49.56.72a2.73,2.73,0,0,1,.66.92,1.61,1.61,0,0,0,.39.47,1.68,1.68,0,0,1,.54,1.06.84.84,0,0,0,.37.64,1.58,1.58,0,0,1,.45.51,4.9,4.9,0,0,0,1,1.08,2.89,2.89,0,0,0,.93.61c.33.13.63.33.95.49a1.47,1.47,0,0,1,.47.39,1.81,1.81,0,0,0,.87.58,14.31,14.31,0,0,0,1.34.52,1.56,1.56,0,0,1,.52.31A1.89,1.89,0,0,0,145,92a.65.65,0,0,1,.33.17c.35.47.87.46,1.38.5.1,0,.21,0,.3,0a1.79,1.79,0,0,0,1.57-.39,2.61,2.61,0,0,1,1.15-.38.5.5,0,0,1,.3,0V0H0V150H47.5a7.59,7.59,0,0,1,.56-.71A3.07,3.07,0,0,0,48.33,148.93Z"/><path class="cls-1" d="M62,150h.2s0-.08,0-.13Z"/><path class="cls-1" d="M82.22,147.63c-.45-.68-1-1.25-1.48-1.93a15.71,15.71,0,0,0-1.08-1.36,1.09,1.09,0,0,0-.29-.24.24.24,0,0,0-.22,0,.25.25,0,0,0-.1.18,4.89,4.89,0,0,0,.09.53A2.46,2.46,0,0,1,79,146a16.36,16.36,0,0,0-.62,2c-.12.64-.24,1.29-.3,1.94v0h5.94l-.16-.2C83.33,149.08,82.73,148.38,82.22,147.63Z"/><path class="cls-2" d="M95.9,148.58a.27.27,0,0,1-.08-.07c-.17-.19-.33-.39-.49-.58l-2.17-2.74c-.1-.12-.22-.22-.33-.33a4.53,4.53,0,0,1-1.06-1.28,1,1,0,0,0-.41-.44,2,2,0,0,1-.78-.82c-.33-.48-.75-.89-1.12-1.34-.73-.88-1.42-1.79-2.15-2.67-.53-.64-1.07-1.29-1.64-1.9s-1.13-1.3-1.69-2c-.42-.5-.88-1-1.35-1.45-.84-.81-1.65-1.65-2.49-2.46a3.83,3.83,0,0,0-.94-.76c-.17-.08-.34,0-.34.17a2.38,2.38,0,0,1-.52,1.32,8.91,8.91,0,0,1-1.59,2,8.18,8.18,0,0,0-.87,1.06,2,2,0,0,1-.31.33c-.63.46-1.26.92-1.92,1.35a4.75,4.75,0,0,1-.89.4.79.79,0,0,1-.67-.05,6.73,6.73,0,0,1-1.86-1.31,10.21,10.21,0,0,1-1.3-1.48,1.35,1.35,0,0,0-.35-.4,1,1,0,0,1-.46-1,.55.55,0,0,0,0-.22c0-.13,0-.28-.16-.33s-.26.1-.35.22a10.86,10.86,0,0,1-2,2,21.5,21.5,0,0,0-1.83,1.61c-.37.38-.82.67-1.19,1.06-.59.6-1.23,1.14-1.84,1.71a2.39,2.39,0,0,0-.28.35,1.72,1.72,0,0,1-.47.5,1.56,1.56,0,0,0-.64.73,1.5,1.5,0,0,1-.6.67,4.42,4.42,0,0,0-1.09,1.15,6.07,6.07,0,0,1-1,1.19,2.74,2.74,0,0,0-.84,1.16,1,1,0,0,1-.57.67.55.55,0,0,0-.25.27,5.54,5.54,0,0,1-1.25,1.51c-.12.13-.32.23-.36.38a2.57,2.57,0,0,1-.71,1,2.24,2.24,0,0,0-.35.41,7.66,7.66,0,0,1-1.3,1.59,1.74,1.74,0,0,0-.19.26h8.06c.33-.39.65-.8,1-1.17a1.18,1.18,0,0,1,.63-.4,1.6,1.6,0,0,0,.86-.45.87.87,0,0,1,1-.26.39.39,0,0,0,.51-.2,1.1,1.1,0,0,1,.63-.53.28.28,0,0,1,.38.16,7.27,7.27,0,0,1,.58,1.64c0,.29.08.29.32.1s.38-.13.42.13.08.65.12,1h11.8a2.16,2.16,0,0,0-.14-.61,3,3,0,0,1-.14-1.43c.1-.62.15-1.26.29-1.88a7.2,7.2,0,0,1,.52-1.5,1.15,1.15,0,0,1,.77-.57,2.68,2.68,0,0,0,.3,0,.33.33,0,0,0,.23-.42,4.73,4.73,0,0,0-.36-.83.88.88,0,0,1-.1-.57c0-.36.23-.67.19-1,0-.16.13-.27.23-.38a.34.34,0,0,1,.42-.08A5.43,5.43,0,0,1,81.25,142c.34.45.73.85,1.09,1.27a1,1,0,0,0,.48.36.36.36,0,0,1,.29.31.33.33,0,0,0,.27.25c.48.07.65.47.8.82a.76.76,0,0,0,.43.49c.11,0,.12.16,0,.25a.36.36,0,0,0,0,.54c.25.31.41.71.81.89a.31.31,0,0,1,.18.22,9.74,9.74,0,0,0,1,2.19.64.64,0,0,1,.09.21.79.79,0,0,0,0,.22H93a4.18,4.18,0,0,1,2.65-1.42ZM77.71,133.5a4,4,0,0,1-1.12,1.1s0,0-.07,0-.09-.08,0-.12a6.5,6.5,0,0,1,1-1.22c.16-.13.2-.43.51-.35C78,133.17,77.81,133.32,77.71,133.5Z"/><path class="cls-3" d="M113.81,118.19a1.79,1.79,0,0,0,.61,0C114.15,118.18,114,118.2,113.81,118.19Z"/><path class="cls-3" d="M149.28,93s-.08,0-.12,0a.19.19,0,0,0-.11.09,1.75,1.75,0,0,0-.18.81.54.54,0,0,1-.51.56c-.42.06-.79.36-1.25.26H147a1.79,1.79,0,0,1-1.51-.11,1.88,1.88,0,0,0-1.05-.08.37.37,0,0,1-.47-.28.34.34,0,0,0-.3-.17l-.45,0c-.21-.2-.21-.2-.48-.05a12.72,12.72,0,0,0-1.48-.6,4.77,4.77,0,0,1-1.93-1.29,1.1,1.1,0,0,0-.49-.36,4.09,4.09,0,0,1-1.29-.93,4.36,4.36,0,0,0-1.23-1c-.56-.61-1.38-1-1.73-1.77a.89.89,0,0,0-.22-.21,5.81,5.81,0,0,1-.43-.43c-.43-.55-.93-1.06-1.36-1.61a8.71,8.71,0,0,1-1.53-2.16,1.59,1.59,0,0,0-.3-.43A10.27,10.27,0,0,1,129.37,81a1.16,1.16,0,0,0-.42-.53,1.84,1.84,0,0,1-.42-.1c-.39-.19-.42-.38-.18-.82a2.76,2.76,0,0,0-.63-1.07.65.65,0,0,1-.6-.38l-.53-.91a.76.76,0,0,1,0-.73v0a.36.36,0,0,1-.41-.23,1.06,1.06,0,0,1-.11-.63c-.29-.12-.29-.13-.3-.47a.43.43,0,0,1-.4-.28c-.38-.8-.87-1.53-1.31-2.29a1.5,1.5,0,0,1-.29-.92h0c-.28-.09-.31-.3-.26-.54l-.08-.21a.8.8,0,0,1-.49-.54,8.15,8.15,0,0,0-.86-1.59.94.94,0,0,1-.14-.65.13.13,0,0,0-.06-.11.65.65,0,0,1-.5-.43c-.13-.43-.23-.87-.35-1.31a.1.1,0,0,0,0-.1.45.45,0,0,1-.14-.06,3.73,3.73,0,0,1-.85-1.87l-.16-.35a.39.39,0,0,1-.17-.39.65.65,0,0,0-.13-.38.37.37,0,0,1-.19-.36.09.09,0,0,0,0-.1c-.37-.18-.4-.51-.38-.86l-.11-.2a.87.87,0,0,1-.49-.88,2.07,2.07,0,0,1,.34.39,2.07,2.07,0,0,0-.34-.39l-.14-.34c-.36-.24-.49-.69-.85-.94a.26.26,0,0,1-.08-.2c.09-.49-.2-.93-.15-1.41l0-.06a1.57,1.57,0,0,1-.74-1.46.05.05,0,0,0,0-.07c-.09-.08-.22-.14-.27-.24a5,5,0,0,1-.63-1.8.74.74,0,0,0-.21-.4l-.12-.17-.07-.12c-.29-.13-.37-.41-.49-.65a2.56,2.56,0,0,1-.34-1.23l-.12-.26a.54.54,0,0,1-.12-.09,8.77,8.77,0,0,1-1.25-2.75,3,3,0,0,0-.6-1.3,2.61,2.61,0,0,1-.36-.57,9,9,0,0,0-1.14-2.06.65.65,0,0,1-.08-.28,1.37,1.37,0,0,1,.45.3,1.37,1.37,0,0,0-.45-.3,2.11,2.11,0,0,0-.52-.59.53.53,0,0,1-.42-.45,3.67,3.67,0,0,0-.44-.52,6.14,6.14,0,0,1-.87-1,3.2,3.2,0,0,0-.85-.87,2.43,2.43,0,0,1-.44-.41.87.87,0,0,0-.43-.31,1.83,1.83,0,0,1-1-.65,8.08,8.08,0,0,0-1.64-1.34c-.66-.38-1.34-.73-2-1.12a12.52,12.52,0,0,0-4.2-1.47,16.36,16.36,0,0,1-1.73-.23.34.34,0,0,0-.36.07.67.67,0,0,1-.7.14,3.29,3.29,0,0,0-1.43,0,3.14,3.14,0,0,1-1.06,0c-.76-.08-1.51.06-2.27,0a1.76,1.76,0,0,1-1-.21.55.55,0,0,0-.44-.06,8.53,8.53,0,0,1-3.69-.26,37.16,37.16,0,0,1-3.85-1.18A20.35,20.35,0,0,1,78,32.5c-.55-.3-1.12-.57-1.68-.86a.32.32,0,0,0-.34-.22l-.24-.1a.32.32,0,0,0-.37-.18l-.16-.09c-.07-.22-.19-.38-.46-.35l-.16-.1c0-.15-.13-.23-.29-.19l-.17-.12a1.49,1.49,0,0,0-.9-.67.66.66,0,0,0-.32-.25,5,5,0,0,0-1.06-.95.68.68,0,0,0-.15,0,2.78,2.78,0,0,0-.78-.71.22.22,0,0,0-.28-.2,2.73,2.73,0,0,0-.92-.87.51.51,0,0,0-.19-.32,11.27,11.27,0,0,0-2.65-1.9,2.45,2.45,0,0,0-1.19-.21,8.11,8.11,0,0,0-1.3.08,18.23,18.23,0,0,0-3.42.71c-.39.14-.77.28-1.16.39a11.85,11.85,0,0,0-2.47,1.16.87.87,0,0,1-.27.14,2.57,2.57,0,0,0-1.32.87,8.18,8.18,0,0,1-1.33,1A15.92,15.92,0,0,0,53,29.61c-.45.38-.92.72-1.38,1.08a24.37,24.37,0,0,0-2.8,2.47,15.36,15.36,0,0,0-1.46,1.55,6.6,6.6,0,0,1-.92.91c-.07.07-.18.11-.23.19a18.33,18.33,0,0,0-1.31,1.86,5.53,5.53,0,0,1-1,1.45,4,4,0,0,0-.65.94c-.33.71-.82,1.34-1.09,2.08a1.8,1.8,0,0,1-.24.48,4.32,4.32,0,0,0-.73,1.49,8.46,8.46,0,0,1-.5.94,8.71,8.71,0,0,1-.86,1.86,3.11,3.11,0,0,0-.33.93,2.6,2.6,0,0,1-.38.83,2.13,2.13,0,0,0-.28.54l-.71,1.92a2.47,2.47,0,0,1-.1.29c-.74,1.65-1.38,3.33-2,5a15.35,15.35,0,0,1-.92,2.17,2.24,2.24,0,0,0-.14.36c-.46,1.24-.86,2.5-1.37,3.72s-1,2.39-1.53,3.56c-.26.55-.41,1.15-.68,1.7s-.57,1.19-.84,1.79-.4.93-.6,1.4-.56,1.2-.76,1.83a35.51,35.51,0,0,1-1.51,3.32,12.81,12.81,0,0,1-.86,1.79,2.7,2.7,0,0,0-.33.76,5.81,5.81,0,0,1-.92,1.74,23.18,23.18,0,0,0-1.72,2.87,12.21,12.21,0,0,0-1,2.15.51.51,0,0,1-.18.24,7.22,7.22,0,0,0-1.35,1.72c-.27.44-.58.83-.88,1.24s-.53.81-.84,1.18-.88,1-1.36,1.44-1,.87-1.49,1.3A1.2,1.2,0,0,1,16,93a1.61,1.61,0,0,0-.49.07c2.19-.16,5.2-.45,6.09,1s-.89,3.71.22,4.81a.43.43,0,0,1,.1-.47c.37-.38.59-.9,1.12-1.13a.35.35,0,0,0,.11-.1c.5-.57,1.19-.94,1.66-1.56a1.63,1.63,0,0,1,.38-.36,25.45,25.45,0,0,0,2-1.85c.3-.27.6-.54.92-.78s.75-.69,1.14-1A17.68,17.68,0,0,1,31,90.2a1.38,1.38,0,0,0,.34-.3,2.71,2.71,0,0,1,1.11-.9.42.42,0,0,0,.18-.14,27.58,27.58,0,0,1,2.25-1.93,1.88,1.88,0,0,1,.43-.31,2.35,2.35,0,0,0,.79-.71,5.7,5.7,0,0,1,1.49-1.37.58.58,0,0,0,.12-.1c.61-.68,1.36-1.22,2-1.88a28,28,0,0,1,2-2c.51-.42.94-.94,1.44-1.36A18.33,18.33,0,0,0,44.92,77a11.76,11.76,0,0,0,.72-1,19.54,19.54,0,0,1,1.83-2.33,1.52,1.52,0,0,0,.24-.38,18,18,0,0,1,1.16-2A10.75,10.75,0,0,0,50,69.14s0-.06,0-.07c.52-.42.5-1.16.95-1.62a17.8,17.8,0,0,1,.83-1.7c.49-1.22.9-2.48,1.49-3.66a17.22,17.22,0,0,0,.92-2.42,12.79,12.79,0,0,1,.87-2.27,9.24,9.24,0,0,0,.39-1,2.6,2.6,0,0,1,.36-.75,1.59,1.59,0,0,0,.24-.55c.24-.91.59-1.78.91-2.67.16-.42.43-.79.6-1.22.65-1.68,1.35-3.35,1.93-5.06a13.83,13.83,0,0,0,.85-2c.39-.94.78-1.88,1.19-2.81,0,0,0-.1,0-.15A.78.78,0,0,0,61.6,41s0,0,0-.07A1.68,1.68,0,0,0,62,40a.12.12,0,0,0,.07-.15.49.49,0,0,0,.37-.34c.14-.64.42-1.25.53-1.91a.33.33,0,0,0,.14-.39.37.37,0,0,0,.27-.41.89.89,0,0,0,.18-.49.21.21,0,0,0,.11-.28c.12-.11.26-.2.3-.37.54-.28.58-.36.51-1,.16.06.25,0,.33-.14a.75.75,0,0,1,.55.7c0,.15,0,.29.23.33l.28.5a.69.69,0,0,0,0,.51c.06.18.25.33.4.25a1.94,1.94,0,0,1,1-.07c.31.44.8.69,1.12,1.13a.67.67,0,0,0,.62.21,2.28,2.28,0,0,1,.9.11,1,1,0,0,1,.59.44,7.41,7.41,0,0,1,.9,1.83.37.37,0,0,0,.09.2,9.92,9.92,0,0,1,1,2.19.79.79,0,0,1,.11.36,3.64,3.64,0,0,0,.41,1.59,3.06,3.06,0,0,1,.17.74,3.6,3.6,0,0,0,.3,1.17,1.66,1.66,0,0,1,.1.59,5.56,5.56,0,0,0,.23,1.27,5.6,5.6,0,0,1,.12.59,2.15,2.15,0,0,0,.26.86,7.47,7.47,0,0,0,.3,2.4c.06.2.12.39.16.59.28,1.6.69,3.18,1,4.76a16.07,16.07,0,0,0,.52,2.07A15.2,15.2,0,0,0,77.63,63a7.92,7.92,0,0,0,2.51,2.51,3.52,3.52,0,0,1,.78.6,1.49,1.49,0,0,0,.91.51,2.68,2.68,0,0,1,1.18.49,2.39,2.39,0,0,0,1.16.3c1,.11,1.89.33,2.84.46a1.63,1.63,0,0,0,.3.07c1,0,1.91.18,2.88.16,1.26,0,2.53.12,3.79.21a7.15,7.15,0,0,1,1.28.22c.56.14,1.14.21,1.72.3a5.67,5.67,0,0,1,.81.21,12.16,12.16,0,0,1,2.34.86,2,2,0,0,1,1.27.62.48.48,0,0,0,.5.08.59.59,0,0,1,.62.22,1.74,1.74,0,0,0,.79.57.38.38,0,0,1,.24.27c0,.1.07.2.1.29.18.44.18.44.64.29.21-.06.29,0,.34.17a2.2,2.2,0,0,0,.63,1c.42.47.85.94,1.26,1.42.18.21.33.45.49.68,0,.06,0,.15.1.21a9.27,9.27,0,0,1,1.42,2.33c0,.09.13.22.22.16.38-.23.41.11.53.31a6.7,6.7,0,0,1,.57,1.57,12.22,12.22,0,0,1,.66,2.73,1.11,1.11,0,0,0,.12.44,2.67,2.67,0,0,1,.26,1.18,7.91,7.91,0,0,0,.39,2.46,1.06,1.06,0,0,1,0,.31,10.07,10.07,0,0,0,.23,1.81,8.15,8.15,0,0,1,0,1.21c.06.71.1,1.42.13,2.13,0,.89.06,1.78.11,2.66.06,1.27.1,2.54.16,3.81.08,1.68.37,3.33.47,5,0,.38.11.75.17,1.13,0,0,0,.1,0,.15a8.23,8.23,0,0,0,.47,2.6.67.67,0,0,1,0,.31,7.36,7.36,0,0,0,.5,2.75c.1.36.18.7-.16,1a.36.36,0,0,0-.11.41,2.89,2.89,0,0,0,.31.94,3.45,3.45,0,0,1,.49,1.11,5.86,5.86,0,0,0,.68,1.61,1,1,0,0,1,.12.87.17.17,0,0,1-.11.09.21.21,0,0,1-.13,0c-.15-.12-.16-.31-.21-.48a.66.66,0,0,0-.14-.26.32.32,0,0,0-.2-.06.16.16,0,0,0-.15.16,1,1,0,0,0,0,.3c0,.22.14.43.17.66a1.21,1.21,0,0,0,.42.7c.08.09,0,.26-.09.33,3.07-.76,1.88-8.73,6.42-12.15,2.67-2,4.33-.18,8-2.59s2.42-4.4,5.28-6.22c5.13-3.26,11.89,1.37,15.45-2.5a3.23,3.23,0,0,1,0-.53A3.64,3.64,0,0,0,149.28,93ZM76,47.88l0,0s0,0,0,0l0,0Zm39,66.87a.19.19,0,0,1-.11.08.16.16,0,0,1-.13-.06,3.2,3.2,0,0,1-.4-.63c-.24-.61-.44-1.24-.66-1.86a.18.18,0,0,1,0-.14s.1,0,.13,0,.26.11.31.21a5.75,5.75,0,0,1,.89,1.89,1.18,1.18,0,0,1,0,.19C115,114.5,115,114.63,115,114.75Z"/><path class="cls-4" d="M75.59,127.93c0-.22,0-.45-.1-.68a33.14,33.14,0,0,1-.76-4.65,1.93,1.93,0,0,0-.09-.6,2.54,2.54,0,0,1-.14-1,5.55,5.55,0,0,0,0-.91,1.46,1.46,0,0,1,.36-1.34c.13-.16.29-.32.16-.54s-.34-.19-.54-.22a.76.76,0,0,0-.3,0,16.33,16.33,0,0,1-2.88.27c-.25,0-.5,0-.76,0a4.73,4.73,0,0,0-.53,0,.47.47,0,0,0-.44.59,2.83,2.83,0,0,0,.09.37c.08.45.2.89.25,1.34a22.69,22.69,0,0,1,.24,2.73q0,.57,0,1.14a13.46,13.46,0,0,1,0,1.68c0,.63,0,1.27-.08,1.9a3.1,3.1,0,0,0,.13,1.13c.13.44.34.91,0,1.38a.22.22,0,0,0,.06.28,2.83,2.83,0,0,0,.92.49,1.49,1.49,0,0,1,.91.47c.21.22.46.4.69.6s.47.3.79,0c.6-.58,1.2-1.16,1.78-1.76a3.24,3.24,0,0,0,.51-.93.55.55,0,0,0,0-.45A4.28,4.28,0,0,1,75.59,127.93Z"/><path class="cls-4" d="M107.64,100.61c0-.71-.09-1.42-.16-2.13-.09-.91-.09-1.83-.09-2.74,0-1.47-.09-2.94-.12-4.41,0-.91-.12-1.81-.13-2.72a18.9,18.9,0,0,0-.34-2.72c-.16-.9-.3-1.8-.52-2.69s-.42-1.47-.66-2.19a11.89,11.89,0,0,0-1.1-2.51,2.11,2.11,0,0,1-.18-.33,5.39,5.39,0,0,0-1.53-2,17.31,17.31,0,0,0-2.32-2,1.61,1.61,0,0,0-.33-.2,21.31,21.31,0,0,0-2.56-1,2.26,2.26,0,0,1-.37-.11,3.35,3.35,0,0,0-1.57-.21,9,9,0,0,1-1.37,0,12.93,12.93,0,0,0-2-.08,10.86,10.86,0,0,1-2.28,0,1.56,1.56,0,0,0-.31,0l-3.12,0a2.28,2.28,0,0,1-.52,0,32.1,32.1,0,0,0-3.25-.43L82.39,72a26.27,26.27,0,0,1-3.75-1.27,7.81,7.81,0,0,1-1.1-.69,1.7,1.7,0,0,0-.3-.23,5.09,5.09,0,0,1-1.44-1.08c-.41-.42-.78-.87-1.18-1.3a8.12,8.12,0,0,1-1.21-1.91c-.4-.77-.75-1.55-1.08-2.35a17.59,17.59,0,0,1-.63-2.11c-.09-.31-.17-.64-.25-1-.3-1.18-.53-2.37-.75-3.57-.15-.85-.27-1.7-.42-2.55-.2-1.1-.36-2.21-.61-3.29-.08-.32-.07-.67-.35-.91,0-.1,0-.19-.07-.28A1.61,1.61,0,0,0,69,48.43.62.62,0,0,0,69,48a.28.28,0,0,0-.09-.32l-.1-.28a.27.27,0,0,0,0-.33.68.68,0,0,0-.09-.44,1,1,0,0,0,0-.3,24.17,24.17,0,0,0-1.29-3.82,10,10,0,0,0-1-1.88c-.15-.19-.27-.19-.4,0a1.44,1.44,0,0,0-.22.4,14.41,14.41,0,0,0-.77,2.47,1.3,1.3,0,0,1-.15.43,1.53,1.53,0,0,0-.16.89,2.1,2.1,0,0,1-.51,1.55l-.06,0c-.28.16-.14.47-.25.69s-.43.27-.5.55a1.57,1.57,0,0,0-.09.75,1.23,1.23,0,0,1-.14.88,2.13,2.13,0,0,0-.14.35c-.5,1.52-1.11,3-1.71,4.49S60,57.32,59.35,58.9a1,1,0,0,1-.19.41,2.38,2.38,0,0,0-.55,1.23A5.68,5.68,0,0,1,58,62a5.4,5.4,0,0,0-.88,2.24,5.12,5.12,0,0,1-.68,1.93,3.76,3.76,0,0,1-.78,1.3.49.49,0,0,0-.13.27,18,18,0,0,1-.7,1.85,2.24,2.24,0,0,1-.13.27c-.17.45-.64.69-.75,1.22a4.75,4.75,0,0,1-.61,1.21,2,2,0,0,1-.66.73.64.64,0,0,0-.31.49,2.45,2.45,0,0,1-.59,1.22,6.56,6.56,0,0,0-.54.83A15.83,15.83,0,0,1,49.51,78a3.65,3.65,0,0,0-.5.67,4.39,4.39,0,0,1-.61.87,3,3,0,0,0-.35.5,1,1,0,0,1-.26.37A16.82,16.82,0,0,0,45.7,82.6c-.48.52-1,1-1.5,1.51-.9.86-1.82,1.7-2.73,2.55A6.31,6.31,0,0,0,40.16,88a4.16,4.16,0,0,0-1.26,1.28,3,3,0,0,1-.8.7c-.2.13-.38.32-.68.26a.64.64,0,0,0-.64.33c-.13.16-.24.34-.35.5a1.11,1.11,0,0,1-.5.46,2,2,0,0,0-1,.85c-.1.14-.18.32-.36.37a1,1,0,0,0-.62.53,1.27,1.27,0,0,1-.21.25,37.61,37.61,0,0,0,7.07,11,1.78,1.78,0,0,1,.78-.67,1.2,1.2,0,0,1,.94-.2A.67.67,0,0,1,43,104a1.37,1.37,0,0,0,.18.24c.34.37.51.37.86,0s.75-.43,1,.08A5.82,5.82,0,0,0,46.48,106a16.35,16.35,0,0,0,1.72,1.5.53.53,0,0,1,.12.1c.27.29.73.23,1,.51s.45.56.82.65a.53.53,0,0,1,.25.17,2.17,2.17,0,0,0,1.06.58,1.07,1.07,0,0,1,.68.45,3.29,3.29,0,0,0,.76.73c.15.11.27.22.47.14a.4.4,0,0,1,.47.16c.12.14.24.26.37.39a.25.25,0,0,0,.27.09.6.6,0,0,1,.63.17.4.4,0,0,0,.35.1,2.34,2.34,0,0,1,1.11.18c.14,0,.33.11.39.22a1,1,0,0,0,1.06.46,1.84,1.84,0,0,1,1.34.41.83.83,0,0,0,.56.21,7.21,7.21,0,0,1,2.83.52,2.8,2.8,0,0,0,1.11.2,2.57,2.57,0,0,1,.68.06,1,1,0,0,0,.94-.11.52.52,0,0,1,.44,0,.21.21,0,0,1,.11.09c-.18.37.16.33.33.41a4.22,4.22,0,0,0,1.64.3c.43,0,.86,0,1.29.07a.52.52,0,0,0,.57-.27c.12-.2.21-.17.42,0s.22.2.44,0,.29-.2.46,0a.34.34,0,0,0,.28.21l2,.24a2.08,2.08,0,0,0,.61,0,4.9,4.9,0,0,1,1.21-.07,1.4,1.4,0,0,0,1-.3c.26-.2.49-.26.73,0a.57.57,0,0,0,.49.17,3.48,3.48,0,0,0,1.57-.24,3.34,3.34,0,0,1,1.55-.34,6.72,6.72,0,0,1,1.9,0,1,1,0,0,0,.52-.07,5.08,5.08,0,0,1,2.32-.28.67.67,0,0,0,.44-.07l.34-.16c.33-.18.73.11,1-.15a1.92,1.92,0,0,1,.92-.32c.35-.06.7-.15,1-.2,1.21-.19,2.39-.47,3.59-.72a14.72,14.72,0,0,0,1.61-.44,10.6,10.6,0,0,1,1.11-.28c.72-.15,1.41-.42,2.14-.53a5.87,5.87,0,0,0,1.28-.48,8.13,8.13,0,0,1,1.46-.42,3,3,0,0,0,.58-.18,19.37,19.37,0,0,1,3-.92,6.06,6.06,0,0,0,1.12-.17.29.29,0,0,1,.21.06.36.36,0,0,0,.59,0c.25-.26.48-.21.72,0l-.07,0c.72-.32,1.41-.63,2.06-.94-.15-.74-.27-1.5-.39-2.25A36,36,0,0,1,107.64,100.61ZM72.27,75.85a4.36,4.36,0,0,1,.51-.17.71.71,0,0,1,1,.28.63.63,0,0,0,.22.21.3.3,0,0,0,.41,0c.13-.12.24-.27.37-.39a.25.25,0,0,1,.4,0,2.32,2.32,0,0,1,.47.94c.06.33.13.65.2,1l.36,1.56a1,1,0,0,1,0,.6A5.18,5.18,0,0,0,76,81.21a9.64,9.64,0,0,1-.24,1.19.48.48,0,0,1-.43.38c-.08,0-.16,0-.23,0-.52.17-1,.22-1.28-.38a.38.38,0,0,0-.41-.13c-.08,0-.15,0-.22.06-.25,0-.52.19-.74.05a1.8,1.8,0,0,1-.75-.84,4.29,4.29,0,0,1-.27-1.11c-.08-1-.17-1.92-.25-2.88C71.11,76.12,71.37,76.35,72.27,75.85ZM59.44,81.7c.07-.35.14-.69.22-1s.15-.8.26-1.19a6,6,0,0,1,.86-2c.1-.12.2-.26.36-.27a1.89,1.89,0,0,1,1.42.32c.29.26.32.26.63,0l.34-.3a2.2,2.2,0,0,1,.25-.17.33.33,0,0,1,.52.32c0,.4-.06.81-.08,1.06a15,15,0,0,1-.1,2,2.35,2.35,0,0,0,0,.53,2.31,2.31,0,0,1-.05.83,10.87,10.87,0,0,0-.08,3A5.07,5.07,0,0,1,64,86a4.82,4.82,0,0,0-.05,1.14,4.32,4.32,0,0,1-.3,1.63.47.47,0,0,1-.39.33,2.66,2.66,0,0,1-1-.09A.3.3,0,0,1,62,88.9c-.17-.32-.41-.33-.7-.17a3.65,3.65,0,0,1-.35.14.56.56,0,0,1-.73-.24l-.61-1a1.1,1.1,0,0,1-.12-.59,6.28,6.28,0,0,0-.14-1.44,1,1,0,0,1,0-.3C59.43,84.13,59.19,82.91,59.44,81.7ZM77.69,96.62a2.58,2.58,0,0,0-.31,1,.43.43,0,0,1-.26.35,1.82,1.82,0,0,0-.64.73,4.67,4.67,0,0,1-1.43,1.54,15.25,15.25,0,0,1-2.56,1.49.92.92,0,0,0-.25.17,5.4,5.4,0,0,1-2.32,1.27c-.63.21-1.25.44-1.85.7a2.67,2.67,0,0,1-.36.14l-3.11.74c-.32.08-.64.15-1,.24a2.73,2.73,0,0,1-.9.13,9.56,9.56,0,0,1-2.37-.52,1.92,1.92,0,0,1-1.11-1.38,2.57,2.57,0,0,1,.1-1.79,1,1,0,0,1,.59-.56,28.55,28.55,0,0,1,3-1c.47-.11.94-.2,1.42-.28a28,28,0,0,0,3.76-1,39.32,39.32,0,0,0,4.41-1.7,8.17,8.17,0,0,1,1.6-.7,1.3,1.3,0,0,0,.41-.2,7.7,7.7,0,0,1,1.72-.8.54.54,0,0,1,.77.25c.12.22.36.29.52.44A.57.57,0,0,1,77.69,96.62Z"/><path class="cls-5" d="M114.64,117.81a1.21,1.21,0,0,1-.42-.7c0-.23-.12-.44-.17-.66a1,1,0,0,1,0-.3.16.16,0,0,1,.15-.16.32.32,0,0,1,.2.06.66.66,0,0,1,.14.26c0,.17.06.36.21.48a.21.21,0,0,0,.13,0,.17.17,0,0,0,.11-.09,1,1,0,0,0-.12-.87,5.86,5.86,0,0,1-.68-1.61,3.45,3.45,0,0,0-.49-1.11,2.89,2.89,0,0,1-.31-.94.36.36,0,0,1,.11-.41c.34-.28.26-.62.16-1a7.36,7.36,0,0,1-.5-2.75.67.67,0,0,0,0-.31,8.23,8.23,0,0,1-.47-2.6s0-.1,0-.15c-.06-.38-.14-.75-.17-1.13-.1-1.68-.39-3.33-.47-5-.06-1.27-.1-2.54-.16-3.81-.05-.88-.06-1.77-.11-2.66,0-.71-.07-1.42-.13-2.13a8.15,8.15,0,0,0,0-1.21,10.07,10.07,0,0,1-.23-1.81,1.06,1.06,0,0,0,0-.31,7.91,7.91,0,0,1-.39-2.46,2.67,2.67,0,0,0-.26-1.18,1.11,1.11,0,0,1-.12-.44,12.22,12.22,0,0,0-.66-2.73,6.7,6.7,0,0,0-.57-1.57c-.12-.2-.15-.54-.53-.31-.09.06-.18-.07-.22-.16a9.27,9.27,0,0,0-1.42-2.33c0-.06-.06-.15-.1-.21-.16-.23-.31-.47-.49-.68-.41-.48-.84-.95-1.26-1.42a2.2,2.2,0,0,1-.63-1c0-.21-.13-.23-.34-.17-.46.15-.46.15-.64-.29,0-.09-.06-.19-.1-.29a.38.38,0,0,0-.24-.27,1.74,1.74,0,0,1-.79-.57.59.59,0,0,0-.62-.22.48.48,0,0,1-.5-.08,2,2,0,0,0-1.27-.62,12.16,12.16,0,0,0-2.34-.86,5.67,5.67,0,0,0-.81-.21c-.58-.09-1.16-.16-1.72-.3A7.15,7.15,0,0,0,94,68.33c-1.26-.09-2.53-.23-3.79-.21-1,0-1.92-.2-2.88-.16a1.63,1.63,0,0,1-.3-.07c-1-.13-1.88-.35-2.84-.46a2.39,2.39,0,0,1-1.16-.3,2.68,2.68,0,0,0-1.18-.49,1.49,1.49,0,0,1-.91-.51,3.52,3.52,0,0,0-.78-.6A7.92,7.92,0,0,1,77.63,63a15.2,15.2,0,0,1-1.39-3.21,16.07,16.07,0,0,1-.52-2.07c-.34-1.58-.75-3.16-1-4.76,0-.2-.1-.39-.16-.59a7.47,7.47,0,0,1-.3-2.4,2.15,2.15,0,0,1-.26-.86,5.6,5.6,0,0,0-.12-.59,5.56,5.56,0,0,1-.23-1.27,1.66,1.66,0,0,0-.1-.59,3.6,3.6,0,0,1-.3-1.17,3.06,3.06,0,0,0-.17-.74,3.64,3.64,0,0,1-.41-1.59.79.79,0,0,0-.11-.36,9.92,9.92,0,0,0-1-2.19.37.37,0,0,1-.09-.2,7.41,7.41,0,0,0-.9-1.83,1,1,0,0,0-.59-.44,2.28,2.28,0,0,0-.9-.11.67.67,0,0,1-.62-.21c-.32-.44-.81-.69-1.12-1.13a1.94,1.94,0,0,0-1,.07c-.15.08-.34-.07-.4-.25a.69.69,0,0,1,0-.51l-.28-.5c-.18,0-.22-.18-.23-.33a.75.75,0,0,0-.55-.7c-.08.11-.17.2-.33.14.07.63,0,.71-.51,1,0,.17-.18.26-.3.37a.21.21,0,0,1-.11.28.89.89,0,0,1-.18.49.37.37,0,0,1-.27.41.33.33,0,0,1-.14.39c-.11.66-.39,1.27-.53,1.91a.49.49,0,0,1-.37.34A.12.12,0,0,1,62,40a1.68,1.68,0,0,1-.43,1s0,0,0,.07a.78.78,0,0,1-.05.14s0,.11,0,.15c-.41.93-.8,1.87-1.19,2.81a13.83,13.83,0,0,1-.85,2c-.58,1.71-1.28,3.38-1.93,5.06-.17.43-.44.8-.6,1.22-.32.89-.67,1.76-.91,2.67a1.59,1.59,0,0,1-.24.55,2.6,2.6,0,0,0-.36.75,9.24,9.24,0,0,1-.39,1,12.79,12.79,0,0,0-.87,2.27,17.22,17.22,0,0,1-.92,2.42c-.59,1.18-1,2.44-1.49,3.66a17.8,17.8,0,0,0-.83,1.7c-.45.46-.43,1.2-.95,1.62,0,0,0,0,0,.07a10.75,10.75,0,0,1-1.13,2.15,18,18,0,0,0-1.16,2,1.52,1.52,0,0,1-.24.38,19.54,19.54,0,0,0-1.83,2.33,11.76,11.76,0,0,1-.72,1,18.33,18.33,0,0,1-1.71,2.13c-.5.42-.93.94-1.44,1.36a28,28,0,0,0-2,2c-.63.66-1.38,1.2-2,1.88a.58.58,0,0,1-.12.1,5.7,5.7,0,0,0-1.49,1.37,2.35,2.35,0,0,1-.79.71,1.88,1.88,0,0,0-.43.31,27.58,27.58,0,0,0-2.25,1.93.42.42,0,0,1-.18.14,2.71,2.71,0,0,0-1.11.9,1.38,1.38,0,0,1-.34.3,17.68,17.68,0,0,0-1.78,1.43c-.39.32-.73.7-1.14,1s-.62.51-.92.78a25.45,25.45,0,0,1-2,1.85,1.63,1.63,0,0,0-.38.36c-.47.62-1.16,1-1.66,1.56a.35.35,0,0,1-.11.1c-.53.23-.75.75-1.12,1.13a.43.43,0,0,0-.1.47.72.72,0,0,0,.16.28c.11.1.25.17.36.27a1.24,1.24,0,0,1,.52.73.3.3,0,0,0,.36.3,4.5,4.5,0,0,0,1.86-.15.77.77,0,0,1,.3-.06,1.65,1.65,0,0,0,.71-.23c.45-.23,1-.35,1.24-.83a.27.27,0,0,1,.12-.09c.39-.13.55-.51.85-.75a7.84,7.84,0,0,1,1-.57.48.48,0,0,0,.11-.09c.72-.76,1.46-1.49,2.24-2.18a20.71,20.71,0,0,1,2-1.82,1,1,0,0,0,.15-.14,1.27,1.27,0,0,0,.21-.25,1,1,0,0,1,.62-.53c.18,0,.26-.23.36-.37a2,2,0,0,1,1-.85,1.11,1.11,0,0,0,.5-.46c.11-.16.22-.34.35-.5a.64.64,0,0,1,.64-.33c.3.06.48-.13.68-.26a3,3,0,0,0,.8-.7A4.16,4.16,0,0,1,40.16,88a6.31,6.31,0,0,1,1.31-1.37c.91-.85,1.83-1.69,2.73-2.55.51-.49,1-1,1.5-1.51a16.82,16.82,0,0,1,2.09-2.21,1,1,0,0,0,.26-.37,3,3,0,0,1,.35-.5,4.39,4.39,0,0,0,.61-.87,3.65,3.65,0,0,1,.5-.67,15.83,15.83,0,0,0,1.72-2.42,6.56,6.56,0,0,1,.54-.83,2.45,2.45,0,0,0,.59-1.22.64.64,0,0,1,.31-.49,2,2,0,0,0,.66-.73,4.75,4.75,0,0,0,.61-1.21c.11-.53.58-.77.75-1.22a2.24,2.24,0,0,0,.13-.27,18,18,0,0,0,.7-1.85.49.49,0,0,1,.13-.27,3.76,3.76,0,0,0,.78-1.3,5.12,5.12,0,0,0,.68-1.93A5.4,5.4,0,0,1,58,62a5.68,5.68,0,0,0,.62-1.46,2.38,2.38,0,0,1,.55-1.23,1,1,0,0,0,.19-.41c.63-1.58,1.24-3.17,1.88-4.75s1.21-3,1.71-4.49a2.13,2.13,0,0,1,.14-.35,1.23,1.23,0,0,0,.14-.88,1.57,1.57,0,0,1,.09-.75c.07-.28.39-.32.5-.55s0-.53.25-.69l.06,0a2.1,2.1,0,0,0,.51-1.55,1.53,1.53,0,0,1,.16-.89,1.3,1.3,0,0,0,.15-.43,14.41,14.41,0,0,1,.77-2.47,1.44,1.44,0,0,1,.22-.4c.13-.22.25-.22.4,0a10,10,0,0,1,1,1.88,24.17,24.17,0,0,1,1.29,3.82,1,1,0,0,1,0,.3.68.68,0,0,1,.09.44.27.27,0,0,1,0,.33l.1.28A.28.28,0,0,1,69,48a.62.62,0,0,1,.06.44,1.61,1.61,0,0,1,.22,1.09c0,.09,0,.18.07.28.28.24.27.59.35.91.25,1.08.41,2.19.61,3.29.15.85.27,1.7.42,2.55.22,1.2.45,2.39.75,3.57.08.32.16.65.25,1a17.59,17.59,0,0,0,.63,2.11c.33.8.68,1.58,1.08,2.35a8.12,8.12,0,0,0,1.21,1.91c.4.43.77.88,1.18,1.3a5.09,5.09,0,0,0,1.44,1.08,1.7,1.7,0,0,1,.3.23,7.81,7.81,0,0,0,1.1.69A26.27,26.27,0,0,0,82.39,72l.45.07a32.1,32.1,0,0,1,3.25.43,2.28,2.28,0,0,0,.52,0l3.12,0a1.56,1.56,0,0,1,.31,0,10.86,10.86,0,0,0,2.28,0,12.93,12.93,0,0,1,2,.08,9,9,0,0,0,1.37,0,3.35,3.35,0,0,1,1.57.21,2.26,2.26,0,0,0,.37.11,21.31,21.31,0,0,1,2.56,1,1.61,1.61,0,0,1,.33.2,17.31,17.31,0,0,1,2.32,2,5.39,5.39,0,0,1,1.53,2,2.11,2.11,0,0,0,.18.33,11.89,11.89,0,0,1,1.1,2.51c.24.72.47,1.45.66,2.19s.36,1.79.52,2.69a18.9,18.9,0,0,1,.34,2.72c0,.91.11,1.81.13,2.72,0,1.47.13,2.94.12,4.41,0,.91,0,1.83.09,2.74.07.71.14,1.42.16,2.13a36,36,0,0,0,.51,5.08c.12.75.24,1.51.39,2.25a16.21,16.21,0,0,0,.62,2.27c.19.5.32,1,.55,1.5a8.42,8.42,0,0,1,.72,1.82.42.42,0,0,0,.33.37.27.27,0,0,1,.22.27,1.71,1.71,0,0,0,.42,1.12,1.07,1.07,0,0,1,.14.35c0,.26.1.51.43.54a5.45,5.45,0,0,1,1,1c.15.27.32.14.5.13,0,0,0,0,0,.06,0,.72.05.85.35.85.15,0,.34,0,.61,0a.09.09,0,0,0,.07,0s0,0,.06,0S114.72,117.9,114.64,117.81Zm-1.49-6.57s0,.09,0,.14l-.06,0s-.06-.08-.06-.12S113.11,111.19,113.15,111.24Z"/><path class="cls-5" d="M113.19,111.38s0-.11,0-.14-.09,0-.08.05,0,.08.06.12Z"/><path class="cls-5" d="M52.34,148.15a2.24,2.24,0,0,1,.35-.41,2.57,2.57,0,0,0,.71-1c0-.15.24-.25.36-.38A5.54,5.54,0,0,0,55,144.88a.55.55,0,0,1,.25-.27,1,1,0,0,0,.57-.67,2.74,2.74,0,0,1,.84-1.16,6.07,6.07,0,0,0,1-1.19,4.42,4.42,0,0,1,1.09-1.15,1.5,1.5,0,0,0,.6-.67A1.56,1.56,0,0,1,60,139a1.72,1.72,0,0,0,.47-.5,2.39,2.39,0,0,1,.28-.35c.61-.57,1.25-1.11,1.84-1.71.37-.39.82-.68,1.19-1.06a21.5,21.5,0,0,1,1.83-1.61,10.86,10.86,0,0,0,2-2c.09-.12.16-.29.35-.22s.14.2.16.33a.55.55,0,0,1,0,.22,1,1,0,0,0,.46,1,1.35,1.35,0,0,1,.35.4,10.21,10.21,0,0,0,1.3,1.48,6.73,6.73,0,0,0,1.86,1.31.79.79,0,0,0,.67.05,4.75,4.75,0,0,0,.89-.4c.66-.43,1.29-.89,1.92-1.35a2,2,0,0,0,.31-.33,8.18,8.18,0,0,1,.87-1.06,8.91,8.91,0,0,0,1.59-2,2.38,2.38,0,0,0,.52-1.32c0-.18.17-.25.34-.17a3.83,3.83,0,0,1,.94.76c.84.81,1.65,1.65,2.49,2.46.47.47.93.95,1.35,1.45.56.66,1.1,1.34,1.69,2s1.11,1.26,1.64,1.9c.73.88,1.42,1.79,2.15,2.67.37.45.79.86,1.12,1.34a2,2,0,0,0,.78.82,1,1,0,0,1,.41.44,4.53,4.53,0,0,0,1.06,1.28c.11.11.23.21.33.33l2.17,2.74c.16.19.32.39.49.58a.27.27,0,0,0,.08.07.15.15,0,0,0,.18,0c.08-.05,0-.13,0-.2a3.11,3.11,0,0,0-.53-.92,1.07,1.07,0,0,1-.29-.53.49.49,0,0,0-.27-.42.31.31,0,0,1-.1-.46,2.18,2.18,0,0,1,.25-.28.29.29,0,0,0,0-.4,11,11,0,0,0-1.55-2.25,15,15,0,0,1-.83-1.45.22.22,0,0,1,0-.14,2,2,0,0,0-.2-1.26c-.07-.18,0-.4-.11-.59a9.41,9.41,0,0,0-.83-1.35,1.51,1.51,0,0,0-.68-.44,1.26,1.26,0,0,0-.26-.84,5.33,5.33,0,0,1-.79-1.28.91.91,0,0,0-.4-.44,1,1,0,0,1-.59-.67,1.75,1.75,0,0,0-.53-.82,5.23,5.23,0,0,1-.86-1,7.16,7.16,0,0,1-.81-1.07,13.25,13.25,0,0,0-1.37-1.72,4.21,4.21,0,0,0-.68-.72c-.44-.42-.89-.83-1.3-1.28a7.16,7.16,0,0,0-1.79-1.26.86.86,0,0,0-.52-.08,3.5,3.5,0,0,1-1.29-.12.64.64,0,0,0-.86.23.27.27,0,0,1-.4.07.51.51,0,0,0-.74.14,1.45,1.45,0,0,1-.21.22.23.23,0,0,1-.39-.17,6.32,6.32,0,0,0-.15-1.05,2,2,0,0,1,0-.6c0-.18.15-.23.34-.18.35.09.42.06.43-.23a3.39,3.39,0,0,0,0-.45c0-.66-.12-1.32-.17-2-.1-1.11-.19-2.23-.28-3.34,0-.57-.06-.57-.62-.63a.37.37,0,0,1-.15,0,.3.3,0,0,1-.21-.29.24.24,0,0,1,.17-.23,7.65,7.65,0,0,1,1-.17,18.31,18.31,0,0,0,2.87-.23.91.91,0,0,1,.23,0,7.15,7.15,0,0,0,2.34-.27,9.31,9.31,0,0,1,1.26-.24,4.67,4.67,0,0,0,1.19-.25,3.16,3.16,0,0,1,1-.2,2.07,2.07,0,0,0,1.45-.57.69.69,0,0,1,1-.1.63.63,0,0,0,.57.15,9.49,9.49,0,0,0,1.58-.54c.49-.27,1-.48,1.5-.74a1.13,1.13,0,0,1,.43-.13,9,9,0,0,0,2.34-.65,3.83,3.83,0,0,1,1.31-.4.83.83,0,0,0,.36-.13,4.12,4.12,0,0,1,1.07-.37,2,2,0,0,0,.69-.28,3,3,0,0,1,1-.44,4.18,4.18,0,0,0,1.66-.73,3.3,3.3,0,0,1,.65-.39,12.94,12.94,0,0,0,1.63-.8c.26-.16.56-.25.64-.59,0-.11.13-.15.24-.14s.18-.06.27-.1a9.27,9.27,0,0,0,1.54-.93l.07,0c-.24-.23-.47-.28-.72,0a.36.36,0,0,1-.59,0,.29.29,0,0,0-.21-.06,6.06,6.06,0,0,1-1.12.17,19.37,19.37,0,0,0-3,.92,3,3,0,0,1-.58.18,8.13,8.13,0,0,0-1.46.42,5.87,5.87,0,0,1-1.28.48c-.73.11-1.42.38-2.14.53a10.6,10.6,0,0,0-1.11.28,14.72,14.72,0,0,1-1.61.44c-1.2.25-2.38.53-3.59.72-.35,0-.7.14-1,.2a1.92,1.92,0,0,0-.92.32c-.3.26-.7,0-1,.15l-.34.16a.67.67,0,0,1-.44.07,5.08,5.08,0,0,0-2.32.28,1,1,0,0,1-.52.07,6.72,6.72,0,0,0-1.9,0,3.34,3.34,0,0,0-1.55.34,3.48,3.48,0,0,1-1.57.24.57.57,0,0,1-.49-.17c-.24-.26-.47-.2-.73,0a1.4,1.4,0,0,1-1,.3,4.9,4.9,0,0,0-1.21.07,2.08,2.08,0,0,1-.61,0l-2-.24a.34.34,0,0,1-.28-.21c-.17-.25-.25-.25-.46,0s-.22.21-.44,0-.3-.22-.42,0a.52.52,0,0,1-.57.27c-.43-.05-.86-.05-1.29-.07a4.22,4.22,0,0,1-1.64-.3c-.17-.08-.51,0-.33-.41a.21.21,0,0,0-.11-.09.52.52,0,0,0-.44,0,1,1,0,0,1-.94.11,2.57,2.57,0,0,0-.68-.06,2.8,2.8,0,0,1-1.11-.2,7.21,7.21,0,0,0-2.83-.52.83.83,0,0,1-.56-.21,1.84,1.84,0,0,0-1.34-.41,1,1,0,0,1-1.06-.46c-.06-.11-.25-.17-.39-.22a2.34,2.34,0,0,0-1.11-.18.4.4,0,0,1-.35-.1.6.6,0,0,0-.63-.17.25.25,0,0,1-.27-.09c-.13-.13-.25-.25-.37-.39a.4.4,0,0,0-.47-.16c-.2.08-.32,0-.47-.14a3.29,3.29,0,0,1-.76-.73,1.07,1.07,0,0,0-.68-.45,2.17,2.17,0,0,1-1.06-.58.53.53,0,0,0-.25-.17c-.37-.09-.57-.39-.82-.65s-.73-.22-1-.51a.53.53,0,0,0-.12-.1,16.35,16.35,0,0,1-1.72-1.5,5.82,5.82,0,0,1-1.43-1.65c-.24-.51-.59-.52-1-.08s-.52.38-.86,0A1.37,1.37,0,0,1,43,104a.67.67,0,0,0-.44-.27,1.2,1.2,0,0,0-.94.2,1.78,1.78,0,0,0-.78.67,1.69,1.69,0,0,0-.24,1.3,5,5,0,0,0,1.14,2.62,6.68,6.68,0,0,0,.59.69,11.26,11.26,0,0,0,1.48,1.2c.52.4,1.09.74,1.65,1.09s.88.51,1.32.76,1,.59,1.55.82c1.3.56,2.56,1.24,3.91,1.71a16,16,0,0,0,3.09,1q.38.06.75.15a10.41,10.41,0,0,0,2.64.59,1,1,0,0,1,.37.09,21.44,21.44,0,0,0,2.75.62c1,.21,2.06.25,3.08.47a6.82,6.82,0,0,0,2,.23,1.73,1.73,0,0,1,.59.09c.28.08.36.22.33.52a7.73,7.73,0,0,0-.11,1,9.48,9.48,0,0,0,.24,2.19,3.62,3.62,0,0,1,.09,1c0,.22,0,.45,0,.68,0,.71.16,1.41.13,2.13a4.73,4.73,0,0,0,.07.83c0,.48.09,1,.14,1.44,0,.13,0,.27,0,.38a9.31,9.31,0,0,1,.29,1.56,1,1,0,0,1-.25,1,3.32,3.32,0,0,1-.38.37.34.34,0,0,1-.51-.11c-.07-.12,0-.25,0-.37a.3.3,0,0,0-.31-.26.69.69,0,0,0-.42.17c-.14.11-.28.27-.46.24a2.05,2.05,0,0,0-1.21.36,2.58,2.58,0,0,1-.58.18,4.14,4.14,0,0,0-.8.25,5,5,0,0,0-1.25.86c-1,.81-2,1.68-2.93,2.53a1.76,1.76,0,0,0-.24.3c-.09.12-.18.24-.28.35l-1.59,1.75a2.16,2.16,0,0,1-.37.37,4.48,4.48,0,0,0-1,1.05c-.58.74-1.14,1.5-1.77,2.19a11.88,11.88,0,0,0-1,1.23,4.35,4.35,0,0,1-.33.42c-.37.45-.75.89-1.1,1.36q-1.24,1.63-2.46,3.3c-.39.53-.75,1.08-1.12,1.63a3.07,3.07,0,0,1-.27.36,7.59,7.59,0,0,0-.56.71h3.35a1.74,1.74,0,0,1,.19-.26A7.66,7.66,0,0,0,52.34,148.15Zm23.57-18.44a3.24,3.24,0,0,1-.51.93c-.58.6-1.18,1.18-1.78,1.76-.32.3-.44.29-.79,0s-.48-.38-.69-.6a1.49,1.49,0,0,0-.91-.47,2.83,2.83,0,0,1-.92-.49.22.22,0,0,1-.06-.28c.31-.47.1-.94,0-1.38a3.1,3.1,0,0,1-.13-1.13c0-.63,0-1.27.08-1.9a13.46,13.46,0,0,0,0-1.68q0-.57,0-1.14a22.69,22.69,0,0,0-.24-2.73c-.05-.45-.17-.89-.25-1.34a2.83,2.83,0,0,1-.09-.37.47.47,0,0,1,.44-.59,4.73,4.73,0,0,1,.53,0c.26,0,.51,0,.76,0a16.33,16.33,0,0,0,2.88-.27.76.76,0,0,1,.3,0c.2,0,.43,0,.54.22s0,.38-.16.54a1.46,1.46,0,0,0-.36,1.34,5.55,5.55,0,0,1,0,.91,2.54,2.54,0,0,0,.14,1,1.93,1.93,0,0,1,.09.6,33.14,33.14,0,0,0,.76,4.65c.05.23.06.46.1.68a4.28,4.28,0,0,0,.29,1.33A.55.55,0,0,1,75.91,129.71Z"/><path class="cls-5" d="M77,95.49a.54.54,0,0,0-.77-.25,7.7,7.7,0,0,0-1.72.8,1.3,1.3,0,0,1-.41.2,8.17,8.17,0,0,0-1.6.7,39.32,39.32,0,0,1-4.41,1.7,28,28,0,0,1-3.76,1c-.48.08-.95.17-1.42.28a28.55,28.55,0,0,0-3,1,1,1,0,0,0-.59.56,2.57,2.57,0,0,0-.1,1.79,1.92,1.92,0,0,0,1.11,1.38,9.56,9.56,0,0,0,2.37.52,2.73,2.73,0,0,0,.9-.13c.32-.09.64-.16,1-.24l3.11-.74a2.67,2.67,0,0,0,.36-.14c.6-.26,1.22-.49,1.85-.7a5.4,5.4,0,0,0,2.32-1.27.92.92,0,0,1,.25-.17,15.25,15.25,0,0,0,2.56-1.49,4.67,4.67,0,0,0,1.43-1.54,1.82,1.82,0,0,1,.64-.73.43.43,0,0,0,.26-.35,2.58,2.58,0,0,1,.31-1,.57.57,0,0,0-.17-.69C77.36,95.78,77.12,95.71,77,95.49Z"/><path class="cls-5" d="M86.64,149.57a9.74,9.74,0,0,1-1-2.19.31.31,0,0,0-.18-.22c-.4-.18-.56-.58-.81-.89a.36.36,0,0,1,0-.54c.08-.09.07-.21,0-.25a.76.76,0,0,1-.43-.49c-.15-.35-.32-.75-.8-.82a.33.33,0,0,1-.27-.25.36.36,0,0,0-.29-.31,1,1,0,0,1-.48-.36c-.36-.42-.75-.82-1.09-1.27a5.43,5.43,0,0,0-1.91-1.34.34.34,0,0,0-.42.08c-.1.11-.25.22-.23.38,0,.37-.19.68-.19,1a.88.88,0,0,0,.1.57,4.73,4.73,0,0,1,.36.83.33.33,0,0,1-.23.42,2.68,2.68,0,0,1-.3,0,1.15,1.15,0,0,0-.77.57,7.2,7.2,0,0,0-.52,1.5c-.14.62-.19,1.26-.29,1.88a3,3,0,0,0,.14,1.43,2.16,2.16,0,0,1,.14.61h1v0c.06-.65.18-1.3.3-1.94a16.36,16.36,0,0,1,.62-2,2.46,2.46,0,0,0,.11-1.2,4.89,4.89,0,0,1-.09-.53.25.25,0,0,1,.1-.18.24.24,0,0,1,.22,0,1.09,1.09,0,0,1,.29.24,15.71,15.71,0,0,1,1.08,1.36c.45.68,1,1.25,1.48,1.93s1.11,1.45,1.67,2.17l.16.2h2.73a.79.79,0,0,1,0-.22A.64.64,0,0,0,86.64,149.57Z"/><path class="cls-5" d="M59.34,85.64a6.28,6.28,0,0,1,.14,1.44,1.1,1.1,0,0,0,.12.59l.61,1a.56.56,0,0,0,.73.24,3.65,3.65,0,0,0,.35-.14c.29-.16.53-.15.7.17a.3.3,0,0,0,.18.13,2.66,2.66,0,0,0,1,.09.47.47,0,0,0,.39-.33,4.32,4.32,0,0,0,.3-1.63A4.82,4.82,0,0,1,64,86a5.07,5.07,0,0,0,0-1.29,10.87,10.87,0,0,1,.08-3,2.31,2.31,0,0,0,.05-.83,2.35,2.35,0,0,1,0-.53,15,15,0,0,0,.1-2c0-.25.06-.66.08-1.06a.33.33,0,0,0-.52-.32,2.2,2.2,0,0,0-.25.17l-.34.3c-.31.25-.34.25-.63,0a1.89,1.89,0,0,0-1.42-.32c-.16,0-.26.15-.36.27a6,6,0,0,0-.86,2c-.11.39-.18.79-.26,1.19s-.15.69-.22,1c-.25,1.21,0,2.43-.14,3.64A1,1,0,0,0,59.34,85.64Z"/><path class="cls-5" d="M64.79,148.89c-.24.19-.27.19-.32-.1a7.27,7.27,0,0,0-.58-1.64.28.28,0,0,0-.38-.16,1.1,1.1,0,0,0-.63.53.39.39,0,0,1-.51.2.87.87,0,0,0-1,.26,1.6,1.6,0,0,1-.86.45,1.18,1.18,0,0,0-.63.4c-.35.37-.67.78-1,1.17H62l.19-.13s0,.09,0,.13h3.15c0-.33-.07-.66-.12-1S65,148.71,64.79,148.89Z"/><path class="cls-5" d="M71.46,80.45a4.29,4.29,0,0,0,.27,1.11,1.8,1.8,0,0,0,.75.84c.22.14.49,0,.74-.05.07,0,.14,0,.22-.06a.38.38,0,0,1,.41.13c.3.6.76.55,1.28.38.07,0,.15,0,.23,0a.48.48,0,0,0,.43-.38A9.64,9.64,0,0,0,76,81.21a5.18,5.18,0,0,1,.19-1.35,1,1,0,0,0,0-.6l-.36-1.56c-.07-.32-.14-.64-.2-1a2.32,2.32,0,0,0-.47-.94.25.25,0,0,0-.4,0c-.13.12-.24.27-.37.39a.3.3,0,0,1-.41,0,.63.63,0,0,1-.22-.21.71.71,0,0,0-1-.28,4.36,4.36,0,0,0-.51.17c-.9.5-1.16.27-1.06,1.72C71.29,78.53,71.38,79.49,71.46,80.45Z"/><path class="cls-5" d="M114.14,112.33c0-.1-.2-.15-.31-.21s-.1,0-.13,0a.18.18,0,0,0,0,.14c.22.62.42,1.25.66,1.86a3.2,3.2,0,0,0,.4.63.16.16,0,0,0,.13.06.19.19,0,0,0,.11-.08c0-.12.05-.25.07-.34a1.18,1.18,0,0,0,0-.19A5.75,5.75,0,0,0,114.14,112.33Z"/><path class="cls-5" d="M77.47,133.26a6.5,6.5,0,0,0-1,1.22s0,.1,0,.12.06,0,.07,0a4,4,0,0,0,1.12-1.1c.1-.18.3-.33.27-.59C77.67,132.83,77.63,133.13,77.47,133.26Z"/><path class="cls-5" d="M149.7,91.87a2.61,2.61,0,0,0-1.15.38,1.79,1.79,0,0,1-1.57.39c-.09,0-.2,0-.3,0-.51,0-1,0-1.38-.5A.65.65,0,0,0,145,92a1.89,1.89,0,0,1-.67-.36,1.56,1.56,0,0,0-.52-.31,14.31,14.31,0,0,1-1.34-.52,1.81,1.81,0,0,1-.87-.58,1.47,1.47,0,0,0-.47-.39c-.32-.16-.62-.36-.95-.49a2.89,2.89,0,0,1-.93-.61,4.9,4.9,0,0,1-1-1.08,1.58,1.58,0,0,0-.45-.51.84.84,0,0,1-.37-.64,1.68,1.68,0,0,0-.54-1.06,1.61,1.61,0,0,1-.39-.47,2.73,2.73,0,0,0-.66-.92c-.2-.23-.38-.47-.56-.72a18.27,18.27,0,0,0-1.15-1.62,1.16,1.16,0,0,1-.22-.39,2.28,2.28,0,0,0-.55-.82,2.69,2.69,0,0,1-.74-1.31,1.17,1.17,0,0,0-.3-.61,15.8,15.8,0,0,1-1-1.5,2.85,2.85,0,0,1-.45-1.29,1.25,1.25,0,0,0-.54-1c-.45-.24-.58-.68-.81-1.06a.85.85,0,0,1-.08-.52,3,3,0,0,0-.76-2.16,2.51,2.51,0,0,1-.42-.7,7.31,7.31,0,0,0-.48-1.28c-.21-.32-.47-.6-.67-.92a8.82,8.82,0,0,1-.41-1.13,16.29,16.29,0,0,1-1-2.23,3.5,3.5,0,0,0-.29-.62.52.52,0,0,0-.42-.29c0,.28.26.57,0,.85,0,0,0,.2,0,.29a8.77,8.77,0,0,0,.5,1,9.78,9.78,0,0,1,1,2,1.11,1.11,0,0,0,.08.29,9.41,9.41,0,0,1,.69,1.43,14.23,14.23,0,0,1,.86,1.86,1.94,1.94,0,0,0,.37.66,2,2,0,0,1,.48,1.17.13.13,0,0,1-.1,0c-.08,0-.14-.09-.22-.12a.63.63,0,0,0,.1.48,3.69,3.69,0,0,1,.5,1.65.77.77,0,0,0,.1.29,16.68,16.68,0,0,0,1,2,9.15,9.15,0,0,0,1,1.51l0,.06a14.64,14.64,0,0,0,1.14,2.23,1.2,1.2,0,0,0,.38.56,1.37,1.37,0,0,1,.62,1.16,1.48,1.48,0,0,0,.46.93c.31.33.59.7.9,1s.22.59.46.78a3.8,3.8,0,0,1,.7.57,2.49,2.49,0,0,1,.34.4,3.45,3.45,0,0,0,1.39,1.56.58.58,0,0,1,.12.1,11.84,11.84,0,0,0,1.28,1.17,5.11,5.11,0,0,0,1.17.84,4.35,4.35,0,0,1,1,.69,2.61,2.61,0,0,0,1,.56,6.12,6.12,0,0,1,1.05.44,1.69,1.69,0,0,0,1,.25.74.74,0,0,1,.67.3.56.56,0,0,0,.64.26.72.72,0,0,1,.76.4.25.25,0,0,1-.19.39,1,1,0,0,1-.66-.14.58.58,0,0,0-.57,0c-.35.13-.72.25-1.08.37a.37.37,0,0,0,.47.28,1.88,1.88,0,0,1,1.05.08,1.79,1.79,0,0,0,1.51.11h.07c.46.1.83-.2,1.25-.26a.54.54,0,0,0,.51-.56,1.75,1.75,0,0,1,.18-.81.19.19,0,0,1,.11-.09s.11,0,.12,0a3.64,3.64,0,0,1,.36,1.16,3.23,3.23,0,0,0,0,.53c0,.11.1.21.2.13l.12-.07V91.91A.5.5,0,0,0,149.7,91.87Z"/><path class="cls-5" d="M119.57,54.47a1.76,1.76,0,0,0-.44-.62c-.12.18,0,.29.1.41a2.35,2.35,0,0,1,.27.63.19.19,0,0,1-.2.24,1,1,0,0,1-1-.75,1.56,1.56,0,0,0-.62-.85,2.07,2.07,0,0,1-.64-.83,8.14,8.14,0,0,0-1.8-2.51,3.75,3.75,0,0,1-.6-.79c-.32-.49-.62-1-.94-1.49a1.27,1.27,0,0,0-.24-.28.19.19,0,0,0-.3.09c0,.3-.12.6-.14.9a1.8,1.8,0,0,0,.21,1l.57,1.08a1,1,0,0,1,.21.71l.12.26c.08.08.21.16.25.26a8.22,8.22,0,0,1,.58,1.62l.07.12a.15.15,0,0,1,.12.17.74.74,0,0,1,.21.4s.1,0,.11.09a10.91,10.91,0,0,1,.79,2,.05.05,0,0,1,0,.07,4.9,4.9,0,0,1,.74,1.46l0,.06s0,0,0,0l1.05,2.36a.41.41,0,0,1,0,.15l.14.34a2.07,2.07,0,0,1,.34.39.89.89,0,0,1,.15.49l.11.2a1.41,1.41,0,0,1,.38.86.09.09,0,0,1,0,.1.31.31,0,0,1,.19.36.65.65,0,0,1,.13.38.34.34,0,0,1,.17.39l.16.35a3.93,3.93,0,0,1,1,1.93.1.1,0,0,1,0,.1,3.6,3.6,0,0,1,.85,1.74.13.13,0,0,1,.06.11c.22.1.3.33.44.5a11.67,11.67,0,0,1,1,1.78.72.72,0,0,1,.1.5l.08.21a.63.63,0,0,1,.26.54h0a2,2,0,0,1,.78.9,15.36,15.36,0,0,1,1.23,2.59.47.47,0,0,1,.3.47.91.91,0,0,1,.51.86v0a5.23,5.23,0,0,1,1.18,2,2.76,2.76,0,0,1,.63,1.07,1.25,1.25,0,0,1,.6.92,1.16,1.16,0,0,1,.42.53,10.27,10.27,0,0,0,1.42,2.15,1.59,1.59,0,0,1,.3.43,8.71,8.71,0,0,0,1.53,2.16c.43.55.93,1.06,1.36,1.61a5.81,5.81,0,0,0,.43.43.89.89,0,0,1,.22.21c.35.81,1.17,1.16,1.73,1.77a4.36,4.36,0,0,1,1.23,1,4.09,4.09,0,0,0,1.29.93,1.1,1.1,0,0,1,.49.36,4.77,4.77,0,0,0,1.93,1.29,12.72,12.72,0,0,1,1.48.6c.27-.15.27-.15.48.05l.45,0a.34.34,0,0,1,.3.17c.36-.12.73-.24,1.08-.37a.58.58,0,0,1,.57,0,1,1,0,0,0,.66.14.25.25,0,0,0,.19-.39.72.72,0,0,0-.76-.4.56.56,0,0,1-.64-.26.74.74,0,0,0-.67-.3,1.69,1.69,0,0,1-1-.25,6.12,6.12,0,0,0-1.05-.44,2.61,2.61,0,0,1-1-.56,4.35,4.35,0,0,0-1-.69,5.11,5.11,0,0,1-1.17-.84,11.84,11.84,0,0,1-1.28-1.17.58.58,0,0,0-.12-.1A3.45,3.45,0,0,1,136.39,87a2.49,2.49,0,0,0-.34-.4,3.8,3.8,0,0,0-.7-.57c-.24-.19-.23-.55-.46-.78s-.59-.7-.9-1a1.48,1.48,0,0,1-.46-.93,1.37,1.37,0,0,0-.62-1.16,1.2,1.2,0,0,1-.38-.56,14.64,14.64,0,0,1-1.14-2.23l0-.06a9.15,9.15,0,0,1-1-1.51,16.68,16.68,0,0,1-1-2,.77.77,0,0,1-.1-.29,3.69,3.69,0,0,0-.5-1.65.63.63,0,0,1-.1-.48c.08,0,.14.11.22.12a.13.13,0,0,0,.1,0,2,2,0,0,0-.48-1.17,1.94,1.94,0,0,1-.37-.66,14.23,14.23,0,0,0-.86-1.86,9.41,9.41,0,0,0-.69-1.43,1.11,1.11,0,0,1-.08-.29,9.78,9.78,0,0,0-1-2,8.77,8.77,0,0,1-.5-1c0-.09-.06-.24,0-.29.3-.28.08-.57,0-.85a.16.16,0,0,1,0-.19.65.65,0,0,1-.41-.87.83.83,0,0,1-.27-.48c-.21-.09-.28-.34-.53-.41s-.26-.17-.13-.48a1.18,1.18,0,0,1,.11-.19l-.08-.29c-.18-.11-.32-.24-.23-.48a.59.59,0,0,1-.2-.44,1.56,1.56,0,0,1-.46-.92.48.48,0,0,1-.15-.29c-.37-.15-.59-.56-1-.59a.19.19,0,0,1-.15-.14,3.88,3.88,0,0,0-.61-1.11.44.44,0,0,1-.06-.43c-.08,0-.1-.08,0-.13l.07.08h0l.14,0h0c0-.31-.24-.59-.18-.92l0,0v0a.35.35,0,0,1-.28-.4.53.53,0,0,1-.21-.33A.7.7,0,0,1,119.57,54.47Zm9,18.86h0Z"/><path class="cls-5" d="M96.66,32.16a5,5,0,0,0,.67,0,6.27,6.27,0,0,1,1.73.22,6.15,6.15,0,0,0,1.19.25,3.2,3.2,0,0,1,1.08.36.83.83,0,0,1,.18.13.62.62,0,0,1,.12.19,1.88,1.88,0,0,0,.59.78,2.56,2.56,0,0,0,.88.42.79.79,0,0,1,.35.15c.52.52,1.28.74,1.71,1.37a.36.36,0,0,0,.18.13,2.58,2.58,0,0,1,.78.47,6.58,6.58,0,0,1,2.59,2.69,3.23,3.23,0,0,1,.48,1,.55.55,0,0,0,.12.27,13.83,13.83,0,0,0,.91,1.31,1.19,1.19,0,0,1,.38.81,1.71,1.71,0,0,0,.75,1.26,1.08,1.08,0,0,0-.19-.57A1.46,1.46,0,0,1,111,43a3.06,3.06,0,0,0-.76-1.55,2.51,2.51,0,0,1-.54-1.25c0-.24-.19-.5,0-.72s.38,0,.57,0a.16.16,0,0,0,.15-.22.66.66,0,0,0-.15-.34c-.43-.43-.78-.93-1.22-1.36a11.51,11.51,0,0,1-1.38-1.41,1.93,1.93,0,0,0-1-.73,1.7,1.7,0,0,1-.5-.34,5.35,5.35,0,0,0-2.41-1.24,2.29,2.29,0,0,1-.84-.34,6.83,6.83,0,0,0-1.36-.66A24.44,24.44,0,0,0,98.34,32L98,32a16.41,16.41,0,0,1-2.8-.29.73.73,0,0,0-.52.09l.64.19A6.41,6.41,0,0,0,96.66,32.16Z"/><path class="cls-5" d="M112.13,46.16c-.25-.1-.23-.37-.34-.56a.3.3,0,0,1,0-.33c-.26.09-.4-.1-.53-.25a4.73,4.73,0,0,0-.37-.4,1.37,1.37,0,0,0-.45-.3.65.65,0,0,0,.08.28,9,9,0,0,1,1.14,2.06,2.61,2.61,0,0,0,.36.57,3,3,0,0,1,.6,1.3,8.77,8.77,0,0,0,1.25,2.75.54.54,0,0,0,.12.09,1,1,0,0,0-.21-.71l-.57-1.08a1.8,1.8,0,0,1-.21-1c0-.3.09-.6.14-.9a.19.19,0,0,1,.3-.09,1.27,1.27,0,0,1,.24.28c.32.5.62,1,.94,1.49a3.75,3.75,0,0,0,.6.79A8.14,8.14,0,0,1,117,52.7a2.07,2.07,0,0,0,.64.83,1.56,1.56,0,0,1,.62.85,1,1,0,0,0,1,.75.19.19,0,0,0,.2-.24,2.35,2.35,0,0,0-.27-.63c-.06-.12-.22-.23-.1-.41a1.76,1.76,0,0,1,.44.62.7.7,0,0,0,.69.38.43.43,0,0,0-.11-.42,5.24,5.24,0,0,1-.69-1,1.14,1.14,0,0,0-.23-.3,2.28,2.28,0,0,1-.73-1,4.46,4.46,0,0,0-.35-.5.59.59,0,0,0-.53-.24,1.2,1.2,0,0,1-1-.43c-.4-.36-.77-.74-1.15-1.12a2.88,2.88,0,0,1-.39-.46c-.39-.56-.77-1.13-1.15-1.7a4.61,4.61,0,0,0-.47-.6,3.37,3.37,0,0,1-.88-1.32.58.58,0,0,0-.4-.42.75.75,0,0,0,0,.15C112.18,45.75,112.38,46,112.13,46.16Z"/><path class="cls-5" d="M121,56.56v0s0,0,0,0h0s-.06,0,0,0v0l-.14,0h0l0,.05a.44.44,0,0,0,.06.43,3.88,3.88,0,0,1,.61,1.11.19.19,0,0,0,.15.14c.44,0,.66.44,1,.59a.91.91,0,0,0-.29-.75,1.62,1.62,0,0,1-.49-1c0-.53-.61-.78-.77-1.27a.38.38,0,0,0-.3-.21C120.71,56,120.92,56.25,121,56.56Z"/><path class="cls-5" d="M111.81,45.24H112a1.29,1.29,0,0,0-.67-1.23,2.66,2.66,0,0,0,.33.82A.63.63,0,0,1,111.81,45.24Z"/><path class="cls-5" d="M111.81,45.26s0,0,0,0a.3.3,0,0,0,0,.33c.11.19.09.46.34.56.25-.19.05-.41,0-.62a.75.75,0,0,1,0-.15l-.14-.14h-.22Z"/><path class="cls-5" d="M125.73,75.14a15.36,15.36,0,0,0-1.23-2.59,2,2,0,0,0-.78-.9,1.5,1.5,0,0,0,.29.92c.44.76.93,1.49,1.31,2.29a.43.43,0,0,0,.4.28h0Z"/><path class="cls-5" d="M126.59,77.22l.53.91a.65.65,0,0,0,.6.38,5.23,5.23,0,0,0-1.18-2A.76.76,0,0,0,126.59,77.22Z"/><path class="cls-5" d="M128.35,79.58c-.24.44-.21.63.18.82a1.84,1.84,0,0,0,.42.1A1.25,1.25,0,0,0,128.35,79.58Z"/><path class="cls-5" d="M126,75.61h0a1.06,1.06,0,0,0,.11.63.36.36,0,0,0,.41.23A.91.91,0,0,0,126,75.61Z"/><path class="cls-5" d="M16.74,92.71c.5-.43,1-.85,1.49-1.3s.93-.94,1.36-1.44.55-.79.84-1.18.61-.8.88-1.24a7.22,7.22,0,0,1,1.35-1.72.51.51,0,0,0,.18-.24,12.21,12.21,0,0,1,1-2.15,23.18,23.18,0,0,1,1.72-2.87,5.81,5.81,0,0,0,.92-1.74,2.7,2.7,0,0,1,.33-.76,12.81,12.81,0,0,0,.86-1.79A35.51,35.51,0,0,0,29.15,73c.2-.63.5-1.22.76-1.83s.39-.94.6-1.4.56-1.19.84-1.79.42-1.15.68-1.7c.56-1.17,1-2.38,1.53-3.56s.91-2.48,1.37-3.72a2.24,2.24,0,0,1,.14-.36A15.35,15.35,0,0,0,36,56.43c.66-1.68,1.3-3.36,2-5a2.47,2.47,0,0,0,.1-.29l.71-1.92a2.13,2.13,0,0,1,.28-.54,2.6,2.6,0,0,0,.38-.83,3.11,3.11,0,0,1,.33-.93,8.71,8.71,0,0,0,.86-1.86,8.46,8.46,0,0,0,.5-.94,4.32,4.32,0,0,1,.73-1.49,1.8,1.8,0,0,0,.24-.48c.27-.74.76-1.37,1.09-2.08a4,4,0,0,1,.65-.94,5.53,5.53,0,0,0,1-1.45,18.33,18.33,0,0,1,1.31-1.86c.05-.08.16-.12.23-.19a6.6,6.6,0,0,0,.92-.91,15.36,15.36,0,0,1,1.46-1.55,24.37,24.37,0,0,1,2.8-2.47c.46-.36.93-.7,1.38-1.08a15.92,15.92,0,0,1,1.39-1.06,8.18,8.18,0,0,0,1.33-1A2.57,2.57,0,0,1,57,26.67a.87.87,0,0,0,.27-.14,11.85,11.85,0,0,1,2.47-1.16c.39-.11.77-.25,1.16-.39a18.23,18.23,0,0,1,3.42-.71,8.11,8.11,0,0,1,1.3-.08,2.45,2.45,0,0,1,1.19.21,11.27,11.27,0,0,1,2.65,1.9.51.51,0,0,1,.19.32,2.73,2.73,0,0,1,.92.87.22.22,0,0,1,.28.2,2.78,2.78,0,0,1,.78.71.68.68,0,0,1,.15,0,5,5,0,0,1,1.06.95.66.66,0,0,1,.32.25,1.49,1.49,0,0,1,.9.67l.17.12c.16,0,.25,0,.29.19l.16.1c.27,0,.39.13.46.35l.16.09a.32.32,0,0,1,.37.18l.24.1a.32.32,0,0,1,.34.22c.56.29,1.13.56,1.68.86a20.35,20.35,0,0,0,3.13,1.4,37.16,37.16,0,0,0,3.85,1.18,8.53,8.53,0,0,0,3.69.26.55.55,0,0,1,.44.06,1.76,1.76,0,0,0,1,.21c.76,0,1.51-.11,2.27,0a3.14,3.14,0,0,0,1.06,0,3.29,3.29,0,0,1,1.43,0,.67.67,0,0,0,.7-.14.34.34,0,0,1,.36-.07,16.36,16.36,0,0,0,1.73.23,12.52,12.52,0,0,1,4.2,1.47c.65.39,1.33.74,2,1.12a8.08,8.08,0,0,1,1.64,1.34,1.83,1.83,0,0,0,1,.65.87.87,0,0,1,.43.31,2.43,2.43,0,0,0,.44.41,3.2,3.2,0,0,1,.85.87,6.14,6.14,0,0,0,.87,1,3.67,3.67,0,0,1,.44.52.53.53,0,0,0,.42.45,2.11,2.11,0,0,1,.52.59,1.37,1.37,0,0,1,.45.3,4.73,4.73,0,0,1,.37.4c.13.15.27.34.53.25,0,0,0,0,0,0v0a.63.63,0,0,0-.12-.4,2.66,2.66,0,0,1-.33-.82h0a1.71,1.71,0,0,1-.75-1.26,1.19,1.19,0,0,0-.38-.81,13.83,13.83,0,0,1-.91-1.31.55.55,0,0,1-.12-.27,3.23,3.23,0,0,0-.48-1,6.58,6.58,0,0,0-2.59-2.69,2.58,2.58,0,0,0-.78-.47.36.36,0,0,1-.18-.13c-.43-.63-1.19-.85-1.71-1.37a.79.79,0,0,0-.35-.15,2.56,2.56,0,0,1-.88-.42,1.88,1.88,0,0,1-.59-.78.62.62,0,0,0-.12-.19.83.83,0,0,0-.18-.13,3.2,3.2,0,0,0-1.08-.36,6.15,6.15,0,0,1-1.19-.25,6.27,6.27,0,0,0-1.73-.22,5,5,0,0,1-.67,0,6.41,6.41,0,0,1-1.3-.21l-.64-.19a1.15,1.15,0,0,1-.61,0,11.56,11.56,0,0,1-2.2,0h-1.6c-.89,0-1.77-.05-2.66-.09a1,1,0,0,1-.57-.19,1.36,1.36,0,0,1-.6-.07c-.53-.06-1.07-.11-1.6-.18a.51.51,0,0,1-.47-.31l-.22-.11c-.29.06-.52-.15-.76-.23a3.15,3.15,0,0,1-1.08-.47A.6.6,0,0,1,82,30h0a.08.08,0,0,1-.09,0,.42.42,0,0,1-.49-.22,1.61,1.61,0,0,1-.74-.55,2.45,2.45,0,0,1-1.37-.7l-.15-.09a1.82,1.82,0,0,1-1.28-.8,7,7,0,0,1-1.58-.88c-.24-.17-.35-.44-.59-.58-.84-.49-1.4-1.33-2.26-1.8l-.52-.24a9.89,9.89,0,0,1-2.41-1.66c-.22-.12-.45-.24-.69-.35a11.18,11.18,0,0,0-1.53-.6,3.4,3.4,0,0,0-1.1-.26,6.4,6.4,0,0,1-1-.19,3.84,3.84,0,0,0-1.43-.15h-.38a15.32,15.32,0,0,0-3,.06,4.84,4.84,0,0,1-.76,0,1.17,1.17,0,0,0-.38,0c-.61.28-1.28.32-1.9.55A25.52,25.52,0,0,0,54.82,23a10,10,0,0,0-1.69,1,1.2,1.2,0,0,1-.54.27,2.33,2.33,0,0,0-1.17.68,1.05,1.05,0,0,1-.29.23A8.27,8.27,0,0,0,48.63,27a1.92,1.92,0,0,1-.38.25A3,3,0,0,0,47,28.49a.7.7,0,0,1-.46.38,1,1,0,0,0-.53.27,29.63,29.63,0,0,0-3.66,4.17l-.09.12a6.91,6.91,0,0,0-1.57,2.32,1,1,0,0,1-.35.4,1.23,1.23,0,0,0-.45.6,3.29,3.29,0,0,1-.29.52,11.83,11.83,0,0,0-1.28,2.34,5.25,5.25,0,0,1-.27.79,14.06,14.06,0,0,0-.74,1.51A11.68,11.68,0,0,0,36.48,44,13,13,0,0,1,36,45.79,21.52,21.52,0,0,1,34.75,49a.47.47,0,0,0-.06.15c-.32,1.42-1.11,2.67-1.55,4a1.35,1.35,0,0,1-.19.33A4.44,4.44,0,0,0,32.28,55c-.41,1.64-1.25,3.11-1.75,4.71a.91.91,0,0,1-.07.14C30,61,29.44,62.2,29,63.38a22.77,22.77,0,0,1-1,2.4c-.36.7-.65,1.43-1,2.15-.09.21-.22.41-.32.61s-.34.69-.49,1a1.78,1.78,0,0,1-.42.72,1.25,1.25,0,0,0-.43.78,1,1,0,0,1-.34.65.63.63,0,0,0-.16.26,12.29,12.29,0,0,0-.58,1.41,3.25,3.25,0,0,1-.9,1.47,2.22,2.22,0,0,0-.53.83,9.51,9.51,0,0,1-.87,1.6,3.33,3.33,0,0,0-.58,1.14.94.94,0,0,1-.24.39,2.34,2.34,0,0,0-.52.92,2,2,0,0,1-.32.6c-.71,1-1.25,2.09-2,3.07a.7.7,0,0,0-.14.27,2.5,2.5,0,0,1-.41.73L16.57,86.3a2.21,2.21,0,0,1-.55.63,2.24,2.24,0,0,0-.49.57,9.69,9.69,0,0,1-2.8,2.65c-.41.25-.83.49-1.25.73a.87.87,0,0,0-.51.63,1.29,1.29,0,0,0,.27,1.14,1.1,1.1,0,0,0,.81.48,1.44,1.44,0,0,1,.52.14,1.19,1.19,0,0,0,.89,0,1.16,1.16,0,0,1,.82,0,1,1,0,0,0,.81-.07,2,2,0,0,1,.39-.14A1.61,1.61,0,0,1,16,93,1.2,1.2,0,0,0,16.74,92.71Z"/><path class="cls-5" d="M123.72,71.65a.63.63,0,0,0-.26-.54C123.41,71.35,123.44,71.56,123.72,71.65Z"/><path class="cls-5" d="M126,75.61a.47.47,0,0,0-.3-.47h0c0,.34,0,.35.3.47Z"/><path class="cls-6" d="M75.9,47.86l0,0,0-.05,0,0S75.91,47.84,75.9,47.86Z"/><path class="cls-5" d="M123.76,62c.25.07.32.32.53.41.13-.56,0-.75-.55-1.08a1.18,1.18,0,0,0-.11.19C123.5,61.78,123.5,61.87,123.76,62Z"/><path class="cls-5" d="M125,63.71c.12-.64.1-.68-.41-.87A.65.65,0,0,0,125,63.71Z"/><path class="cls-5" d="M123.31,59.64a.8.8,0,0,0-.54-.49,1.56,1.56,0,0,0,.46.92A.38.38,0,0,0,123.31,59.64Z"/><path class="cls-5" d="M123.66,61c.14-.31.13-.31-.23-.48C123.34,60.75,123.48,60.88,123.66,61Z"/><path class="cls-5" d="M120.75,55.58a.36.36,0,0,0-.28-.4A.35.35,0,0,0,120.75,55.58Z"/><path class="cls-5" d="M122.33,68.62c-.14-.17-.22-.4-.44-.5a.94.94,0,0,0,.14.65,8.15,8.15,0,0,1,.86,1.59.8.8,0,0,0,.49.54.72.72,0,0,0-.1-.5A11.67,11.67,0,0,0,122.33,68.62Z"/><path class="cls-5" d="M118.15,60.23l-1.05-2.36s0,0,0,0c0,.48.24.92.15,1.41a.26.26,0,0,0,.08.2c.36.25.49.7.85.94A.41.41,0,0,0,118.15,60.23Z"/><path class="cls-5" d="M120.8,66.11a.45.45,0,0,0,.14.06,3.93,3.93,0,0,0-1-1.93A3.73,3.73,0,0,0,120.8,66.11Z"/><path class="cls-5" d="M121.33,67.58a.65.65,0,0,0,.5.43,3.6,3.6,0,0,0-.85-1.74C121.1,66.71,121.2,67.15,121.33,67.58Z"/><path class="cls-5" d="M114.11,51.63a2.56,2.56,0,0,0,.34,1.23c.12.24.2.52.49.65a8.22,8.22,0,0,0-.58-1.62C114.32,51.79,114.19,51.71,114.11,51.63Z"/><path class="cls-5" d="M115.34,54.2A5,5,0,0,0,116,56c0,.1.18.16.27.24a10.91,10.91,0,0,0-.79-2S115.38,54.23,115.34,54.2Z"/><path class="cls-5" d="M117,57.77a4.9,4.9,0,0,0-.74-1.46A1.57,1.57,0,0,0,117,57.77Z"/><path class="cls-5" d="M118.27,60.72a.87.87,0,0,0,.49.88.89.89,0,0,0-.15-.49A2.07,2.07,0,0,0,118.27,60.72Z"/><path class="cls-5" d="M119.25,62.66a1.41,1.41,0,0,0-.38-.86C118.85,62.15,118.88,62.48,119.25,62.66Z"/><path class="cls-5" d="M119.3,62.76a.37.37,0,0,0,.19.36A.31.31,0,0,0,119.3,62.76Z"/><path class="cls-5" d="M119.79,63.89a.34.34,0,0,0-.17-.39A.39.39,0,0,0,119.79,63.89Z"/><path class="cls-5" d="M115,53.63l.12.17A.15.15,0,0,0,115,53.63Z"/><path class="cls-5" d="M120.81,56.54l-.07-.08c-.07,0,0,.1,0,.13l0-.05Z"/><path class="cls-7" d="M128.6,73.34h0"/><path class="cls-5" d="M121,56.6c-.06,0,0,0,0,0Z"/><path class="cls-5" d="M121,56.6h0s0,0,0,0v0h0Z"/></g></g></svg>