<?xml version="1.0" standalone="no"?>
<!DOCTYPE svg PUBLIC "-//W3C//DTD SVG 20010904//EN"
 "http://www.w3.org/TR/2001/REC-SVG-20010904/DTD/svg10.dtd">
<svg version="1.0" xmlns="http://www.w3.org/2000/svg"
 width="700.000000pt" height="700.000000pt" viewBox="0 0 700.000000 700.000000"
 preserveAspectRatio="xMidYMid meet">
<metadata>
Created by potrace 1.14, written by Peter Selinger 2001-2017
</metadata>
<g transform="translate(0.000000,700.000000) scale(0.100000,-0.100000)"
fill="#000000" stroke="none">
<path d="M2830 5930 c-183 -24 -464 -173 -645 -344 -38 -36 -72 -66 -76 -66
-3 0 -41 -42 -84 -92 -100 -118 -229 -315 -251 -382 -9 -28 -27 -71 -39 -96
-13 -25 -46 -114 -75 -199 -28 -85 -78 -216 -110 -290 -32 -75 -61 -147 -65
-161 -18 -57 -186 -452 -232 -545 -28 -55 -67 -134 -87 -175 -47 -95 -52 -103
-106 -192 -24 -40 -51 -86 -60 -103 -76 -143 -224 -372 -267 -412 -15 -15 -37
-23 -58 -23 -44 0 -96 -29 -178 -98 -169 -144 -282 -339 -418 -722 -6 -19 -22
-60 -34 -90 -50 -121 -59 -252 -24 -346 23 -61 41 -81 218 -244 144 -132 165
-170 165 -305 0 -52 -7 -116 -17 -152 -44 -165 -161 -427 -305 -685 -55 -96
-82 -155 -82 -176 l0 -32 629 0 629 0 149 228 c316 481 394 652 395 862 0 207
-86 349 -312 510 -172 122 -229 213 -237 374 -6 117 13 201 74 326 41 84 60
108 157 205 73 73 167 151 274 229 183 133 263 207 352 327 34 46 67 88 74 94
39 31 246 326 246 349 0 8 13 30 28 48 38 44 95 150 116 215 10 28 24 57 32
63 8 7 27 54 43 104 15 50 42 118 58 151 50 99 176 424 262 680 45 132 84 247
87 255 7 21 85 -152 132 -296 22 -67 59 -204 82 -305 99 -435 128 -513 232
-625 47 -50 80 -74 142 -104 156 -74 291 -94 611 -92 266 2 311 -5 425 -60 90
-43 183 -139 236 -243 90 -174 113 -301 139 -760 25 -445 50 -607 115 -735 46
-91 134 -248 155 -275 42 -56 103 -352 125 -610 5 -66 10 -271 10 -456 0 -185
3 -364 6 -398 l7 -61 678 0 c374 0 679 2 679 5 0 3 -9 24 -20 45 -35 69 -80
275 -92 425 -20 253 0 329 240 885 l37 85 3 364 c3 356 2 366 -19 420 -26 65
-129 256 -172 319 -16 24 -46 81 -68 128 -21 46 -43 84 -49 84 -5 0 -10 7 -10
15 0 8 -17 25 -37 38 -41 26 -151 138 -198 203 -16 21 -44 56 -62 76 -50 57
-82 113 -140 243 -37 80 -68 134 -97 165 -57 61 -126 178 -274 470 -135 264
-263 479 -325 547 -22 24 -67 60 -101 82 -87 55 -158 138 -234 272 -17 30 -41
64 -52 74 -11 10 -20 25 -20 34 0 9 -13 32 -29 51 -30 37 -61 92 -61 109 0 5
15 11 33 13 l32 3 -73 73 c-91 89 -146 127 -218 152 -31 11 -70 28 -88 39 -71
44 -137 53 -446 61 -373 9 -419 20 -659 150 -129 69 -156 86 -225 146 -54 46
-183 114 -264 138 -65 19 -226 27 -312 16z"/>
<path d="M3393 3442 c-12 -2 -33 -14 -48 -28 -20 -19 -25 -31 -21 -52 3 -15 8
-59 11 -98 4 -43 15 -84 26 -103 16 -26 25 -31 58 -31 21 0 44 -6 50 -14 13
-15 55 -10 71 9 21 25 24 141 5 220 -19 83 -36 105 -61 84 -13 -10 -20 -10
-42 2 -15 8 -37 13 -49 11z"/>
<path d="M2957 3356 c-14 -11 -25 -11 -46 -3 -40 15 -77 2 -89 -30 -38 -97
-47 -151 -47 -283 1 -113 4 -141 20 -175 19 -38 22 -40 62 -37 23 1 44 -2 48
-8 3 -5 21 -10 40 -10 43 0 42 -6 51 308 7 267 6 272 -39 238z"/>
<path d="M3460 2479 c-157 -75 -286 -124 -398 -150 -119 -27 -243 -68 -264
-87 -34 -29 -18 -134 25 -164 13 -8 116 -22 147 -19 44 4 233 59 306 89 39 16
90 44 114 61 24 17 47 31 52 31 4 0 33 16 62 36 64 42 132 129 142 180 6 32 3
39 -22 60 -16 13 -31 23 -34 23 -3 0 -61 -27 -130 -60z"/>
<path d="M1925 2086 c-25 -20 -30 -31 -29 -68 2 -111 91 -200 318 -319 234
-123 550 -210 886 -244 103 -10 96 -3 103 -113 6 -96 30 -334 43 -424 5 -35 2
-57 -11 -84 -9 -20 -15 -44 -12 -54 3 -13 0 -16 -14 -13 -14 4 -16 9 -9 23 7
12 7 28 0 44 -11 29 -13 30 -38 17 -9 -6 -48 -20 -86 -32 -115 -36 -235 -150
-489 -464 -63 -77 -144 -183 -182 -235 -37 -52 -72 -101 -78 -107 -7 -10 134
-13 699 -13 l709 0 18 73 c20 84 13 127 -23 127 -17 0 -19 4 -14 27 11 45 16
48 33 16 9 -16 54 -77 100 -136 l84 -107 330 0 329 0 -17 26 c-10 16 -14 35
-10 52 4 22 -6 46 -53 119 -32 50 -73 130 -91 176 -17 46 -41 93 -53 103 -11
11 -37 44 -56 74 -39 61 -77 110 -138 179 -22 25 -56 69 -76 96 -45 62 -163
177 -204 198 -44 23 -130 33 -149 17 -8 -7 -22 -9 -31 -6 -9 4 -23 1 -31 -6
-22 -18 -33 6 -33 71 0 50 1 53 15 35 14 -18 14 -17 15 14 0 36 -18 212 -26
250 -3 14 -12 22 -24 22 -11 0 -20 7 -20 15 0 16 7 17 190 39 143 17 316 57
353 80 17 12 36 15 64 10 30 -4 50 -1 81 15 23 12 108 43 189 70 152 49 203
70 308 123 96 49 115 76 80 112 -13 13 -26 11 -118 -20 -56 -18 -111 -38 -122
-43 -59 -25 -237 -75 -378 -105 -65 -14 -128 -31 -139 -37 -21 -11 -49 -16
-273 -44 -314 -41 -574 -44 -761 -10 -223 41 -298 56 -315 65 -10 6 -27 10
-39 10 -11 0 -37 8 -58 19 -20 10 -59 22 -85 25 -27 4 -51 14 -54 22 -3 8 -16
14 -28 14 -13 0 -34 12 -47 28 -12 15 -47 40 -77 55 -29 16 -58 33 -65 38 -6
5 -31 23 -56 39 -53 35 -117 93 -147 135 -19 27 -24 29 -42 18 -27 -17 -39
-16 -57 2 -22 22 -55 18 -89 -9z m1609 -660 c-17 -43 -6 -183 25 -334 42 -207
42 -208 -20 -276 -53 -58 -77 -68 -100 -40 -7 9 -36 26 -63 38 -48 21 -51 24
-52 62 -16 321 -24 439 -34 487 -6 31 -8 62 -5 67 3 6 30 10 58 11 29 1 77 4
107 8 75 9 94 4 84 -23z"/>
</g>
</svg>
