<?xml version="1.0" standalone="no"?>
<!DOCTYPE svg PUBLIC "-//W3C//DTD SVG 20010904//EN"
 "http://www.w3.org/TR/2001/REC-SVG-20010904/DTD/svg10.dtd">
<svg version="1.0" xmlns="http://www.w3.org/2000/svg"
 width="1201.000000pt" height="1201.000000pt" viewBox="0 0 1201.000000 1201.000000"
 preserveAspectRatio="xMidYMid meet">
<metadata>
Created by potrace 1.14, written by Peter Selinger 2001-2017
</metadata>
<g transform="translate(0.000000,1201.000000) scale(0.100000,-0.100000)"
fill="#000000" stroke="none">
<path d="M4870 10330 c-156 -18 -446 -128 -587 -223 -29 -19 -69 -41 -89 -47
-19 -7 -50 -25 -67 -40 -18 -15 -49 -36 -69 -46 -50 -26 -200 -146 -268 -215
-30 -31 -68 -63 -85 -72 -35 -18 -211 -204 -280 -297 -27 -36 -64 -82 -82
-102 -18 -21 -44 -61 -59 -90 -14 -29 -38 -66 -53 -83 -38 -42 -138 -213 -163
-277 -11 -29 -40 -96 -65 -148 -25 -52 -56 -131 -70 -175 -62 -198 -118 -364
-140 -410 -12 -27 -23 -56 -23 -64 0 -18 -102 -259 -139 -331 -16 -30 -37 -82
-46 -115 -18 -63 -109 -298 -175 -450 -21 -50 -66 -158 -98 -240 -101 -252
-207 -479 -248 -528 -13 -16 -24 -34 -24 -41 0 -7 -18 -46 -39 -87 -21 -41
-44 -93 -51 -116 -7 -22 -30 -63 -51 -90 -22 -26 -49 -68 -60 -93 -12 -25 -37
-69 -56 -98 -18 -29 -44 -74 -57 -100 -93 -186 -362 -613 -450 -716 -105 -123
-202 -213 -276 -256 -103 -60 -120 -76 -120 -118 0 -92 75 -133 235 -127 50 1
117 8 150 15 37 7 115 11 200 8 125 -3 145 -6 190 -28 91 -45 110 -103 80
-240 -29 -130 -13 -203 51 -245 14 -9 32 -32 40 -51 l14 -34 73 0 c48 0 96 7
138 21 86 28 94 33 169 99 36 31 79 65 95 76 27 17 136 116 465 425 151 142
153 144 177 173 13 16 31 26 48 26 33 0 95 43 124 86 12 17 88 94 169 170 274
258 528 520 587 605 17 23 57 79 91 123 96 128 214 312 220 345 4 16 19 41 35
55 34 30 77 96 91 140 6 17 21 45 35 63 25 34 93 186 93 208 0 7 7 18 15 25
28 23 104 198 114 263 7 41 27 95 60 157 27 52 54 115 61 140 6 25 22 63 35
85 22 40 221 533 296 736 24 66 39 124 39 152 0 34 6 53 25 75 14 17 25 35 25
41 0 5 14 32 30 58 22 34 30 59 30 92 0 46 5 65 55 221 32 97 51 140 65 140
27 0 124 -218 168 -375 41 -148 82 -325 82 -351 0 -11 4 -24 9 -30 12 -13 34
-121 82 -404 98 -583 204 -866 401 -1070 158 -165 399 -275 668 -306 69 -8
133 -17 142 -20 9 -3 157 -7 330 -9 494 -7 553 -11 657 -45 156 -50 227 -91
332 -187 123 -113 136 -129 197 -243 155 -294 210 -606 227 -1285 18 -723 74
-1116 200 -1405 19 -41 37 -87 40 -103 4 -15 16 -32 26 -38 11 -5 19 -17 19
-27 0 -9 11 -39 25 -67 13 -27 25 -55 25 -62 0 -6 20 -26 45 -44 25 -18 52
-43 60 -56 9 -12 22 -23 30 -23 9 0 15 -9 15 -23 0 -13 5 -28 12 -35 20 -20
78 -14 123 12 67 40 106 127 175 391 72 275 128 393 240 506 91 92 155 125
272 140 46 5 116 14 157 20 134 17 276 92 386 204 43 43 77 93 119 173 73 139
129 198 240 253 147 72 261 82 623 52 175 -14 226 -15 294 -5 91 13 170 45
232 94 23 18 44 31 47 28 3 -3 6 51 8 119 l3 123 -38 -6 c-21 -4 -64 -21 -95
-37 -53 -27 -63 -29 -130 -23 -50 4 -84 13 -108 29 -78 50 -119 71 -195 102
-43 18 -93 46 -110 62 -16 15 -63 45 -102 66 -42 22 -88 55 -110 80 -85 97
-111 132 -117 162 -4 17 -22 48 -39 69 -18 22 -41 52 -52 69 -10 16 -37 52
-59 80 -23 28 -63 85 -91 128 -27 43 -67 99 -87 124 -21 26 -44 65 -52 88 -7
22 -39 78 -70 125 -52 78 -62 101 -81 184 -3 16 -22 43 -41 60 -46 40 -64 75
-64 124 0 53 -21 110 -64 173 -20 28 -41 72 -47 96 -7 24 -27 63 -45 87 -19
25 -45 73 -58 108 -54 143 -119 278 -134 278 -11 0 -13 7 -9 28 7 32 1 45 -30
61 -17 9 -23 21 -23 47 0 24 -7 42 -25 58 -14 13 -25 32 -25 43 0 11 -9 28
-20 38 -13 12 -17 25 -14 44 4 21 -1 32 -25 54 -17 15 -31 35 -31 45 0 9 -14
37 -30 61 -17 24 -30 51 -30 60 0 19 -69 121 -81 121 -5 0 -9 6 -9 13 0 7 -9
20 -20 30 -11 9 -20 23 -20 31 0 8 -21 45 -47 81 -27 36 -66 91 -89 123 -36
51 -45 58 -83 63 -35 5 -53 17 -112 75 -39 38 -97 107 -129 154 -31 47 -74
105 -95 130 -21 25 -43 56 -48 70 -6 14 -22 38 -34 53 -13 16 -23 36 -23 46 0
10 -9 26 -21 37 -22 20 -42 62 -64 131 -7 23 -29 64 -48 91 -37 49 -64 130
-53 157 4 11 13 14 31 9 38 -9 33 25 -11 78 -62 74 -234 248 -246 248 -6 0
-34 18 -62 39 -54 42 -150 91 -178 91 -9 0 -57 20 -106 45 -159 80 -449 130
-697 120 -256 -11 -707 26 -745 60 -9 8 -24 15 -32 15 -16 0 -95 31 -140 56
-14 7 -32 14 -38 14 -7 0 -35 16 -61 35 -27 19 -55 35 -63 35 -7 0 -31 13 -54
30 -22 16 -52 32 -66 36 -14 3 -37 17 -51 30 -15 14 -48 35 -74 49 -44 22 -92
60 -233 183 -27 23 -80 58 -117 77 -38 19 -99 57 -136 86 -103 79 -202 119
-380 153 -85 17 -331 20 -455 6z"/>
<path d="M5792 5936 c-29 -12 -62 -30 -73 -39 -23 -20 -24 -49 -5 -244 15
-154 31 -202 78 -237 24 -17 32 -18 65 -8 34 11 40 9 63 -13 36 -35 131 -31
150 6 6 9 17 68 25 129 16 111 16 112 -11 233 -26 121 -54 187 -78 187 -7 0
-21 -9 -31 -20 -24 -27 -43 -25 -71 5 -28 31 -44 31 -112 1z"/>
<path d="M5072 5814 l-32 -26 -35 22 c-25 16 -47 20 -82 18 l-48 -3 -33 -65
c-73 -145 -106 -408 -84 -662 8 -98 11 -110 44 -155 37 -52 62 -62 109 -43 24
10 32 9 55 -9 40 -31 108 -29 130 4 20 30 34 191 33 375 0 69 5 184 10 255 6
72 11 172 11 223 0 89 -1 92 -22 92 -13 0 -38 -12 -56 -26z"/>
<path d="M6025 4351 c-363 -175 -599 -259 -895 -320 -197 -41 -347 -96 -372
-136 -40 -66 -13 -210 48 -250 34 -22 168 -55 223 -55 65 1 404 89 546 142
113 42 195 84 209 107 4 5 47 31 95 57 110 57 193 122 229 176 15 22 40 55 57
72 26 27 64 118 65 154 0 20 -82 92 -105 92 -11 0 -56 -18 -100 -39z"/>
<path d="M3340 3691 c-52 -28 -81 -64 -87 -108 -7 -50 19 -151 54 -211 81
-141 332 -316 673 -470 192 -87 362 -151 455 -171 44 -10 118 -28 165 -39 156
-37 264 -61 355 -76 247 -41 296 -49 371 -55 44 -4 85 -11 92 -15 8 -5 10 -31
6 -84 -3 -42 -1 -104 5 -137 6 -33 17 -152 25 -265 8 -113 22 -269 32 -348
l18 -142 -31 -31 c-32 -33 -53 -32 -53 1 0 33 -32 42 -69 19 -17 -10 -43 -19
-57 -19 -13 0 -42 -9 -64 -20 -22 -11 -47 -20 -57 -21 -56 -2 -225 -124 -373
-270 -97 -96 -273 -289 -355 -390 -44 -54 -125 -154 -180 -221 -115 -141 -255
-324 -340 -448 -33 -47 -74 -104 -93 -128 l-34 -42 1231 0 c677 0 1231 2 1231
4 0 31 38 203 61 274 24 75 28 103 23 143 -4 28 -3 49 3 49 13 0 61 -53 134
-149 120 -159 204 -268 225 -295 l22 -26 358 0 357 0 52 40 c64 49 113 70 165
70 50 0 53 19 10 78 -16 23 -30 46 -30 51 0 4 -9 20 -21 35 -20 25 -20 27 -2
56 17 30 17 31 -7 77 -14 26 -48 77 -76 113 -60 77 -94 139 -94 174 0 83 -65
227 -118 261 -19 12 -31 29 -32 42 0 12 -11 34 -24 50 -13 15 -33 47 -45 70
-12 24 -33 50 -47 59 -14 10 -35 35 -46 58 -12 23 -48 70 -81 106 -33 36 -79
94 -103 130 -68 104 -263 302 -347 353 -68 42 -78 45 -163 51 -75 5 -94 3
-104 -9 -9 -11 -23 -14 -44 -9 -23 4 -39 0 -59 -16 -16 -12 -31 -20 -34 -17
-3 3 -6 39 -7 79 l-1 73 28 -3 c25 -3 27 -1 27 35 0 64 -38 482 -45 493 -3 6
-17 10 -30 10 -28 0 -42 17 -27 32 6 6 59 14 119 18 59 5 149 11 198 15 91 6
259 34 370 61 33 8 86 19 119 24 36 6 71 19 93 36 27 20 40 24 61 19 65 -19
116 -9 229 42 61 28 131 54 155 58 23 4 84 22 133 39 50 18 131 45 180 61 50
15 104 36 121 45 17 10 58 25 90 35 33 9 84 31 114 49 30 19 96 54 146 79 50
25 94 52 97 60 3 7 34 27 69 45 36 17 73 41 83 52 16 18 17 20 1 26 -10 4 -28
1 -40 -6 -13 -7 -32 -9 -43 -6 -51 16 -208 -23 -503 -126 -47 -16 -152 -46
-235 -68 -82 -21 -184 -48 -225 -59 -41 -11 -160 -37 -265 -57 -104 -20 -199
-41 -210 -47 -27 -14 -99 -27 -216 -36 -52 -4 -101 -11 -108 -15 -6 -4 -71 -9
-144 -11 -107 -2 -142 -6 -185 -24 -63 -25 -143 -27 -177 -5 -23 15 -27 15
-57 -4 -66 -39 -374 -35 -406 6 -10 14 -16 14 -32 4 -16 -10 -24 -10 -39 0
-16 10 -23 9 -40 -6 -18 -17 -31 -18 -118 -12 -118 9 -174 24 -181 48 -5 19
-46 25 -57 8 -10 -15 -139 0 -230 27 -44 13 -111 27 -150 30 -44 4 -86 15
-114 30 -29 15 -61 23 -92 23 -36 0 -54 5 -70 21 -28 28 -81 49 -123 49 -19 0
-38 5 -41 10 -3 6 -19 10 -34 10 -16 0 -37 10 -51 25 -14 15 -35 25 -52 25
-21 0 -41 13 -74 46 -26 25 -66 54 -90 64 -49 21 -91 49 -147 98 -20 17 -43
32 -51 32 -35 0 -252 200 -309 283 -22 34 -37 34 -76 1 l-31 -26 -40 36 c-45
40 -69 44 -120 17z m2659 -1145 c10 -12 7 -23 -15 -55 l-27 -41 11 -123 c15
-164 39 -331 62 -442 10 -49 22 -110 25 -135 4 -25 11 -61 17 -81 8 -29 7 -43
-7 -70 -22 -45 -175 -199 -196 -199 -10 0 -40 20 -68 43 -28 24 -68 49 -89 55
-65 20 -75 33 -79 98 -2 33 -5 176 -7 319 -5 263 -17 409 -42 522 -22 99 -18
102 146 104 58 0 125 4 150 8 71 13 107 12 119 -3z"/>
</g>
</svg>
