<?xml version="1.0" standalone="no"?>
<!DOCTYPE svg PUBLIC "-//W3C//DTD SVG 20010904//EN"
 "http://www.w3.org/TR/2001/REC-SVG-20010904/DTD/svg10.dtd">
<svg version="1.0" xmlns="http://www.w3.org/2000/svg"
 width="400.000000pt" height="400.000000pt" viewBox="0 0 400.000000 400.000000"
 preserveAspectRatio="xMidYMid meet">
<metadata>
Created by potrace 1.14, written by Peter Selinger 2001-2017
</metadata>
<g transform="translate(0.000000,400.000000) scale(0.100000,-0.100000)"
fill="#000000" stroke="none">
<path d="M2138 3970 c-48 -10 -102 -23 -120 -28 -20 -7 -110 -9 -226 -7 -107
2 -201 0 -210 -4 -35 -17 -84 -30 -97 -24 -8 2 -28 -5 -44 -16 -16 -12 -36
-21 -44 -21 -9 0 -19 -4 -22 -10 -3 -5 -14 -10 -24 -10 -10 0 -24 -7 -31 -15
-7 -8 -22 -15 -35 -15 -24 0 -56 -26 -95 -79 -37 -49 -63 -76 -83 -84 -9 -3
-22 -18 -29 -32 -14 -31 -94 -115 -109 -115 -5 0 -8 -4 -4 -10 5 -9 -61 -111
-77 -118 -5 -2 -8 -9 -8 -17 0 -7 -7 -18 -16 -26 -9 -7 -22 -30 -31 -51 -8
-20 -24 -40 -35 -44 -11 -3 -17 -8 -14 -11 3 -3 -21 -35 -52 -72 -37 -42 -72
-96 -96 -151 -44 -99 -71 -158 -115 -255 -18 -38 -43 -80 -57 -92 -24 -20
-100 -43 -144 -43 -26 0 -25 -15 1 -41 20 -20 20 -23 5 -31 -26 -15 -19 -38
14 -45 17 -3 30 -7 30 -9 0 -11 -25 -54 -31 -54 -5 0 -9 -10 -8 -22 0 -13 -2
-70 -5 -128 -2 -58 -6 -135 -7 -171 l-3 -67 -39 -5 c-49 -7 -54 -12 -34 -35
22 -24 22 -35 0 -24 -24 11 -55 9 -60 -4 -5 -16 35 -62 70 -81 19 -9 52 -15
79 -14 28 1 48 -3 48 -9 0 -6 -15 -24 -33 -40 -29 -27 -30 -29 -10 -30 21 0
42 -34 29 -47 -3 -3 -1 -13 3 -22 5 -9 12 -49 15 -89 4 -41 15 -90 25 -110 10
-21 22 -62 26 -92 4 -30 12 -66 17 -80 5 -14 11 -39 13 -56 3 -17 16 -51 30
-76 33 -59 40 -110 19 -150 -19 -37 -16 -74 22 -248 33 -149 37 -248 11 -274
-27 -27 -17 -106 17 -143 84 -89 119 -131 133 -158 9 -16 26 -42 37 -56 12
-14 35 -52 51 -85 17 -32 33 -61 36 -64 3 -3 9 -17 13 -32 l6 -28 1580 0 1580
0 0 673 c-1 567 -3 678 -16 712 -8 22 -24 67 -35 100 -28 82 -84 201 -159 340
-63 116 -60 111 -123 217 -31 53 -57 99 -57 103 0 3 -11 21 -25 39 -14 18 -25
40 -25 49 0 10 -5 17 -10 17 -6 0 -14 9 -18 19 -4 10 -37 50 -74 89 -63 67
-138 194 -138 235 0 30 -57 129 -91 157 -3 3 -23 37 -44 75 -20 39 -41 72 -46
73 -5 2 -9 10 -9 18 0 8 -3 14 -7 14 -5 0 -18 15 -30 33 -15 23 -23 55 -28
112 -31 385 -73 578 -155 705 -44 68 -131 147 -197 178 -57 26 -62 27 -273 29
-176 1 -231 -2 -302 -17z m232 -78 c76 -30 165 -127 235 -255 30 -54 34 -67
20 -67 -9 0 -13 5 -10 10 3 6 -2 10 -11 10 -21 0 -74 48 -74 67 0 7 -11 13
-23 13 -13 0 -33 8 -45 18 -11 10 -37 27 -56 37 -20 11 -36 25 -36 31 0 6 -20
22 -45 35 -25 13 -45 31 -45 40 0 25 -33 49 -60 43 -14 -2 -3 7 23 20 50 24
62 24 127 -2z"/>
</g>
</svg>
