<?xml version="1.0" standalone="no"?>
<!DOCTYPE svg PUBLIC "-//W3C//DTD SVG 20010904//EN"
 "http://www.w3.org/TR/2001/REC-SVG-20010904/DTD/svg10.dtd">
<svg version="1.0" xmlns="http://www.w3.org/2000/svg"
 width="2000.000000pt" height="2000.000000pt" viewBox="0 0 2000.000000 2000.000000"
 preserveAspectRatio="xMidYMid meet">
<metadata>
Created by potrace 1.14, written by Peter Selinger 2001-2017
</metadata>
<g transform="translate(0.000000,2000.000000) scale(0.100000,-0.100000)"
fill="#000000" stroke="none">
<path d="M9944 19305 c0 -394 2 -589 5 -445 3 140 4 455 0 700 -4 395 -5 366
-5 -255z"/>
<path d="M9944 16780 c0 -63 1 -89 3 -57 2 31 2 83 0 115 -2 31 -3 5 -3 -58z"/>
<path d="M9941 16634 c0 -11 3 -14 6 -6 3 7 2 16 -1 19 -3 4 -6 -2 -5 -13z"/>
<path d="M18115 16350 l-150 -5 244 -7 c434 -14 981 -6 981 14 0 8 -820 8
-1075 -2z"/>
<path d="M18011 16290 c-46 -5 -87 -14 -91 -20 -4 -6 -14 -8 -22 -5 -9 4 -36
-3 -61 -15 -27 -13 -54 -19 -66 -15 -11 3 -33 -1 -50 -9 -26 -14 -30 -23 -39
-83 -7 -45 -13 -967 -16 -2723 -3 -1460 -9 -2668 -14 -2685 l-9 -30 -104 4
c-57 2 -105 7 -107 12 -2 5 -30 9 -62 9 -40 0 -69 6 -92 20 -30 18 -56 19
-310 22 -237 3 -279 5 -294 19 -13 11 -56 20 -134 28 -63 7 -128 16 -145 21
-16 5 -50 12 -75 16 -25 4 -60 15 -79 25 -27 15 -48 17 -115 12 -45 -3 -170 0
-277 6 -106 6 -227 12 -266 13 -69 1 -94 11 -55 21 9 3 1 5 -18 6 -19 0 -145
8 -280 16 -135 8 -337 19 -450 24 -155 7 -207 13 -215 24 -10 13 -79 29 -185
43 -30 3 -68 14 -85 22 -16 9 -32 17 -35 17 -48 10 -67 19 -76 40 -9 18 -9 25
0 29 7 3 7 5 -1 5 -7 1 -13 8 -13 16 0 8 -8 15 -17 15 -9 0 -24 7 -33 15 -13
11 -52 18 -141 23 -68 4 -134 6 -146 4 -30 -6 -32 -42 -3 -42 11 0 20 -4 20
-10 0 -5 9 -10 20 -10 11 0 20 -7 20 -15 0 -10 11 -15 33 -16 36 0 85 -17 55
-18 -22 -1 -24 -21 -3 -21 26 0 16 -25 -15 -37 -23 -9 -30 -18 -30 -37 0 -19
-5 -26 -20 -26 -11 0 -20 -5 -20 -11 0 -5 5 -7 10 -4 6 3 10 1 10 -4 0 -6 -7
-11 -15 -11 -9 0 -15 -9 -15 -25 0 -20 -5 -25 -25 -25 -23 0 -25 -4 -25 -41
l0 -41 38 3 c30 3 37 0 36 -14 -1 -9 4 -17 12 -17 8 0 14 -10 14 -25 0 -14 -4
-25 -8 -25 -5 0 -19 -10 -32 -22 -16 -15 -25 -18 -28 -10 -2 7 -10 12 -18 12
-8 0 -14 7 -14 15 0 23 -60 20 -61 -2 -1 -10 -6 -3 -11 15 -11 33 -28 44 -28
17 0 -10 -10 -15 -30 -15 -23 0 -30 4 -30 20 0 11 -5 20 -10 20 -7 0 -10 22
-8 58 3 56 3 57 36 60 42 4 41 18 -1 26 -23 4 -38 15 -46 32 -6 14 -15 22 -21
19 -17 -11 -28 29 -35 134 -4 57 -11 98 -15 92 -4 -7 -10 32 -13 85 -5 69 -11
102 -23 115 -15 17 -15 19 -1 25 9 3 22 4 29 2 27 -9 37 38 28 129 -11 103
-12 226 -1 178 6 -25 9 -18 20 47 12 75 23 99 36 78 17 -28 25 -1 25 90 0 82
3 100 15 100 8 0 15 8 15 17 0 9 2 14 5 11 3 -2 10 -135 15 -294 15 -414 21
-484 41 -484 5 0 9 5 9 11 0 5 4 8 8 5 11 -7 2 126 -10 141 -6 7 -10 188 -12
455 -2 487 -5 517 -57 547 -21 12 -29 24 -29 44 0 16 -4 26 -10 22 -19 -12
-10 -64 15 -91 26 -28 33 -54 15 -54 -5 0 -10 -21 -10 -47 0 -27 -3 -72 -6
-100 -6 -47 -10 -53 -30 -53 -12 0 -25 -6 -27 -12 -3 -7 -6 -1 -6 13 -1 14 8
35 18 46 25 26 17 35 -17 20 -20 -9 -26 -9 -30 1 -11 34 -22 4 -22 -62 0 -41
-4 -78 -10 -81 -17 -11 -12 -131 6 -150 12 -11 17 -40 20 -103 4 -85 2 -94
-10 -41 -3 15 -14 29 -24 31 -12 3 -22 18 -25 38 -10 47 -8 148 2 154 14 9 20
95 12 185 -3 47 -2 114 3 150 7 48 7 66 -2 69 -8 2 -12 27 -12 67 0 34 -7 82
-15 105 -16 46 -21 225 -6 234 4 3 27 -17 50 -44 41 -48 41 -49 41 -129 0 -70
3 -83 23 -101 l22 -21 7 83 c7 96 -7 185 -31 193 -22 8 -61 93 -61 131 0 16
-4 34 -9 40 -5 5 -16 38 -25 73 -9 36 -29 85 -45 110 -15 25 -31 59 -35 74 -4
16 -21 53 -39 84 -18 30 -37 63 -43 74 -6 11 -20 30 -31 42 -10 12 -32 41 -47
64 -15 23 -40 46 -55 51 -14 5 -87 70 -162 143 -139 137 -146 148 -193 282 -3
10 -10 16 -15 13 -11 -7 -21 17 -21 50 0 13 -5 44 -12 68 -9 36 -19 49 -47 63
-20 10 -59 36 -87 58 -28 22 -70 47 -94 55 -28 9 -46 23 -54 40 -6 14 -30 50
-53 81 -24 31 -43 59 -43 64 0 4 -13 23 -30 42 -16 18 -30 38 -30 43 0 4 -16
18 -34 30 -19 11 -38 31 -42 43 -3 12 -14 31 -24 42 -24 27 -70 162 -70 206 0
70 -25 139 -63 170 -28 23 -38 41 -47 83 -9 45 -15 55 -36 60 -14 4 -29 18
-35 34 -6 15 -16 34 -24 42 -7 8 -16 30 -20 48 -9 42 -36 54 -128 58 -45 2
-73 8 -80 17 -7 8 -34 17 -62 21 -27 4 -72 11 -100 16 -27 6 -182 12 -343 15
-232 4 -301 2 -335 -9 -23 -8 -73 -17 -112 -21 -42 -4 -83 -15 -103 -27 -28
-17 -33 -18 -38 -4 -3 9 -15 16 -25 16 -23 0 -44 41 -53 102 -5 32 -14 51 -27
58 -17 9 -19 22 -19 103 l0 92 -40 22 c-39 23 -55 19 -44 -11 4 -12 -4 -20
-29 -31 -20 -8 -43 -12 -51 -9 -21 8 -8 34 22 45 14 5 22 12 19 16 -7 7 -206
30 -332 39 -44 3 -97 13 -117 21 -35 15 -41 15 -77 -2 -26 -11 -49 -15 -70
-10 -21 4 -53 -2 -107 -21 -72 -25 -79 -26 -137 -14 -96 20 -171 18 -195 -3
-14 -13 -38 -19 -83 -20 -41 -1 -80 -10 -109 -23 -25 -12 -53 -24 -62 -27 -10
-4 -18 -14 -18 -24 -1 -25 -26 -56 -39 -48 -6 3 -14 -1 -17 -9 -3 -9 -13 -16
-22 -16 -33 0 -132 -33 -132 -45 0 -29 -45 -54 -105 -57 -56 -3 -61 -5 -73
-33 -11 -24 -26 -34 -74 -50 -55 -19 -63 -25 -74 -58 -7 -21 -19 -44 -26 -52
-33 -36 -38 -46 -38 -70 0 -14 -6 -25 -13 -25 -7 0 -24 -26 -37 -57 -31 -77
-43 -90 -105 -108 -29 -8 -58 -21 -64 -29 -6 -7 -18 -51 -27 -97 -8 -46 -23
-122 -32 -169 -16 -86 -18 -163 -7 -300 l6 -75 -45 -14 c-33 -9 -87 -12 -181
-9 -129 3 -134 3 -139 -18 -3 -11 -17 -26 -31 -32 -14 -7 -32 -27 -40 -46 -8
-19 -40 -58 -70 -87 -31 -29 -64 -66 -73 -81 -9 -16 -27 -31 -39 -34 -36 -9
-43 -26 -52 -123 -7 -75 -13 -98 -36 -131 -15 -22 -33 -40 -40 -40 -26 0 -60
-57 -79 -130 -22 -87 -41 -120 -67 -120 -10 0 -30 -14 -46 -31 -15 -17 -47
-52 -70 -77 -24 -24 -43 -48 -43 -52 0 -4 -13 -21 -29 -36 -15 -16 -34 -43
-42 -61 -12 -29 -17 -32 -76 -38 -45 -5 -67 -12 -76 -25 -9 -13 -35 -23 -82
-30 -38 -6 -72 -15 -75 -20 -3 -6 -57 -13 -120 -17 -104 -7 -115 -10 -118 -28
-2 -11 -8 -24 -13 -29 -4 -5 -88 -12 -185 -15 l-176 -7 -27 -32 c-14 -18 -32
-32 -38 -32 -7 0 -13 -4 -13 -10 0 -5 -13 -10 -30 -10 -16 0 -55 -7 -87 -15
-32 -9 -116 -22 -188 -30 -71 -8 -165 -19 -209 -24 -43 -5 -82 -14 -86 -20
-17 -29 -82 -50 -170 -57 -55 -4 -86 -10 -78 -15 12 -8 -89 -12 -315 -14 -45
0 -70 -4 -76 -13 -14 -23 -158 -53 -290 -60 -110 -7 -133 -11 -167 -32 -23
-15 -69 -29 -114 -36 -41 -7 -120 -21 -175 -32 -164 -33 -293 -44 -640 -53
-453 -12 -591 -21 -588 -36 2 -8 -7 -13 -22 -13 -13 0 -42 -9 -63 -20 -74 -39
-141 -48 -427 -60 -154 -6 -293 -13 -308 -17 -16 -3 -35 -16 -43 -28 -20 -30
-59 -47 -124 -52 -83 -6 -174 -41 -192 -74 -10 -17 -28 -29 -49 -34 -63 -12
-69 -16 -104 -71 -48 -74 -65 -125 -72 -214 -4 -49 -12 -84 -24 -102 -28 -39
-23 -51 11 -27 16 13 33 20 36 16 4 -3 8 -268 9 -588 l2 -582 -29 -29 c-16
-17 -33 -40 -38 -52 -4 -12 -11 -110 -15 -217 -5 -146 -10 -200 -21 -217 -15
-22 -19 -39 -43 -177 -33 -196 -42 -332 -26 -425 7 -40 8 -41 22 -21 8 12 17
21 21 21 4 0 8 -32 10 -71 2 -39 8 -82 13 -96 12 -33 11 -286 -2 -357 -9 -48
-8 -65 6 -99 14 -35 16 -64 10 -177 -7 -147 4 -223 47 -335 l23 -60 0 -565 c0
-371 -4 -616 -13 -715 -10 -120 -10 -366 -2 -1215 12 -1137 18 -1352 38 -1387
6 -12 12 -37 12 -55 0 -18 5 -49 12 -68 12 -36 19 -133 37 -510 6 -118 15
-231 20 -250 5 -19 15 -84 22 -145 12 -106 28 -155 50 -155 6 0 26 7 45 16 26
13 36 26 45 58 6 22 15 52 20 66 21 58 37 340 19 340 -6 0 -9 -4 -5 -9 8 -15
-12 -93 -27 -102 -8 -6 -14 -3 -16 6 -6 28 -19 15 -26 -25 -3 -22 -11 -40 -18
-40 -18 0 -2 129 22 175 17 34 20 56 19 142 -1 66 3 108 10 117 9 11 9 16 0
22 -9 5 -7 11 6 20 9 7 21 28 25 46 8 33 8 33 10 -12 2 -25 4 -54 5 -65 1 -11
2 -39 3 -62 1 -29 7 -43 15 -43 18 0 30 -211 17 -301 -5 -35 -10 -112 -10
-170 0 -95 -2 -108 -21 -125 -12 -10 -25 -29 -30 -41 -5 -13 -15 -23 -23 -23
-7 0 -17 -7 -20 -16 -8 -21 -8 -903 0 -1067 5 -100 4 -139 -6 -157 -8 -14 -15
-75 -18 -143 -5 -129 -3 -136 48 -137 20 0 22 -2 10 -10 -12 -8 -10 -10 11
-10 14 0 34 -7 45 -15 10 -8 33 -15 49 -15 17 0 41 -9 55 -20 l25 -19 0 -178
c0 -192 7 -225 50 -245 22 -10 25 -17 25 -64 0 -36 5 -58 17 -70 20 -20 31
-79 42 -239 5 -66 13 -133 18 -150 15 -43 71 -152 83 -160 5 -3 15 -26 21 -51
14 -55 58 -104 92 -104 14 0 27 -4 29 -10 3 -8 119 -24 346 -46 28 -3 52 -10
52 -15 0 -28 31 -37 141 -44 101 -6 353 -40 369 -50 3 -2 58 -5 121 -6 96 -1
114 1 117 14 2 10 -10 20 -32 28 -20 7 -36 19 -36 26 0 7 -4 13 -10 13 -5 0
-10 11 -10 24 0 20 6 25 38 31 30 5 40 12 49 36 20 52 43 56 453 68 346 10
515 23 630 49 25 6 142 14 260 17 l215 7 32 30 c19 19 48 33 75 38 92 17 509
21 838 8 426 -16 657 -16 699 2 43 17 58 3 40 -37 -11 -22 -28 -33 -86 -52
-56 -18 -73 -28 -73 -43 0 -13 9 -20 30 -25 49 -9 29 -28 -36 -33 l-59 -5 53
-14 c41 -10 59 -11 81 -2 40 17 131 18 168 2 18 -7 31 -17 28 -21 -5 -8 39
-30 60 -30 8 0 15 -6 15 -13 0 -8 10 -19 23 -25 21 -10 145 -30 217 -35 l35
-2 -3 -47 c-3 -48 12 -66 25 -31 4 10 28 41 54 68 26 28 76 86 111 129 55 70
86 98 136 122 6 3 12 15 12 25 0 12 10 23 26 29 15 6 238 10 564 10 l538 0 41
80 c45 88 65 165 76 285 9 112 13 125 39 125 28 0 46 18 46 47 0 13 5 23 10
23 17 0 12 -121 -5 -134 -13 -10 -14 -33 -6 -176 8 -153 7 -167 -11 -199 -38
-67 -29 -507 12 -618 32 -85 39 -93 87 -93 33 0 43 4 43 16 0 9 -8 23 -17 30
-12 9 -14 13 -5 14 7 0 10 5 7 11 -4 5 -6 57 -6 115 1 66 -3 113 -11 127 -7
12 -11 27 -9 32 18 50 18 92 2 120 -13 22 -17 49 -16 100 1 67 2 70 25 70 33
0 30 33 -6 80 -27 36 -25 55 7 55 14 0 19 7 19 28 0 15 7 40 15 56 8 15 15 36
15 46 0 10 9 21 19 25 11 3 22 12 25 20 3 8 12 15 20 15 8 0 17 13 21 30 4 17
15 32 27 36 11 3 25 20 32 36 l13 30 7 -26 c4 -15 13 -26 24 -26 14 0 17 11
20 65 1 36 -2 65 -6 65 -18 0 -22 132 -6 194 9 33 13 71 11 85 -10 50 27 75
39 26 15 -60 22 -3 17 132 -5 128 -9 149 -26 166 -18 18 -21 19 -32 4 -15 -21
-25 -12 -25 24 0 40 -14 69 -53 112 -29 32 -37 51 -51 126 -9 49 -16 101 -16
115 0 14 -5 26 -11 26 -6 0 -9 6 -6 13 2 6 -7 29 -20 49 -22 37 -23 43 -23
280 0 134 -5 353 -10 487 -10 226 -12 249 -34 295 -13 28 -29 86 -35 128 -16
114 -48 226 -76 263 -14 17 -25 38 -25 46 0 8 -16 31 -35 52 -20 22 -37 53
-41 75 -3 20 -15 46 -24 57 -10 11 -22 32 -25 48 -4 15 -11 30 -16 33 -5 3 -9
17 -9 31 0 14 -18 58 -39 97 -32 58 -40 85 -46 150 -7 82 -21 124 -61 187 -21
34 -24 50 -24 137 0 89 -2 101 -25 132 -19 26 -25 46 -25 86 0 35 -4 54 -14
57 -26 10 -29 62 -7 98 27 43 27 69 1 69 -24 0 -28 21 -33 210 -4 112 -10 159
-26 207 -12 34 -21 79 -21 100 0 21 -7 47 -15 57 -9 12 -15 42 -15 75 0 51
-14 187 -39 391 -5 41 -13 234 -17 428 -5 277 -4 361 6 392 11 33 10 49 -4
110 -16 63 -17 111 -11 448 12 715 11 832 -3 841 -18 11 -18 98 0 119 11 14
15 95 17 420 2 318 6 415 17 460 8 31 18 102 21 157 5 88 9 103 30 122 16 16
23 33 23 62 0 32 6 44 32 66 29 24 38 27 85 22 38 -4 55 -2 64 9 6 8 32 20 57
26 39 10 43 13 28 23 -9 7 -16 16 -16 20 0 8 91 1 145 -11 l30 -7 -30 26 -30
27 24 20 c17 15 38 20 81 20 54 0 62 -3 115 -46 41 -34 55 -52 53 -67 -4 -27
-34 -34 -58 -12 -16 15 -18 15 -24 0 -3 -9 -6 -25 -6 -36 0 -11 -10 -27 -21
-37 -27 -21 -77 -75 -96 -102 -28 -40 11 -21 72 35 33 30 66 55 75 55 8 0 34
9 58 20 59 27 197 36 319 21 157 -20 163 -21 181 -42 21 -24 52 -25 52 -1 1
41 23 52 106 52 68 0 76 2 59 14 -18 13 -18 15 9 39 l28 26 -17 51 c-20 59
-36 70 -104 70 -28 0 -51 5 -51 10 0 6 5 10 10 10 15 0 12 27 -4 33 -8 3 -23
3 -34 0 -15 -3 -22 2 -30 25 -5 16 -26 39 -46 51 -32 20 -47 22 -128 20 -51
-2 -129 -2 -173 0 -44 1 -107 -3 -140 -10 -33 -6 -118 -13 -190 -14 -141 -3
-195 -16 -247 -60 -16 -14 -40 -25 -53 -25 -22 0 -36 -5 -114 -44 -48 -24 -57
-11 -43 61 15 72 31 319 42 613 5 124 13 275 19 335 6 61 15 241 21 400 12
301 14 344 30 509 10 97 20 128 80 246 10 20 23 78 29 130 7 52 16 97 20 100
4 3 16 75 25 160 11 97 25 171 37 198 20 45 27 100 9 72 -8 -12 -10 -11 -10 7
0 28 10 53 21 53 5 0 9 -7 9 -15 0 -8 6 -15 13 -15 26 0 37 25 37 85 0 34 5
87 11 119 10 48 15 56 30 51 13 -4 19 -1 19 8 0 8 7 28 15 43 8 16 15 38 15
49 0 20 45 67 75 78 8 4 15 17 15 31 0 31 18 78 33 88 7 4 22 8 35 8 13 0 44
18 70 39 30 25 71 47 113 59 38 12 80 33 99 50 34 31 87 48 120 37 18 -6 25
-1 82 52 14 12 47 17 145 21 94 4 135 9 152 21 15 9 58 18 106 22 92 7 139 29
130 60 -6 16 -1 19 35 19 23 0 59 -10 83 -22 61 -32 120 -46 140 -34 12 8 23
7 37 -2 11 -6 33 -12 50 -12 23 0 33 -7 45 -30 15 -29 18 -30 65 -24 44 6 52
4 69 -17 16 -20 21 -21 35 -10 14 12 14 15 -4 38 -11 14 -20 32 -20 40 0 39
122 37 165 -3 37 -34 58 -37 181 -24 132 14 811 20 909 7 63 -7 102 -15 255
-47 25 -5 95 -36 156 -67 l112 -58 5 -47 c6 -49 25 -88 42 -88 6 0 11 -10 12
-21 1 -12 9 -29 19 -40 24 -26 46 -165 33 -206 -7 -22 -7 -44 1 -71 11 -44 34
-70 45 -52 3 5 17 10 29 10 28 0 36 -21 36 -105 0 -43 6 -69 20 -90 11 -16 20
-42 20 -57 0 -25 4 -28 35 -28 35 0 40 -7 37 -50 -1 -8 3 -31 8 -51 12 -43 23
-488 22 -873 0 -221 2 -287 14 -314 11 -27 14 -97 15 -321 1 -245 11 -462 18
-396 5 42 19 -19 20 -85 1 -85 18 -163 41 -192 10 -13 21 -42 25 -64 4 -21 12
-55 18 -74 11 -37 14 -169 16 -730 5 -1278 -6 -2046 -31 -2140 -7 -27 -13
-143 -15 -290 -7 -608 -22 -1173 -32 -1260 -6 -52 -14 -257 -19 -455 -6 -314
-10 -363 -24 -384 -22 -31 -15 -139 10 -158 14 -11 14 -15 -1 -31 -9 -10 -17
-22 -17 -27 0 -5 -6 -16 -13 -24 -40 -47 -105 -249 -128 -396 -12 -73 -22
-636 -10 -575 4 26 11 35 26 35 20 0 20 -8 25 -606 4 -469 8 -609 18 -621 9
-12 14 -104 17 -369 3 -195 10 -417 16 -494 6 -77 14 -201 17 -275 4 -74 11
-141 15 -147 11 -17 62 -16 76 0 6 8 8 17 4 20 -3 4 1 7 9 7 9 0 18 -10 22
-22 3 -13 28 -53 56 -90 28 -37 58 -85 66 -105 9 -21 26 -49 38 -63 30 -33 60
-87 76 -134 9 -27 15 -35 23 -27 7 7 6 16 -6 29 -23 25 -21 55 3 77 20 18 21
18 41 -3 25 -27 82 -29 130 -5 50 26 113 21 196 -15 62 -28 83 -32 156 -32 46
0 106 -7 133 -15 37 -11 128 -16 374 -20 179 -3 342 -8 362 -11 36 -5 120 7
186 27 21 7 34 19 38 35 4 15 13 24 26 24 10 0 33 7 50 16 52 27 59 9 67 -157
l6 -142 60 -34 c33 -18 67 -36 75 -40 34 -15 127 -83 156 -114 30 -33 94 -125
94 -135 0 -3 14 -25 30 -49 17 -24 30 -48 30 -52 0 -17 68 -83 84 -83 10 0 47
-15 84 -34 67 -34 90 -40 277 -71 55 -9 127 -23 160 -31 181 -44 148 -44 2158
-44 l1907 0 0 8146 0 8146 -527 -1 c-291 -1 -719 0 -953 3 -234 3 -463 1 -509
-4z m-6951 -1390 c0 -5 -4 -10 -10 -10 -5 0 -10 5 -10 10 0 6 5 10 10 10 6 0
10 -4 10 -10z m20 -340 c0 -5 -12 -10 -27 -10 -22 0 -25 2 -13 10 20 13 40 13
40 0z m-200 -382 c0 -16 -17 -44 -23 -38 -3 3 -8 15 -11 28 -6 18 -3 22 13 22
12 0 21 -6 21 -12z m-2490 -87 c0 -6 -10 -26 -21 -46 -21 -35 -63 -65 -92 -65
-8 0 -22 -9 -33 -21 -10 -12 -31 -27 -46 -35 -30 -16 -108 -19 -108 -5 0 5 -3
16 -6 25 -4 11 0 16 12 16 13 0 15 3 7 11 -18 18 8 37 59 45 23 4 54 15 67 26
13 10 32 18 42 18 11 0 36 9 56 20 41 22 63 25 63 11z m2580 -29 c0 -18 -126
-147 -172 -175 -31 -19 -64 -22 -73 -7 -3 6 5 14 19 20 21 8 25 16 28 57 3 45
5 49 43 67 22 10 44 24 50 31 11 15 36 22 78 24 20 1 27 -4 27 -17z m1089
-111 c22 -16 57 -22 177 -30 150 -11 250 -26 275 -41 10 -7 10 -11 0 -24 -18
-22 -5 -36 34 -36 29 0 121 -40 160 -70 6 -4 25 -10 43 -13 90 -17 162 -74
162 -127 0 -10 11 -31 24 -47 26 -30 38 -69 21 -67 -5 1 -20 5 -32 9 -18 5
-23 2 -23 -12 0 -10 6 -28 14 -39 11 -15 12 -30 6 -58 -14 -63 -25 -65 -75
-13 -25 26 -45 50 -45 53 0 3 -9 17 -20 31 -12 16 -20 41 -20 65 0 35 -6 46
-47 84 -35 32 -56 44 -79 44 -22 0 -36 7 -47 24 -12 17 -41 32 -104 51 -48 16
-92 32 -97 36 -6 5 -29 9 -53 9 -37 0 -45 4 -53 25 -5 14 -15 27 -22 29 -90
24 -98 24 -124 0 -39 -37 -127 -29 -172 13 -7 7 -19 13 -26 13 -24 0 -49 38
-42 64 11 44 117 61 165 27z m-3669 -46 c-7 -8 -17 -12 -22 -9 -5 3 -1 15 9
26 20 22 32 6 13 -17z m-70 -33 c0 -10 -49 -62 -59 -62 -5 0 -11 -9 -14 -20
-4 -15 -14 -20 -36 -20 -17 0 -31 3 -31 6 0 16 103 104 120 104 11 0 20 -3 20
-8z m2574 -127 c3 -9 14 -15 23 -13 12 2 19 -4 21 -19 3 -19 -1 -23 -26 -23
-36 0 -56 22 -47 50 8 24 21 26 29 5z m2022 -654 c17 -35 23 -40 27 -25 4 16
5 16 6 -4 1 -23 -24 -92 -33 -92 -12 0 -56 112 -56 141 0 45 28 34 56 -20z
m-33 -130 c20 -8 25 -18 29 -56 7 -62 0 -85 -26 -85 -18 0 -51 41 -74 92 -4 9
28 58 38 58 5 0 20 -4 33 -9z m-126 -277 c3 -9 0 -20 -8 -24 -15 -10 -39 6
-39 26 0 19 39 18 47 -2z m682 -756 c1 -31 6 -60 11 -63 11 -7 12 -311 1 -360
-7 -28 -8 -27 -16 20 -10 59 -13 503 -3 477 3 -9 7 -43 7 -74z m-117 -1683
c14 -32 -1 -67 -68 -156 -44 -57 -48 -60 -56 -39 -17 46 59 220 97 220 8 0 21
-11 27 -25z m-3810 -281 c21 -4 49 -18 62 -31 14 -13 37 -28 53 -32 20 -6 28
-14 27 -29 0 -15 3 -19 11 -12 18 15 54 -15 48 -40 -11 -41 -31 -44 -62 -11
-24 26 -37 31 -74 31 -41 0 -50 5 -97 50 -72 69 -63 89 32 74z m-8058 -173
c-5 -80 -22 -151 -36 -151 -4 0 -8 50 -8 111 0 95 3 114 17 125 27 19 33 0 27
-85z m11600 -2623 c4 -145 10 -292 14 -328 12 -114 8 -849 -5 -915 -11 -55
-21 -407 -22 -766 -1 -112 -4 -150 -16 -165 -28 -36 -36 1 -30 141 3 72 7 342
10 600 2 259 9 576 15 705 15 355 17 490 7 497 -5 3 -6 19 -3 35 3 17 3 42 -1
56 -6 24 -7 25 -14 7 -10 -26 -12 28 -9 215 2 115 5 149 18 163 8 9 18 17 22
17 4 0 10 -118 14 -262z m-218 -2304 c-10 -27 -26 -14 -26 21 0 19 5 35 10 35
6 0 11 8 12 18 1 9 3 0 5 -22 3 -21 2 -44 -1 -52z m-11066 -468 c0 -14 -8 -32
-17 -42 -17 -17 -18 -17 -21 10 -4 36 4 56 23 56 9 0 15 -9 15 -24z m13111
-2378 c12 -124 -5 -485 -24 -531 -21 -48 -106 -83 -191 -78 -27 1 -52 -3 -56
-8 -10 -17 -50 26 -50 54 0 32 -18 32 -26 0 -3 -14 -12 -25 -20 -25 -7 0 -16
-11 -20 -25 -3 -14 -10 -25 -15 -25 -5 0 -11 11 -15 25 -5 21 -12 25 -45 25
-35 0 -39 3 -39 25 0 22 -4 25 -42 27 -24 1 -59 3 -78 4 -54 3 -80 14 -80 35
0 32 44 41 155 32 55 -5 128 -7 161 -5 l62 4 11 41 c6 23 15 61 21 85 8 31 20
48 41 61 18 11 42 42 60 79 18 39 46 74 74 98 26 21 45 45 45 56 0 34 68 78
71 46z m-12078 -1605 c-7 -2 -19 -2 -25 0 -7 3 -2 5 12 5 14 0 19 -2 13 -5z"/>
<path d="M14410 1470 c0 -5 5 -10 10 -10 6 0 10 5 10 10 0 6 -4 10 -10 10 -5
0 -10 -4 -10 -10z"/>
<path d="M13828 11153 c6 -2 18 -2 25 0 6 3 1 5 -13 5 -14 0 -19 -2 -12 -5z"/>
<path d="M13730 10991 c0 -6 14 -11 30 -11 23 0 30 -4 30 -20 0 -14 7 -20 21
-20 16 0 20 5 17 28 -3 25 -7 27 -50 30 -29 2 -48 -1 -48 -7z"/>
<path d="M11560 10123 c-108 -10 -197 -26 -215 -37 -11 -7 -35 -16 -53 -19
-18 -4 -46 -17 -62 -29 -25 -18 -30 -27 -25 -49 6 -28 -18 -89 -35 -89 -5 0
-17 -17 -26 -37 -9 -21 -28 -48 -42 -59 -27 -24 -26 -51 2 -89 15 -19 15 -19
16 10 l0 30 144 0 c91 0 144 -4 143 -10 -1 -6 33 -9 93 -7 102 3 133 15 152
57 13 29 25 34 102 42 71 7 136 36 143 64 4 15 12 19 32 15 14 -3 56 -8 93
-12 54 -5 73 -3 93 10 14 9 40 16 58 14 17 -1 76 1 130 6 71 6 110 5 143 -4
44 -12 71 -40 59 -60 -12 -20 14 -44 71 -65 39 -14 63 -30 71 -46 17 -32 42
-49 74 -49 30 0 44 30 34 78 -4 15 -8 36 -10 48 -6 26 -114 141 -139 145 -10
2 -24 13 -30 24 -30 55 -48 74 -62 68 -8 -3 -21 2 -28 12 -17 23 -163 39 -281
31 -204 -15 -337 -17 -383 -8 -52 12 -208 21 -262 15z"/>
<path d="M11100 9910 c0 -5 5 -10 10 -10 6 0 10 5 10 10 0 6 -4 10 -10 10 -5
0 -10 -4 -10 -10z"/>
<path d="M9806 9766 c3 -9 11 -16 16 -16 13 0 5 23 -10 28 -7 2 -10 -2 -6 -12z"/>
<path d="M11240 9650 c0 -6 -10 -15 -22 -19 -21 -8 -21 -10 -5 -16 18 -8 67
18 67 35 0 6 -9 10 -20 10 -11 0 -20 -5 -20 -10z"/>
<path d="M9120 9621 c-14 -5 -47 -10 -75 -10 -50 -1 -99 -26 -163 -81 -13 -11
-34 -20 -47 -20 -12 0 -28 -7 -35 -15 -7 -8 -19 -15 -26 -15 -8 0 -19 -12 -24
-26 -9 -22 -6 -34 14 -68 35 -59 48 -73 74 -81 19 -6 22 -3 22 24 0 45 33 101
103 175 99 103 150 103 127 -2 -14 -69 -9 -85 48 -144 31 -33 42 -38 80 -38
57 0 104 23 137 66 32 42 42 94 25 134 -15 35 -1 59 34 61 14 0 16 2 6 6 -8 3
-23 13 -34 22 -14 12 -43 16 -130 18 -61 1 -122 -2 -136 -6z m141 -101 c27
-15 25 -58 -4 -65 -27 -7 -92 18 -100 39 -12 30 62 48 104 26z"/>
<path d="M11457 9621 c-52 -11 -83 -42 -68 -69 6 -11 11 -34 11 -51 0 -41 28
-109 51 -121 10 -6 62 -10 117 -10 97 0 100 1 117 27 10 14 19 50 20 79 2 29
8 62 15 73 16 31 60 27 106 -10 51 -40 124 -121 124 -136 0 -17 32 -16 56 1
19 14 19 15 -1 48 -31 53 -105 114 -155 129 -25 7 -54 18 -65 25 -24 14 -274
25 -328 15z m158 -95 c43 -31 -9 -66 -99 -66 -57 0 -76 12 -76 46 0 20 6 23
43 27 89 8 114 7 132 -7z"/>
<path d="M11250 9553 c-34 -23 -41 -35 -29 -49 13 -15 37 -8 73 21 47 38 8 64
-44 28z"/>
<path d="M9470 9551 c0 -12 39 -25 48 -16 7 7 -17 25 -35 25 -7 0 -13 -4 -13
-9z"/>
<path d="M9056 5834 c-9 -24 -2 -28 31 -17 33 11 33 27 0 31 -16 2 -27 -3 -31
-14z"/>
<path d="M10707 5692 c-35 -7 -10 -27 44 -34 71 -8 188 -9 217 -2 28 8 28 21
0 30 -24 7 -232 13 -261 6z"/>
<path d="M9757 5677 c-28 -12 -28 -13 -10 -29 39 -35 99 -56 171 -61 51 -3 72
-1 72 7 0 13 -40 53 -80 79 -29 20 -112 22 -153 4z"/>
<path d="M11104 4751 c-34 -15 -37 -30 -10 -42 18 -9 33 -9 57 0 17 6 83 11
145 11 104 0 139 8 119 28 -10 11 -288 13 -311 3z"/>
<path d="M9505 4719 c-113 -12 -179 -32 -183 -55 -3 -18 8 -19 210 -22 188 -2
287 -7 523 -29 52 -4 58 -3 47 10 -16 19 -76 29 -179 30 -75 1 -82 3 -92 24
-15 33 -49 43 -129 36 -47 -4 -71 -2 -76 6 -4 6 -15 10 -24 10 -9 -1 -53 -6
-97 -10z"/>
<path d="M10420 4608 c0 -4 43 -8 95 -8 56 0 95 4 95 10 0 6 -38 9 -95 8 -52
-1 -95 -5 -95 -10z"/>
<path d="M9935 4500 c3 -5 11 -10 16 -10 6 0 7 5 4 10 -3 6 -11 10 -16 10 -6
0 -7 -4 -4 -10z"/>
<path d="M9311 1821 c-9 -17 -6 -20 37 -26 26 -4 50 -11 53 -17 10 -16 120
-11 137 6 13 12 9 17 -31 35 -63 29 -182 30 -196 2z"/>
<path d="M9587 1733 c-8 -13 2 -43 14 -43 10 0 10 8 0 34 -5 12 -10 16 -14 9z"/>
<path d="M9818 802 c-16 -2 -28 -7 -28 -12 0 -9 59 -19 65 -10 8 13 -11 25
-37 22z"/>
<path d="M10070 725 l-25 -14 32 -1 c26 0 30 -3 26 -19 -5 -21 28 -38 48 -25
7 4 21 8 33 9 11 1 25 3 31 4 5 0 -6 14 -25 31 -39 33 -80 38 -120 15z"/>
<path d="M12670 480 c0 -19 3 -21 12 -12 9 9 9 15 0 24 -9 9 -12 7 -12 -12z"/>
<path d="M9010 240 c0 -27 5 -50 10 -50 6 0 10 23 10 50 0 28 -4 50 -10 50 -5
0 -10 -22 -10 -50z"/>
</g>
</svg>
